<svg xmlns:xlink="http://www.w3.org/1999/xlink" xmlns="http://www.w3.org/2000/svg" version="1.1" viewBox="0 0 330 176" height="176px" width="330px">
    <title>endy-product-of-the-year-300x176 2</title>
    <g fill-rule="evenodd" fill="none" stroke-width="1" stroke="none" id="endy-product-of-the-year-300x176">
        <g transform="translate(0.000000, 0.866000)" id="Group-78"></g>
        <g fill="#FDC01A" transform="translate(-0.000153, 31.866200)" id="laurel-left">
            <path id="Fill-1" d="M36.8215529,107.6199 C33.3775529,111.6819 31.8705529,122.3709 43.3625529,131.8009 C43.6285529,131.0589 43.8385529,130.2959 43.9885529,129.5189 C45.7745529,121.0319 42.6055529,113.8099 36.8215529,107.6199"></path>
            <path id="Fill-3" d="M29.1736529,116.2557 C31.9316529,110.9747 32.5286529,101.3367 25.6736529,92.0707 C20.5206529,96.1607 19.7696529,107.0657 29.1736529,116.2557"></path>
            <path id="Fill-5" d="M21.6003529,21.7547 C27.2193529,20.3047 33.6833529,12.9097 34.8083529,0.4397 C30.0083529,1.3167 20.6473529,8.5877 21.6003529,21.7547"></path>
            <path id="Fill-7" d="M16.9646529,94.3714 C21.9126529,89.8344 24.8066529,81.8364 22.2456529,71.5654 C16.3126529,73.2774 11.4316529,82.3434 16.9646529,94.3714"></path>
            <path id="Fill-9" d="M22.6770529,53.1653 C17.7060529,53.2983 10.5530529,59.2773 12.0600529,71.9693 C16.2810529,70.2093 22.4050529,64.5233 22.6770529,53.1653"></path>
            <path id="Fill-11" d="M26.3225529,36.3836 C21.1725529,35.7436 14.1135529,41.1236 13.4805529,52.5446 C19.1405529,51.4626 24.7895529,46.2766 26.3225529,36.3836"></path>
            <path id="Fill-13" d="M30.6926529,21.6746 C27.3446529,20.8476 20.1006529,23.0616 17.6036529,34.3376 C22.1506529,34.2976 28.1686529,30.8356 30.6926529,21.6746"></path>
            <path id="Fill-15" d="M17.6907529,123.7044 C23.3327529,132.5824 32.0607529,137.5364 40.6517529,133.9174 C41.3687529,133.6164 42.0537529,133.2374 42.6967529,132.7884 C36.0547529,126.8784 25.3857529,119.9514 17.6907529,123.7044"></path>
            <path id="Fill-17" d="M27.4553529,117.74 C22.8943529,110.359 14.9793529,100 6.57335289,100.617 C9.72835289,114.828 20.2973529,120.326 27.4553529,117.74"></path>
            <path id="Fill-19" d="M0.0574528887,72.9895 C-0.781547111,86.4475 7.72045289,95.4745 15.6234529,94.8045 C13.0754529,86.7125 8.04145289,74.6625 0.0574528887,72.9895"></path>
            <path id="Fill-22" d="M8.35375289,71.4012 C8.94175289,71.7402 9.56475289,72.0082 10.2107529,72.1992 C10.1967529,64.2172 8.97075289,52.6802 2.15675289,49.2692 C-0.625247111,58.3142 1.29775289,67.5662 8.35375289,71.4012"></path>
            <path id="Fill-24" d="M11.8479529,51.7185 C13.0679529,44.0875 12.9499529,33.2835 6.85795289,29.3845 C2.40095289,40.1595 6.08595289,49.0535 11.8479529,51.7185"></path>
            <path id="Fill-26" d="M15.8327529,33.4715 C18.4577529,27.0575 20.1977529,17.9305 15.4827529,13.4975 C9.19875289,22.9825 12.5057529,30.8055 15.8327529,33.4715"></path>
        </g>
        <g transform="translate(0.000000, 1.000000)" id="laurel-right">
            <polygon points="0 179.866 329.486 179.866 329.486 -1.42108547e-14 0 -1.42108547e-14" id="Clip-64"></polygon>
            <path fill="#FDC01A" id="Fill-28" d="M285.4977,160.3855 C285.6477,161.1625 285.8567,161.9255 286.1237,162.6665 C297.6157,153.2375 296.1077,142.5475 292.6647,138.4865 C286.8807,144.6765 283.7117,151.8985 285.4977,160.3855"></path>
            <path fill="#FDC01A" id="Fill-30" d="M303.8121,122.9373 C296.9571,132.2023 297.5541,141.8413 300.3121,147.1223 C309.7161,137.9323 308.9641,127.0263 303.8121,122.9373"></path>
            <path fill="#FDC01A" id="Fill-32" d="M294.6774,31.3055 C295.8024,43.7765 302.2674,51.1705 307.8854,52.6205 C308.8384,39.4535 299.4774,32.1825 294.6774,31.3055"></path>
            <path fill="#FDC01A" id="Fill-34" d="M307.2408,102.4314 C304.6778,112.7024 307.5728,120.7004 312.5208,125.2374 C318.0538,113.2094 313.1738,104.1434 307.2408,102.4314"></path>
            <path fill="#FDC01A" id="Fill-36" d="M317.4254,102.8357 C318.9324,90.1437 311.7794,84.1647 306.8094,84.0317 C307.0804,95.3897 313.2044,101.0757 317.4254,102.8357"></path>
            <path fill="#FDC01A" id="Fill-38" d="M316.0055,83.4104 C315.3725,71.9904 308.3135,66.6104 303.1625,67.2494 C304.6955,77.1424 310.3455,82.3284 316.0055,83.4104"></path>
            <path fill="#FDC01A" id="Fill-40" d="M311.8815,65.2034 C309.3855,53.9284 302.1415,51.7144 298.7935,52.5404 C301.3175,61.7024 307.3355,65.1634 311.8815,65.2034"></path>
            <path fill="#FDC01A" id="Fill-42" d="M286.7887,163.6551 C287.4327,164.1041 288.1177,164.4821 288.8347,164.7831 C297.4257,168.4031 306.1527,163.4491 311.7947,154.5711 C304.0997,150.8171 293.4317,157.7451 286.7887,163.6551"></path>
            <path fill="#FDC01A" id="Fill-44" d="M322.9127,131.4832 C314.5067,130.8662 306.5907,141.2252 302.0297,148.6062 C309.1877,151.1922 319.7577,145.6942 322.9127,131.4832"></path>
            <path fill="#FDC01A" id="Fill-46" d="M313.8619,125.6712 C321.7649,126.3412 330.2669,117.3142 329.4279,103.8562 C321.4439,105.5292 316.4109,117.5782 313.8619,125.6712"></path>
            <path fill="#FDC01A" id="Fill-48" d="M327.3287,80.135 C320.5147,83.547 319.2897,95.084 319.2747,103.066 C319.9207,102.874 320.5437,102.606 321.1317,102.267 C328.1877,98.432 330.1107,89.18 327.3287,80.135"></path>
            <path fill="#FDC01A" id="Fill-50" d="M322.6276,60.2503 C316.5366,64.1493 316.4176,74.9543 317.6376,82.5843 C323.3996,79.9193 327.0846,71.0263 322.6276,60.2503"></path>
            <path fill="#FDC01A" id="Fill-52" d="M314.0035,44.364 C309.2875,48.797 311.0265,57.924 313.6525,64.338 C316.9795,61.672 320.2865,53.849 314.0035,44.364"></path>
        </g>
        <g opacity="0.7" fill-rule="nonzero" fill="#243746" transform="translate(130.240000, 155.586200)" id="WINNER">
            <polygon points="6.74 -2.84217094e-14 4.58 8.26 2.58 -2.84217094e-14 0 -2.84217094e-14 3.2 12.28 5.54 12.28 7.7 4.18 9.86 12.28 12.2 12.28 15.4 -2.84217094e-14 12.88 -2.84217094e-14 10.86 8.26 8.74 -2.84217094e-14" id="Path"></polygon>
            <polygon points="19.68 -2.84217094e-14 17.12 -2.84217094e-14 17.12 12.28 19.68 12.28" id="Path"></polygon>
            <polygon points="32.6 -2.84217094e-14 30.14 -2.84217094e-14 30.14 7.76 24.72 -2.84217094e-14 22.32 -2.84217094e-14 22.32 12.28 24.78 12.28 24.78 4.1 30.58 12.28 32.6 12.28" id="Path"></polygon>
            <polygon points="45.54 -2.84217094e-14 43.08 -2.84217094e-14 43.08 7.76 37.66 -2.84217094e-14 35.26 -2.84217094e-14 35.26 12.28 37.72 12.28 37.72 4.1 43.52 12.28 45.54 12.28" id="Path"></polygon>
            <polygon points="48.2 -2.84217094e-14 48.2 12.28 56.54 12.28 56.54 10.02 50.72 10.02 50.72 7.1 56 7.1 56 4.92 50.72 4.92 50.72 2.24 56.54 2.24 56.54 -2.84217094e-14" id="Path"></polygon>
            <path id="Shape" d="M62.7,7.7 L65.74,12.28 L68.62,12.28 L65.38,7.52 C67.1,7.1 68.18,5.86 68.18,3.9 C68.18,1.38 66.46,-2.84217094e-14 63.88,-2.84217094e-14 L58.82,-2.84217094e-14 L58.82,12.28 L61.36,12.28 L61.36,7.7 L62.7,7.7 Z M61.36,2.18 L63.72,2.18 C65,2.18 65.66,2.86 65.66,3.9 C65.66,4.92 65,5.6 63.72,5.6 L61.36,5.6 L61.36,2.18 Z"></path>
        </g>
        <g fill="#243746" transform="translate(136.500002, 5.866200)" opacity="0.699999988" id="POY_2020__ENG">
            <path id="Fill-4" d="M6.91031655,13.4220737 C9.59472527,8.19298981 14.1164855,4.20543205 19.6437913,2.19413495 C25.1552276,0.187784178 31.1685092,0.330196955 36.5727752,2.59272585 C41.8232932,4.7909526 46.0501292,8.79211274 48.5160754,13.8829058 L5.03978346,29.7063874 C3.65976037,24.2361704 4.31803303,18.4722658 6.91031655,13.4220737 Z M49.23391,13.6215753 C46.6904714,8.32963188 42.3123605,4.17101391 36.8670812,1.89199728 C31.2837172,-0.446169082 25.0756743,-0.592291599 19.3843156,1.47939181 C13.6754387,3.55622764 9.00631937,7.67424457 6.23452568,13.0745948 C3.54496454,18.3143957 2.87185292,24.2957324 4.32236106,29.9679241 L0.28101208,31.4390419 L0.541312135,32.153785 L53.0679258,13.0354364 L52.8076258,12.3211055 L49.23391,13.6215753 L49.23391,13.6215753 Z"></path>
            <polyline points="3.65007383 41.4215386 3.9095495 42.1360757 56.5919722 22.9618749 56.3316722 22.2471318 3.65007383 41.4215386" id="Fill-5"></polyline>
            <path id="Fill-6" d="M30.3276349,38.9537375 C30.3979139,38.8304917 30.4525295,38.7338324 30.4902452,38.6588132 C30.5294035,38.5856489 30.5345559,38.504859 30.5017866,38.4189167 L29.3593929,35.2792405 C29.3185858,35.1638264 29.2371776,35.088395 29.1197025,35.0537708 C29.0448894,35.0407867 28.9698703,35.0267721 28.8942328,35.011521 L28.7685138,34.6652786 C29.269947,34.5966485 29.7159401,34.6294178 30.1056688,34.7666782 C30.494161,34.9031142 30.7670329,35.0896316 30.9242847,35.3256123 C31.0825669,35.5626234 31.2004542,35.7588274 31.2800075,35.9140182 C31.3583242,36.0702394 31.42613,36.2241936 31.4799212,36.374232 C31.5530855,36.5741457 31.6070828,36.7678765 31.641501,36.9548062 C31.6769496,37.1409115 31.679835,37.3781287 31.6493327,37.6652213 C31.6196547,37.9523139 31.505065,38.2408492 31.3080366,38.5273235 C31.1095656,38.8150345 30.8222668,39.0652358 30.4461405,39.2754543 L30.3276349,38.9537375 Z M30.165849,39.3772661 C29.7417022,39.4586743 29.3626904,39.4529035 29.0294322,39.359954 C28.6955556,39.2688593 28.4249507,39.1221184 28.2134956,38.9189072 C28.003277,38.7177568 27.8513838,38.5343308 27.7582281,38.368423 C27.6661029,38.2010726 27.5826338,38.0188831 27.5096756,37.8189694 C27.3930249,37.4997257 27.3159447,37.1573992 27.2749315,36.7895167 C27.2339183,36.4216342 27.3192423,36.0601407 27.5300791,35.7050362 C27.7396794,35.35055 28.0589231,35.0383136 28.4878102,34.7691513 L28.6135292,35.113951 C28.551288,35.1922677 28.49152,35.2703784 28.434019,35.348489 C28.3993948,35.4292789 28.4006313,35.5197553 28.434019,35.615178 L29.5774431,38.7529994 C29.6071211,38.8344075 29.6673013,38.8958243 29.7639606,38.9370437 C29.8569102,38.9792935 29.9517146,39.0176274 30.0459008,39.0510151 L30.165849,39.3772661 L30.165849,39.3772661 Z"></path>
            <path id="Fill-7" d="M32.541525,38.5106297 L32.4485754,38.5242321 C32.4261109,38.5242321 32.3984939,38.5060956 32.3620148,38.4741506 C32.326154,38.440763 32.3043078,38.4112911 32.294209,38.3842925 C32.2748359,38.329883 32.2812249,38.283099 32.3109029,38.2408492 C32.3401686,38.1985994 32.4003488,38.1485179 32.4889704,38.0881316 C32.579859,38.0279514 32.6132466,37.9723053 32.5955223,37.9209872 L31.2837172,34.3171814 C31.2657868,34.2679243 31.2031334,34.2479329 31.0959632,34.2588561 C30.988999,34.2691609 30.9094457,34.2691609 30.8601886,34.2563829 C30.8096949,34.2446354 30.7748646,34.2114538 30.7563159,34.1570443 C30.7427135,34.1230384 30.7427135,34.0826434 30.7550793,34.0383327 C30.7660025,33.9915487 30.7761012,33.9626952 30.7849633,33.9511538 L30.8645167,33.9031333 L32.5485323,33.2897897 L34.0454122,37.3946164 C34.0627243,37.4446979 34.1247594,37.4651015 34.2331662,37.4535601 C34.3407487,37.442843 34.420302,37.4440796 34.4701773,37.4550027 C34.5221137,37.4677807 34.5567379,37.4997257 34.576111,37.553723 C34.588889,37.5883473 34.5895073,37.6279178 34.5798208,37.6728469 C34.5691037,37.7183942 34.5594172,37.7472478 34.5454026,37.7612623 L34.4658493,37.8086646 L32.541525,38.5106297 Z M34.6043463,35.5587076 L34.6836935,35.7779944 C34.7152262,35.8666159 34.7292408,35.9319486 34.7222335,35.9729618 C34.7152262,36.0152116 34.6952349,36.0422103 34.6599923,36.0549883 C34.6259864,36.067148 34.5798208,36.0568431 34.5221137,36.0234555 C34.4637883,35.9896556 34.4087605,35.9140182 34.354351,35.7967492 C34.2997354,35.6780375 34.1940078,35.615178 34.034283,35.608789 L33.8088132,35.5984842 L33.6554773,35.1780471 L33.8230339,35.0255356 C33.9394785,34.917747 33.9823466,34.7998597 33.9479285,34.6731103 C33.9157774,34.5447121 33.9075335,34.4529991 33.9254639,34.3946737 C33.942776,34.3344935 33.9734844,34.2986327 34.0157343,34.2831755 C34.0888986,34.2563829 34.1542312,34.3217155 34.2119383,34.4793795 L34.2914916,34.6986663 L34.6043463,35.5587076 Z M32.921155,33.1550025 L34.2811867,32.6589279 L34.6696789,33.7242414 L34.7465529,33.9383758 C34.7568578,33.9651684 34.7492322,33.9979377 34.7249128,34.0383327 C34.699769,34.077491 34.6645265,34.105108 34.6171242,34.1215957 C34.5721952,34.1382895 34.5221137,34.1376712 34.4670859,34.1191225 C34.411852,34.0999556 34.3407487,34.0364778 34.2535698,33.9295136 C34.1672153,33.8211068 34.0724108,33.7320731 33.9697747,33.6601453 C33.8675508,33.5884237 33.7620293,33.5428763 33.6517676,33.5218545 C33.5419181,33.5012448 33.441549,33.4923827 33.3485994,33.4948558 C33.2544133,33.4985656 33.1927904,33.4985656 33.1587844,33.4985656 C33.1262212,33.497329 33.0965432,33.4960924 33.0769641,33.4960924 C33.0542934,33.4948558 33.0402789,33.484551 33.0326533,33.465384 L32.921155,33.1550025 L32.921155,33.1550025 Z"></path>
            <path id="Fill-8" d="M15.0748349,40.0798495 L11.7049488,45.2809043 C11.6639355,45.3443821 11.5703676,45.3520076 11.4261,45.3035749 C11.2830689,45.25473 11.1742499,45.2316472 11.1012917,45.2316472 C11.0281274,45.2328838 10.969802,45.267508 10.9254913,45.3367565 C10.9038511,45.3695258 10.8896304,45.4206378 10.8826232,45.489268 C10.8768525,45.5572799 10.8820049,45.6053004 10.9005536,45.6290015 L10.9959763,45.7240121 L13.4318325,47.3008574 L13.5554905,47.3513511 C13.5812525,47.3534121 13.6228841,47.340428 13.6830643,47.314872 C13.742214,47.2860185 13.7857004,47.2513943 13.8139357,47.2072896 C13.857422,47.1392777 13.8652537,47.0712658 13.8357819,47.00346 C13.8063101,46.9366847 13.7395348,46.8470326 13.6350438,46.7340917 C13.5305528,46.6213568 13.4992261,46.5339719 13.539621,46.4700819 L16.9099194,41.2694393 L15.0748349,40.0798495 Z M17.0651101,41.9291547 C17.058515,41.9394595 17.0618126,41.9738776 17.0741784,42.0342639 C17.0869564,42.0950625 17.1143672,42.1599829 17.1535256,42.2304679 C17.1945388,42.3015713 17.2233923,42.3945209 17.241941,42.5097289 C17.2598714,42.6265857 17.2543068,42.7535412 17.2233923,42.8963662 C17.1933022,43.0406338 17.1329159,43.220144 17.0405846,43.441904 C16.949696,43.6624274 16.9408339,43.7957719 17.0137921,43.8431741 C17.0471797,43.8650204 17.0900478,43.8674935 17.1401293,43.8483266 C17.190623,43.8291596 17.2233923,43.806695 17.2394679,43.7815512 L17.4138256,43.512389 L18.288912,42.1636926 L17.3202578,41.5348918 L17.0651101,41.9291547 Z M14.4548962,40.2381317 C14.4485072,40.2472 14.4157378,40.2593597 14.3555576,40.2715194 C14.294553,40.2836791 14.224068,40.2875949 14.1438964,40.279145 C14.0626943,40.2715194 13.9658289,40.2816181 13.8528879,40.3152119 C13.7395348,40.3438593 13.6241206,40.4021847 13.50747,40.4887453 C13.38814,40.5746876 13.2651003,40.684331 13.134435,40.8215913 C13.0050063,40.9586456 12.9114385,41.0408781 12.8537314,41.0643732 C12.7960244,41.0907535 12.7510953,41.0907535 12.7170893,41.0689073 C12.6927699,41.0540683 12.6760761,41.0200624 12.667214,40.9689504 C12.658764,40.9188689 12.667214,40.8745582 12.6927699,40.8368425 L12.8671277,40.5664437 L13.742214,39.2163046 L14.7100438,39.8438689 L14.4548962,40.2381317 L14.4548962,40.2381317 Z"></path>
            <path id="Fill-9" d="M21.8020353,47.0341684 L20.8315262,46.7757232 L20.978267,46.225033 L21.9496005,46.4828599 L22.5751038,44.1302668 C22.5950951,44.0579268 22.5380064,43.9841442 22.4052801,43.9099495 C22.2725539,43.8355486 22.1814592,43.7714525 22.1334387,43.714982 C22.0854181,43.6599542 22.0714036,43.5944155 22.0924254,43.5150683 C22.1027303,43.4752916 22.1315838,43.4315992 22.1777494,43.3804872 C22.2239151,43.3304057 22.2628673,43.3021705 22.2944001,43.3009339 L22.4271264,43.3073229 L25.2339565,44.0548354 L25.3532864,44.1129546 C25.3718351,44.137274 25.3903838,44.1727227 25.4103752,44.2225981 C25.4295422,44.2739161 25.4295422,44.335539 25.4103752,44.4072606 C25.3891473,44.4861957 25.3462792,44.5354527 25.2807404,44.5579173 C25.2147895,44.5785269 25.1057644,44.589244 24.9532529,44.5867708 C24.8007414,44.5855342 24.7147991,44.6207768 24.6956321,44.6945594 L23.2962359,49.9518785 C23.2770689,50.0244245 23.3341577,50.098001 23.4675022,50.1719897 C23.599404,50.2482455 23.6892622,50.3111049 23.7366644,50.3609803 C23.7822118,50.413535 23.7943715,50.477631 23.7743801,50.5557417 C23.7597472,50.6115938 23.7327486,50.6583778 23.693178,50.6917654 C23.6540197,50.7261836 23.6148613,50.7564798 23.5790005,50.7828602 L23.4468925,50.7744102 L20.6386197,50.0277221 L20.5194959,49.9685723 C20.5052752,49.9518785 20.4867265,49.9141628 20.4657047,49.8494485 C20.4417974,49.7878256 20.438706,49.7315612 20.4521023,49.6814797 C20.4727119,49.6033691 20.517641,49.552051 20.5866834,49.5289682 C20.6546953,49.505061 20.7661936,49.4931074 20.9187051,49.4953745 C21.0708044,49.4980537 21.1559223,49.4609563 21.176532,49.3879981 L21.8020353,47.0341684 Z M19.0463171,43.1912905 C19.0656902,43.1175079 19.0086014,43.0445497 18.8752569,42.9701488 C18.7425307,42.8945113 18.6508177,42.8304153 18.6034154,42.7753875 C18.5547766,42.7201536 18.5407621,42.6554392 18.5624022,42.5773286 C18.572707,42.5361093 18.6009423,42.4920046 18.6471079,42.4406865 C18.6938919,42.390605 18.7322258,42.3638125 18.7637586,42.3598966 L18.8971031,42.3687588 L21.7039333,43.1150347 L21.8226449,43.1739784 C21.8418119,43.1964429 21.8605667,43.232922 21.8791154,43.2830035 C21.8989007,43.3337033 21.899519,43.3957383 21.8797337,43.4689026 C21.8597423,43.5457767 21.8162559,43.5958582 21.7515416,43.6162617 C21.6866211,43.6399629 21.5778021,43.650886 21.4265272,43.6496494 C21.2752523,43.6475884 21.1905465,43.6842736 21.1713796,43.7559953 L19.7726017,49.0143449 C19.7521981,49.0879214 19.8086686,49.1598491 19.9405704,49.2340439 C20.0720601,49.3084448 20.1610938,49.370686 20.2072595,49.4211797 C20.2521885,49.4724977 20.2643482,49.5380365 20.244563,49.6173837 C20.2291057,49.6724115 20.2021071,49.7173405 20.1637731,49.7532013 C20.123172,49.7867951 20.0854564,49.8166791 20.048359,49.8430595 L19.916251,49.8354339 L17.1085965,49.0879214 L16.9886483,49.0289778 C16.9754581,49.0135205 16.9573216,48.9743621 16.9350631,48.9110905 C16.9117742,48.8494676 16.9074462,48.7917605 16.9214608,48.7410608 C16.9418643,48.662744 16.9867934,48.6122504 17.0572785,48.587931 C17.1259086,48.5660847 17.2367886,48.553925 17.3893001,48.5572226 C17.5413995,48.5572226 17.62796,48.5211556 17.647127,48.4479913 L19.0463171,43.1912905 L19.0463171,43.1912905 Z"></path>
            <path id="Fill-10" d="M30.2204647,46.6794761 L30.2031525,46.3495154 C30.1903745,46.1122981 30.1287517,45.996884 30.01849,46.0020364 C29.9570732,46.005334 29.8993661,46.0442862 29.8517578,46.116214 C29.8037373,46.18876 29.7761203,46.3175704 29.7684947,46.5047061 C29.7623118,46.6897809 29.6569964,46.8321937 29.4544035,46.928853 L29.1679291,47.06735 L29.2019351,47.7046008 L29.502424,47.80971 C29.7159401,47.8865841 29.8338274,48.0141579 29.8569102,48.195523 C29.879993,48.3777124 29.9261587,48.5032252 29.9890181,48.5712371 C30.0555873,48.6404856 30.1122639,48.6730489 30.1642003,48.6699574 C30.2159305,48.6674843 30.2569438,48.6390429 30.2812632,48.5866944 C30.3070252,48.5316666 30.3158874,48.4380987 30.3082618,48.3057847 L30.291568,47.9752056 L30.2204647,46.6794761 Z M29.0255163,44.4853713 C29.0275773,44.5144309 29.0428285,44.5342162 29.0723003,44.5432844 C29.1017721,44.5546197 29.1384573,44.5661611 29.182562,44.5816184 C29.2262545,44.5958391 29.3113724,44.6201585 29.4389462,44.6547827 C29.5640469,44.6887886 29.6980097,44.7419616 29.8358883,44.8161564 C29.9762401,44.8893207 30.1005164,44.99443 30.2095415,45.1341635 C30.3185667,45.273897 30.4094553,45.4340341 30.481383,45.6156052 C30.5570205,45.7969703 30.6256506,45.9123844 30.6916016,45.9624659 C30.7583769,46.0086315 30.826801,46.0317143 30.8948129,46.0275924 C30.963443,46.0238827 31.0236233,46.0020364 31.074323,45.9573135 C31.1223435,45.9138271 31.1478995,45.8726077 31.1448081,45.8309762 L31.127496,45.5086411 L31.0390805,43.904797 L29.0005787,44.0162953 L29.0255163,44.4853713 Z M26.5878053,50.3543852 C26.5917211,50.4289922 26.5212361,50.490409 26.3749075,50.535132 C26.2302276,50.5815037 26.1275915,50.6270511 26.0698845,50.6711558 C26.0109408,50.7146422 25.9833239,50.7775016 25.9884763,50.8584976 C25.9905372,50.8980682 26.0097042,50.9493862 26.0449468,51.0083299 C26.079571,51.0672735 26.1123404,51.1012795 26.1418122,51.110966 L26.273714,51.1288964 L28.824366,50.9903995 L28.4441177,44.0457671 L25.8936718,44.1867372 L25.7642431,44.2195066 C25.7481676,44.2329029 25.7224055,44.2681454 25.6877813,44.3239976 C25.6527449,44.3814986 25.6364632,44.4361142 25.6391425,44.4886688 C25.6436766,44.570077 25.6776826,44.627784 25.7411603,44.6648814 C25.8031954,44.7021849 25.9097474,44.7355726 26.0595796,44.7650444 C26.2083814,44.7943101 26.2858737,44.8470709 26.2897896,44.9227083 L26.5878053,50.3543852 Z M29.3453783,50.490409 C29.3441417,50.4621738 29.3571258,50.4415641 29.3863916,50.4289922 C29.4127719,50.4147716 29.4486327,50.3980777 29.4923252,50.3789107 C29.5331324,50.3583011 29.6172198,50.3257378 29.7390229,50.2795722 C29.860826,50.2307273 29.9877816,50.1629215 30.1198895,50.0757426 C30.2499365,49.9865027 30.3632896,49.8673789 30.4570636,49.7173405 C30.5493949,49.5660656 30.624208,49.3980968 30.677587,49.2084879 C30.7301416,49.0186729 30.786406,48.8981064 30.8465862,48.841842 C30.9082091,48.7866081 30.9741601,48.7552814 31.0434085,48.7534266 C31.1132753,48.750129 31.1734555,48.7659984 31.2286894,48.8033019 C31.2837172,48.841842 31.3121585,48.880176 31.3133951,48.9211892 L31.3307072,49.2431122 L31.4195349,50.8481928 L29.3711404,50.9596911 L29.3453783,50.490409 L29.3453783,50.490409 Z"></path>
            <path id="Fill-11" d="M38.0925319,44.4853713 L38.1797107,42.1290684 C38.18239,42.0765138 38.220724,41.9996397 38.2945066,41.8996828 C38.3682892,41.7984894 38.4670095,41.6700912 38.587576,41.5136638 C38.6001479,41.4440032 38.5900491,41.3702206 38.5529517,41.2894307 C38.5247165,41.2265712 38.4946264,41.179169 38.4630936,41.145163 C38.4311486,41.1111571 38.4080658,41.089517 38.391372,41.0779755 L38.3155284,41.0837462 L36.7720707,41.7830321 L36.7283782,41.8316709 C36.7265233,41.870211 36.7283782,41.9099877 36.7337367,41.9495582 C36.7374465,41.9880983 36.7541403,42.0363249 36.7803146,42.0950625 C36.8143205,42.1702877 36.8503874,42.2201631 36.8932555,42.2508715 C36.9361236,42.2791068 37.0684377,42.2830226 37.2920525,42.2611763 C37.5158735,42.2380935 37.6207767,42.2933274 37.6106779,42.4258476 L37.4876382,43.9534358 L38.0925319,44.4853713 Z M36.4517965,46.4636929 L33.6901016,44.0123795 C33.6293031,43.962298 33.5351169,43.9482834 33.4069248,43.9674504 C33.2779083,43.9880601 33.17486,43.9907393 33.0953067,43.9765187 C33.0145168,43.9616797 32.9586646,43.9163384 32.9248647,43.8419376 C32.9081709,43.8060767 32.9017819,43.7535221 32.9054917,43.6842736 C32.9094075,43.6150252 32.9234221,43.5694778 32.9440317,43.5470133 L33.0522325,43.4701392 L35.6954219,42.2708629 C35.7273668,42.2708629 35.7646703,42.2636495 35.8054775,42.2508715 C35.8477273,42.2380935 35.8817332,42.2213997 35.906877,42.1997595 C35.9318147,42.1779133 35.9682938,42.1843023 36.015696,42.2168656 C36.0618617,42.2508715 36.0991652,42.2984798 36.1278126,42.3619576 C36.154193,42.4200769 36.160582,42.4777839 36.145743,42.5342544 C36.128637,42.593198 36.0767006,42.6484319 35.9856059,42.6995439 C35.8938929,42.7496254 35.8248505,42.8291787 35.7772422,42.9355245 C35.7316949,43.043107 35.742618,43.1251335 35.8133091,43.1824283 L38.0016432,45.167345 L39.0784982,47.5424027 C39.1182748,47.6264901 39.1547539,47.6699765 39.1924696,47.6763655 C39.2297731,47.6815179 39.2887167,47.6839911 39.3732164,47.6852277 C39.4770891,47.7019215 39.5438644,47.7468506 39.577252,47.8212515 C39.6015714,47.8750427 39.609197,47.9263607 39.6015714,47.9789154 C39.5927093,48.0308517 39.5824045,48.0778418 39.5700387,48.1200916 L39.4618379,48.1994388 L37.5068052,49.0840056 L37.3773765,49.1155383 C37.3530571,49.1143018 37.314311,49.0994628 37.2658782,49.069991 C37.2195065,49.0403131 37.182203,48.9995059 37.1593263,48.9467452 C37.1220228,48.8686346 37.131091,48.777746 37.1848823,48.6777891 C37.2374369,48.5776261 37.269588,48.4968362 37.2798928,48.4348011 C37.2893733,48.3737965 37.275977,48.3024871 37.2401162,48.221285 L36.4517965,46.4636929 L36.4517965,46.4636929 Z"></path>
            <path id="Fill-12" d="M43.6771325,40.0817044 L43.4566091,39.8368616 C43.2975025,39.6600307 43.1775542,39.6080943 43.0963521,39.6816708 C43.0493621,39.7214475 43.0295768,39.7882228 43.0374085,39.8747834 C43.0450341,39.961344 43.1039777,40.0792312 43.215476,40.2292696 C43.3257377,40.3778653 43.3333633,40.5540779 43.2379405,40.7574953 L43.1000619,41.0452062 L43.524621,41.5188163 L43.8257281,41.4145314 C44.0371833,41.3393061 44.2109228,41.3663047 44.343649,41.4920237 C44.4769935,41.6189792 44.5884918,41.6882277 44.6814414,41.7022423 C44.7770702,41.7162568 44.8415785,41.7055398 44.8795003,41.6700912 C44.9180403,41.6354669 44.9314366,41.5895074 44.9180403,41.5315942 C44.9052623,41.4728567 44.8539443,41.39454 44.763674,41.2945831 L44.5443871,41.0485037 L43.6771325,40.0817044 Z M41.3725599,39.119027 C41.3911086,39.1421098 41.4168706,39.1458196 41.4451059,39.1363391 C41.475196,39.1260343 41.5104385,39.112638 41.5539249,39.0959442 C41.598854,39.0792503 41.6810865,39.0446261 41.8002104,38.9945446 C41.9180977,38.9395168 42.055358,38.8997402 42.2111671,38.8690318 C42.3669761,38.8393539 42.5289681,38.8447124 42.701471,38.884489 C42.8733556,38.9252962 43.0450341,38.9945446 43.2169187,39.0881125 C43.386124,39.1843596 43.5128735,39.2292887 43.595106,39.2266094 C43.6771325,39.2220753 43.74432,39.1971376 43.7962563,39.1511781 C43.8481927,39.106249 43.8797255,39.0497785 43.8904425,38.9856825 C43.9019839,38.9201437 43.8949766,38.8727415 43.8667414,38.8426514 L43.6534314,38.6048159 L42.5796679,37.4067761 L41.059293,38.7703115 L41.3725599,39.119027 Z M43.144991,45.2240216 C43.1948663,45.2796677 43.1775542,45.3707624 43.0936729,45.4968936 C43.0091733,45.6238491 42.9578552,45.7240121 42.9393065,45.794291 C42.9219944,45.8649822 42.9393065,45.9296965 42.9930977,45.9907011 C43.0194781,46.0199668 43.0668803,46.0482021 43.1303581,46.0725215 C43.1936298,46.0956043 43.2424747,46.1021994 43.2719465,46.0918946 L43.3846813,46.0226461 L45.2859228,44.3174025 L40.6438021,39.1421098 L38.7413241,40.8471473 L38.6638317,40.9534932 C38.658061,40.9741028 38.6586793,41.0175892 38.6681598,41.0837462 C38.677228,41.1496972 38.6990743,41.2022518 38.7324619,41.2414102 C38.7874897,41.3015904 38.8515858,41.3265281 38.9220708,41.3162233 C38.9944107,41.3061245 39.0989017,41.2651113 39.2336889,41.1958628 C39.3682701,41.1247595 39.4618379,41.1175461 39.5117133,41.17278 L43.144991,45.2240216 Z M45.3815517,43.6034838 C45.3615603,43.5804009 45.3590871,43.5560815 45.3739261,43.5290829 C45.3873224,43.5008476 45.4038101,43.4649868 45.4244198,43.4239736 C45.446266,43.3817238 45.4897524,43.3046436 45.555085,43.1912905 C45.6193872,43.0777312 45.6768882,42.9443867 45.7244965,42.7945544 C45.7710743,42.6420429 45.7846767,42.4792266 45.7628305,42.3034262 C45.7424269,42.1290684 45.693582,41.9495582 45.6160896,41.7688115 C45.5398339,41.5895074 45.5076828,41.4573995 45.5210791,41.3766096 C45.5334449,41.2945831 45.5668326,41.2317236 45.6179445,41.1843214 C45.6692626,41.1381558 45.7275879,41.1123937 45.7937449,41.1086839 C45.8603142,41.1041498 45.9064798,41.1163095 45.9338907,41.1457813 L46.1474068,41.38609 L47.2217886,42.5828932 L45.6948186,43.9521993 L45.3815517,43.6034838 L45.3815517,43.6034838 Z"></path>
            <path id="Fill-13" d="M44.083555,36.6819342 L43.524621,36.0844601 L44.5924076,34.5352317 L49.2967695,36.4100928 C49.8769316,36.6407149 50.251203,36.7658156 50.4191718,36.7870435 C50.5869345,36.8080654 50.709562,36.7818911 50.7843751,36.7099634 C50.858982,36.6376235 50.9337951,36.593931 51.0106692,36.5805347 C51.0869249,36.5659018 51.1524636,36.576825 51.2048122,36.6126858 C51.2767399,36.6619429 51.31528,36.7408779 51.3231117,36.8484603 C51.3301189,36.9548062 51.2992045,37.058885 51.2293377,37.1588419 L49.963286,38.9959873 C49.8468414,39.1639561 49.7320456,39.2742178 49.6141583,39.3265663 C49.496065,39.379327 49.3961081,39.3780905 49.3177914,39.3228566 C49.2435966,39.2733934 49.2056748,39.208679 49.1980492,39.1287135 C49.1937212,39.0497785 49.1949578,38.9613631 49.2038199,38.8612001 C49.2116516,38.7630981 49.1916602,38.6971472 49.1436397,38.6652022 C49.1242666,38.6509815 49.0807802,38.6357304 49.0088525,38.6151207 C48.939604,38.5959537 48.8114119,38.5574137 48.6294286,38.504859 C48.4499184,38.4498312 48.2910179,38.4022229 48.15891,38.3599731 L47.4177865,39.4325 L47.0602088,38.9720801 L47.6455232,38.1227558 L44.083555,36.6819342 Z M47.1591352,40.5060574 L44.4390717,37.2241745 L45.2999374,37.560112 L47.284648,39.9318721 C47.3236003,39.9868999 47.3691477,40.0406912 47.4198474,40.0959251 C47.4705472,40.1509529 47.5270177,40.2010343 47.5886406,40.2432842 C47.7256948,40.3380886 47.8718174,40.3906433 48.0270081,40.4021847 C48.1807562,40.4149627 48.3244056,40.3791018 48.4558952,40.2946022 C48.5863544,40.2113392 48.6908454,40.1958819 48.7673072,40.2472 C48.8590203,40.3086168 48.8788055,40.3778653 48.8293423,40.4483503 L47.8359565,41.8918512 C47.7667081,41.9905715 47.683445,42.008708 47.5892589,41.9419327 C47.4693106,41.8599062 47.421084,41.6970898 47.4462278,41.4495678 C47.4717838,41.2010152 47.4647765,41.0252148 47.4268547,40.9176324 C47.3870781,40.8092255 47.2980443,40.6727896 47.1591352,40.5060574 L47.1591352,40.5060574 Z"></path>
            <path id="Fill-14" d="M53.036393,32.7840285 L53.0522625,32.6510962 C53.0485527,32.6282195 53.0242333,32.5923586 52.9819835,32.5435137 C52.9401459,32.4961115 52.8948046,32.4641665 52.8459597,32.4474727 C52.7684674,32.4217106 52.6998372,32.4326338 52.6433667,32.4769445 C52.5864841,32.5216675 52.5172356,32.6088464 52.4343847,32.7370385 C52.35174,32.8654367 52.2748659,32.9177852 52.2037626,32.8949085 L46.3192914,30.948738 L45.5210791,33.3666637 L45.503767,33.4985656 C45.5103621,33.5191752 45.5334449,33.5556543 45.5744581,33.6088273 C45.6129982,33.6613819 45.6583395,33.6974488 45.7078027,33.7127 C45.7846767,33.7384621 45.8533069,33.7281572 45.908953,33.6832282 C45.9678966,33.6385052 46.0383817,33.5511202 46.1206142,33.4231342 C46.2014041,33.2949421 46.2782781,33.2421813 46.3499998,33.2665008 L51.5151937,34.9742175 C51.5871215,34.9973003 51.6172116,35.0857158 51.6062884,35.2369907 C51.5953653,35.3897083 51.601136,35.5012066 51.6196847,35.5716917 C51.6390578,35.6421767 51.6870783,35.6901972 51.7639524,35.7159593 C51.803729,35.7287373 51.8562837,35.7293556 51.9242956,35.7165776 C51.9921014,35.7062728 52.0372365,35.6883423 52.0555791,35.6652595 L52.123591,35.5486088 L53.036393,32.7840285 Z M49.7512126,31.5589901 C49.7460602,31.4806734 49.743587,31.3603129 49.7423504,31.1974966 C49.7275115,31.0800215 49.6743386,31.004384 49.5807707,30.9730574 L47.3576062,30.2383228 C47.2646567,30.2090571 47.1667608,30.2488338 47.0635063,30.3609503 C47.0064176,30.4409158 46.9499471,30.5192326 46.8930644,30.5981676 L46.6096815,30.505218 C46.5931938,30.2673825 46.6218412,30.0359359 46.6950055,29.8102601 C46.8065038,29.4757653 46.9985859,29.1975348 47.2731066,28.9757748 C47.5474212,28.7552514 47.8095762,28.6322117 48.0589531,28.6039765 C48.3089483,28.5763595 48.4993816,28.5699706 48.628192,28.581512 C48.7588573,28.5949082 48.9025066,28.6270593 49.0614072,28.6794079 C49.2159796,28.7303137 49.3563314,28.7987378 49.4820504,28.8871533 C49.6081815,28.9743322 49.7320456,29.1192181 49.8484902,29.3218111 C49.9680263,29.5256407 50.0512893,29.680007 50.0978671,29.7871773 C50.1448572,29.8943476 50.1697949,30.0437676 50.1718558,30.2397655 C50.3645562,29.9693667 50.592293,29.7923297 50.8550662,29.707624 C51.1172211,29.624361 51.3395994,29.6076671 51.5254986,29.6556876 C51.7107794,29.7051508 51.8993579,29.7525531 52.0920582,29.7935663 C52.2851708,29.8358161 52.4319116,29.865494 52.5306319,29.8788903 C52.6293522,29.8935232 52.6998372,29.8858976 52.7472394,29.8551892 C52.7946417,29.8257174 52.8255562,29.7871773 52.840189,29.7436909 C52.8548219,29.6999984 52.8727523,29.6321926 52.8915071,29.5423345 C52.9108802,29.4871006 52.9473593,29.4462935 53.0011505,29.4192948 C53.057621,29.3910596 53.1190378,29.389823 53.1901411,29.4129058 C53.2402226,29.4295996 53.2870065,29.4530946 53.3319356,29.4821543 C53.3778951,29.5128627 53.4549753,29.5693332 53.5640004,29.6513596 C53.6742621,29.7333861 53.7484569,29.8673489 53.786997,30.0544846 C53.8267736,30.2410021 53.7793714,30.5344837 53.6472635,30.9365783 C53.5677102,31.1793601 53.4795008,31.3667019 53.3869634,31.5000465 C53.2927772,31.6346276 53.172829,31.74221 53.0273248,31.8250609 C52.8812023,31.9089422 52.7626967,31.9499554 52.6730446,31.951192 C52.5852475,31.9526347 52.4696273,31.9281092 52.3255657,31.880707 L50.8371358,31.3904031 C50.6652512,31.3147656 50.5183043,31.3205363 50.3903183,31.4077152 C50.263981,31.494894 50.1844277,31.5890802 50.1498035,31.6917163 L49.7512126,31.5589901 L49.7512126,31.5589901 Z"></path>
            <path id="Fill-15" d="M9.38203354,38.5273235 L9.51723293,38.4452971 C9.53846089,38.4228325 9.55762788,38.3735755 9.5743217,38.2973197 C9.59101553,38.2214761 9.58771798,38.1536703 9.56649003,38.0947267 C9.53330847,38.0042503 9.47436483,37.9486042 9.38965911,37.9267579 C9.30433511,37.9063544 9.17160887,37.9063544 8.98962554,37.9234604 C8.8082605,37.9407725 8.70253292,37.9073849 8.67038185,37.8228852 L6.13333223,30.850636 L3.27064992,31.8934849 L3.13462614,31.9757175 C3.11937499,31.9961211 3.10329945,32.044966 3.08268978,32.1224583 C3.0635228,32.1993324 3.0635228,32.2673442 3.08598733,32.3262879 C3.11937499,32.4177948 3.17770033,32.4730287 3.26302434,32.4940505 C3.34752396,32.5146602 3.48148678,32.5165151 3.66285182,32.4979664 C3.84359857,32.4794177 3.94994444,32.5140419 3.98085893,32.597305 L6.20896969,38.7183751 C6.24050248,38.8036991 6.18011616,38.8978853 6.02884123,38.999697 C5.87818459,39.1029515 5.77699114,39.189512 5.72567308,39.2599971 C5.67373672,39.3304821 5.66425628,39.411272 5.69805613,39.5048399 C5.71474995,39.5483263 5.75246564,39.5996444 5.81347024,39.6561148 C5.87447485,39.7113487 5.92311366,39.7381413 5.96021105,39.7381413 L6.11849327,39.7150585 L9.38203354,38.5273235 Z M8.25241786,34.8781765 C8.35258083,34.7895549 8.45501086,34.6953687 8.55888356,34.5947936 C8.66151969,34.4948367 8.69490735,34.3922006 8.65698556,34.2883279 L7.56920751,31.2980718 C7.52881257,31.1871918 7.4410154,31.1294847 7.305816,31.1230957 C7.17041051,31.1167067 7.03150138,31.1179433 6.88661544,31.1255689 L6.76543062,30.7949899 C6.94741395,30.6461881 7.15639594,30.5295374 7.39093391,30.4448317 C7.86021596,30.2743898 8.34103942,30.2576959 8.83402258,30.3961929 C9.32679964,30.5344837 9.71920764,30.752534 10.0133075,31.0526107 C10.306377,31.351863 10.5093822,31.6546189 10.6217048,31.9614968 C10.6921899,32.1564643 10.7338214,32.3487524 10.7465994,32.5358882 C10.7599957,32.7242605 10.6998154,32.9870337 10.5652343,33.3281236 C10.4306532,33.6690075 10.2319761,34.0088608 9.96796628,34.3485081 C9.70375039,34.6883615 9.38059086,34.9280519 8.99601454,35.0677854 C8.80764221,35.1364156 8.59804193,35.1794897 8.36783198,35.1972141 L8.25241786,34.8781765 L8.25241786,34.8781765 Z"></path>
            <path id="Fill-16" d="M16.2580357,36.0242799 L16.3932351,35.9428717 C16.4171423,35.9189645 16.4381642,35.8684708 16.4573311,35.7915968 C16.4779408,35.715341 16.4767042,35.6467108 16.4554763,35.5877672 C16.4220886,35.4960542 16.3625267,35.4408203 16.277821,35.4204167 C16.1933213,35.4004253 16.0599768,35.3979522 15.8779935,35.4165009 C15.6964223,35.4344313 15.5906948,35.4012497 15.5599864,35.316544 L13.0241733,28.3500654 L10.161491,29.3916779 L10.0254672,29.4757653 C10.0114527,29.4949323 9.99352227,29.5441894 9.97435528,29.6204451 C9.95374561,29.6987618 9.9543639,29.7655372 9.97559186,29.8244808 C10.0095978,29.9159877 10.0677171,29.9718399 10.1536594,29.9936861 C10.2383651,30.0134714 10.3710913,30.014708 10.5530746,29.9967776 C10.7338214,29.9782289 10.8407855,30.0116165 10.8717,30.0961162 L13.0973376,36.2126522 C13.1286643,36.2971518 13.0688963,36.3909258 12.9178275,36.4933558 C12.7677891,36.5972285 12.665153,36.6831708 12.6138349,36.7536559 C12.5614864,36.8241409 12.5524181,36.9049308 12.5864241,36.9960255 C12.6037362,37.0421912 12.6408336,37.0920666 12.7016321,37.1470944 C12.7626367,37.2035648 12.8112755,37.2318001 12.848579,37.2318001 L13.0050063,37.2087173 L16.2580357,36.0242799 Z M14.9734353,32.0416684 C15.0484545,31.9769541 15.1644869,31.8831801 15.3215326,31.7595221 C15.4266418,31.6550311 15.4587929,31.5474487 15.4175736,31.4365687 L14.4548962,28.7911122 C14.4157378,28.6808505 14.3042396,28.6173728 14.1228745,28.6039765 C14.0062238,28.6083045 13.8908097,28.6134569 13.7753956,28.6188155 L13.6542108,28.287206 C13.863811,28.0949178 14.1030892,27.9500319 14.3701905,27.8527543 C14.7671326,27.7078683 15.1714942,27.6833428 15.5818326,27.7771168 C15.9919649,27.8719212 16.303583,28.0256693 16.5144199,28.2398037 C16.7252568,28.4551747 16.8726159,28.6282959 16.9573216,28.7604038 C17.0420273,28.8910691 17.1189013,29.0514123 17.1881498,29.2397846 C17.2543068,29.4230045 17.2932591,29.605194 17.3048005,29.7898566 C17.3157236,29.974313 17.269558,30.1966913 17.165067,30.4596706 C17.060576,30.7230621 16.9754581,30.9161747 16.9086828,31.0398327 C16.843144,31.1641089 16.7188678,31.2993083 16.5350296,31.4474918 C16.9350631,31.4268822 17.271619,31.5095269 17.5457275,31.6935712 C17.8194238,31.8782338 18.0028498,32.0756744 18.0945628,32.2858929 C18.1854515,32.4954932 18.2829352,32.7063301 18.3861896,32.9204645 C18.489444,33.1331562 18.5714705,33.2916445 18.6310324,33.3946929 C18.6905943,33.4985656 18.7522172,33.561425 18.8150767,33.5832713 C18.8791727,33.6038809 18.9368798,33.6049114 18.9894344,33.5857444 C19.0411647,33.5665775 19.1161839,33.5294801 19.2149042,33.4748645 C19.2804429,33.4511633 19.3463938,33.4550792 19.4123447,33.4851693 C19.4791201,33.5173204 19.5292015,33.574203 19.5599099,33.6601453 C19.5809318,33.7192951 19.5945342,33.7800936 19.5990683,33.8448079 C19.6046329,33.9095223 19.609167,34.0243181 19.6137012,34.1889893 C19.6188536,34.3538666 19.5471319,34.523072 19.400185,34.6986663 C19.2540625,34.8742606 18.9432688,35.0486184 18.4675977,35.2217396 C18.1811234,35.3256123 17.9393721,35.3831132 17.7446107,35.3958912 C17.5496433,35.4076387 17.35921,35.3754877 17.1733109,35.2998502 C16.9861751,35.2229761 16.8598379,35.1434228 16.7926504,35.0613964 C16.7266994,34.9781333 16.6613668,34.853651 16.5997439,34.6838273 L15.9600199,32.9249986 C15.9035495,32.7096276 15.7856622,32.5756648 15.6055337,32.5229041 C15.424787,32.4705555 15.2714511,32.4678763 15.1459382,32.5140419 L14.9734353,32.0416684 L14.9734353,32.0416684 Z"></path>
            <path id="Fill-17" d="M23.5320104,32.761564 C23.6455697,32.5575283 23.733573,32.3934754 23.7962263,32.2673442 C23.8590858,32.141007 23.8648565,32.0064259 23.8116836,31.8633948 L21.873963,26.5386821 C21.8026536,26.3424781 21.669309,26.214286 21.4739294,26.1526631 C21.349447,26.1308168 21.2257891,26.1064974 21.0996579,26.0788805 L20.8861418,25.4910929 C21.735466,25.3750605 22.4879249,25.4333858 23.1468158,25.6654506 C23.8059129,25.8975154 24.2685998,26.214286 24.5352889,26.6141135 C24.8044511,27.0155897 25.0033343,27.348848 25.1366789,27.6143004 C25.2706417,27.8783102 25.3833766,28.1373737 25.4763261,28.391697 C25.5987475,28.7303137 25.6904605,29.0590379 25.7506408,29.3756023 C25.8110271,29.6936094 25.8161795,30.0961162 25.7648614,30.5833286 C25.7135434,31.0699228 25.5212552,31.5563108 25.1865543,32.0435233 C24.8520594,32.5307358 24.3660835,32.9524095 23.731512,33.3089567 L23.5320104,32.761564 Z M23.2469788,33.4851693 C22.5277015,33.6205748 21.886741,33.6100638 21.3212118,33.4550792 C20.7560948,33.2986518 20.2944384,33.0498932 19.9368607,32.7063301 C19.5803135,32.3640036 19.3220744,32.0517672 19.1637922,31.7692087 C19.0061283,31.4876807 18.8655704,31.1762686 18.7419124,30.8372397 C18.5444718,30.296236 18.4123639,29.7127764 18.3424971,29.0885097 C18.274073,28.4628003 18.4177224,27.850075 18.7746817,27.2476545 C19.1304045,26.6450279 19.6714082,26.1155657 20.3983111,25.6592677 L20.6124455,26.246231 C20.5052752,26.3816364 20.4020208,26.5155993 20.3020639,26.6462645 C20.242502,26.7872346 20.2418837,26.9385096 20.3014456,27.1007076 L22.2418455,32.4326338 C22.2917209,32.5692758 22.3976545,32.6729424 22.5598526,32.7434275 C22.7218446,32.812676 22.8846609,32.8769781 23.0456224,32.9357156 L23.2469788,33.4851693 L23.2469788,33.4851693 Z"></path>
            <path id="Fill-18" d="M29.0788954,24.1836158 C29.0005787,23.9682448 28.864761,23.8182065 28.6710301,23.734119 C28.4762688,23.6644584 28.2813014,23.5956221 28.0865401,23.5259614 L27.8730239,22.9387921 C28.335917,22.7708233 28.7979857,22.6906517 29.2590238,22.7003383 C29.7192376,22.7092004 30.1122639,22.8161646 30.4358356,23.0187576 C30.7620866,23.222175 31.0184708,23.4130205 31.2095224,23.5900575 C31.3993374,23.7695676 31.5914195,23.983496 31.7870052,24.2334912 C31.9799117,24.4834864 32.1454073,24.7258561 32.2832859,24.960394 C32.4203402,25.194932 32.5273043,25.4206078 32.6056211,25.6349483 C32.6478709,25.7526295 32.6927999,25.8905082 32.7402022,26.0502331 C32.7876044,26.2103701 32.8504639,26.4449081 32.9234221,26.7540531 C32.9996778,27.0615493 33.029974,27.4102648 33.0120436,27.8014362 C32.9965864,28.1911649 32.8780808,28.5885193 32.660855,28.9924687 C32.4440413,29.396212 32.1524145,29.7603847 31.7915393,30.0833382 C31.4286032,30.4077343 31.0722621,30.633204 30.7198368,30.7616022 L30.506939,30.1744329 C30.5145646,30.1565025 30.5959727,30.0243945 30.7486903,29.7768725 C30.9018201,29.5289382 30.9337651,29.2814161 30.8428765,29.0334819 L29.0788954,24.1836158 Z M25.1346179,24.8989772 C25.1039095,24.8142715 24.9981819,24.7808839 24.8168169,24.7988143 C24.6354518,24.8169508 24.5021073,24.8155081 24.416165,24.7951045 C24.3314593,24.7744949 24.2725157,24.7188488 24.239128,24.6271358 C24.2187244,24.5688104 24.2160452,24.5001802 24.2366549,24.4233062 C24.2558218,24.3458139 24.2737522,24.2975872 24.2885912,24.2765654 L24.4244089,24.1937145 L27.2864729,23.1521021 L30.1345224,30.9749122 L27.27184,32.0159063 L27.1147944,32.0410501 C27.0768726,32.0398136 27.0274094,32.0113722 26.9672292,31.9563444 C26.9064307,31.9006983 26.8672723,31.8499986 26.8511968,31.8044512 C26.8186335,31.7127382 26.8277018,31.6321544 26.8788138,31.5614633 C26.9307501,31.4909782 27.0327679,31.405242 27.1826002,31.3026059 C27.3332568,31.1999698 27.3930249,31.1051653 27.3621104,31.0204596 L25.1346179,24.8989772 L25.1346179,24.8989772 Z"></path>
            <path id="Fill-19" d="M38.7707959,24.6782477 L37.2471234,20.4913945 C37.2258955,20.4324509 37.1156338,20.4124595 36.9181932,20.428535 C36.7170429,20.4452289 36.5940032,20.4394582 36.5414486,20.4106046 C36.4901305,20.3811328 36.4431405,20.3106478 36.4041882,20.1991495 C36.3771895,20.1284583 36.363175,20.0682781 36.3604957,20.0221125 C36.3580225,19.9747102 36.3592591,19.927308 36.3658542,19.8817607 L36.4235613,19.8273511 L38.0548162,19.2335867 L38.1426133,19.2350294 C38.1617803,19.2496623 38.1900156,19.2785158 38.2240215,19.32159 C38.2586457,19.3644581 38.2895602,19.4246383 38.3182077,19.502955 C38.3534502,19.601057 38.3619002,19.679786 38.3431454,19.7426454 C38.3258333,19.8046805 38.2413336,19.9042252 38.0855246,20.0418977 C37.9297155,20.1797764 37.8553146,20.2554139 37.8594366,20.2681919 L39.6182653,25.0982727 C39.7118331,25.359191 39.7713951,25.6584433 39.7938596,25.9976784 C39.8169424,26.3360891 39.7002917,26.7097423 39.4399917,27.1180197 C39.1811343,27.5256789 38.8309761,27.8090618 38.3926086,27.9685806 L38.2170142,27.4846657 C38.4284694,27.3115445 38.587576,27.1423391 38.6914487,26.9791106 C38.7963519,26.8154699 38.879821,26.6167927 38.9424744,26.382873 C39.0080131,26.1489533 39.0220277,25.8835009 38.98864,25.5848668 C38.9546341,25.2874694 38.8822942,24.9855378 38.7707959,24.6782477 Z M37.1541739,27.6204833 C37.24836,27.6668551 37.3419279,27.6584051 37.4330226,27.5957517 L37.664263,28.234033 L36.7990694,28.5501853 C36.604308,28.6192276 36.4427283,28.6641567 36.3124752,28.6820871 C36.1838709,28.698781 36.0080705,28.6975444 35.7863105,28.6744615 C35.5645505,28.6513787 35.3887501,28.6192276 35.2568482,28.5796571 C35.1235037,28.5392622 34.9862433,28.4673344 34.8407391,28.3642861 C34.6979141,28.2622683 34.5798208,28.1340762 34.4862529,27.9788854 C34.3939216,27.824519 34.3133378,27.6565503 34.2465625,27.4731242 C34.2261589,27.4147989 34.2055493,27.3577101 34.1849396,27.3026823 C34.1657726,27.2468301 34.1486666,27.1948938 34.1395983,27.1474916 L32.3640758,22.2681536 C32.3337796,22.1834479 32.2261971,22.1490298 32.0448321,22.1681968 C31.863261,22.1861272 31.7325957,22.1861272 31.6518058,22.1675785 C31.5724586,22.1490298 31.5133089,22.0931776 31.4811578,22.002289 C31.4512738,21.9182015 31.4442665,21.8438007 31.4621969,21.7823839 C31.4799212,21.720761 31.4990882,21.6745953 31.5164003,21.6451235 L31.6536607,21.563097 L34.9233838,20.3726829 L35.0804295,20.3489817 C35.1197939,20.3502183 35.1684328,20.3778353 35.2273764,20.4336875 C35.2896176,20.4895396 35.3273333,20.5400333 35.3452637,20.5849624 C35.378033,20.6760571 35.3671099,20.7574653 35.3157918,20.8271259 C35.2632372,20.8990537 35.1599828,20.9862325 35.008914,21.0886626 C34.855372,21.1933597 34.7951917,21.2875458 34.8261062,21.3714272 L37.0035172,27.3546187 C37.0296915,27.425722 37.0505073,27.4828108 37.0657584,27.5256789 C37.0810096,27.5668982 37.1106875,27.5988432 37.1541739,27.6204833 L37.1541739,27.6204833 Z"></path>
            <path id="Fill-20" d="M45.1103285,25.5283964 L44.9064989,24.966783 C45.1435101,24.8437433 45.3269361,24.7155512 45.4565708,24.5834433 C45.5866178,24.4515414 45.7078027,24.2674971 45.8230107,24.0335774 C45.9386309,23.7996578 46.0185964,23.5945916 46.0622889,23.4196156 C46.1063935,23.2444334 46.1117521,23.0612135 46.0787766,22.8695436 C46.0462133,22.678492 46.124324,22.5476207 46.3153755,22.4785783 C46.3724643,22.4573504 46.444392,22.4552894 46.523121,22.4732198 C46.606384,22.4925929 46.6577021,22.5758559 46.6807849,22.7207419 C46.7448809,23.0375124 46.749209,23.330994 46.6950055,23.6007745 C46.6424509,23.8719977 46.5249758,24.1539379 46.3460839,24.4476256 C46.1680164,24.7413133 45.9897429,24.9682257 45.8116754,25.1295994 C45.6319591,25.2899426 45.3988638,25.4232871 45.1103285,25.5283964 Z M42.4861,18.3143957 L42.2653705,17.7119753 C42.4283929,17.6530316 42.6085214,17.6035684 42.8053437,17.5658527 C43.0027843,17.5273127 43.1744628,17.5394724 43.3230584,17.6029501 C43.4718602,17.6676645 43.6146852,17.6746718 43.7513273,17.6247964 C43.9232119,17.5619369 44.0072993,17.4762007 44.0128639,17.3644963 C44.0149249,17.2517615 44.0489308,17.163346 44.1122025,17.0940975 C44.1771229,17.0273222 44.2552335,16.9760042 44.3461222,16.9440592 C44.5019312,16.8865582 44.6091015,16.9376702 44.6674268,17.0953341 C44.7956189,17.4504386 44.925872,17.8055431 45.0563312,18.1643574 C45.1872025,18.5235838 45.3213715,18.8823981 45.4602806,19.2453342 C45.5210791,19.4081506 45.5577643,19.5118172 45.5717789,19.5536548 C45.5880605,19.5952863 45.6012507,19.6445434 45.6142348,19.6983347 C45.584763,19.7605758 45.5460168,19.8246719 45.4961414,19.8914472 C45.446266,19.9567798 45.375781,20.0066552 45.2846863,20.0400429 C45.1616466,20.0849719 45.0386069,20.0528209 44.9168038,19.9413226 C44.5647907,19.464415 44.2463714,19.0874642 43.9617519,18.811913 C43.6771325,18.5349191 43.4246641,18.3735455 43.202698,18.3247006 C42.9827929,18.2754435 42.8348155,18.2554521 42.7604146,18.2645203 C42.6860137,18.2721459 42.5936824,18.2900763 42.4861,18.3143957 Z M44.4986337,25.7507746 C43.7801808,25.885974 43.1373654,25.8771119 42.5720423,25.7200662 C42.0067192,25.5642572 41.5450627,25.3154985 41.1881034,24.973172 C40.831144,24.6304333 40.5735232,24.3169603 40.4144166,24.034814 C40.2565466,23.7528738 40.1176374,23.4424923 39.9925368,23.102845 C39.7963328,22.5618413 39.6636065,21.9783818 39.5945642,21.354115 C39.5253157,20.7298483 39.6702016,20.1162986 40.0244817,19.5130538 C40.3822655,18.9112516 40.9226509,18.3824076 41.6487294,17.924667 L41.8628638,18.5120424 C41.756724,18.6466235 41.6540879,18.7797619 41.5539249,18.9124882 C41.4949813,19.0522217 41.4949813,19.2041149 41.5539249,19.3656947 L43.494943,24.6970025 C43.5448184,24.8340568 43.6507521,24.9373112 43.8129502,25.0080024 C43.9743238,25.077663 44.1361097,25.1425835 44.2976895,25.2015271 L44.4986337,25.7507746 L44.4986337,25.7507746 Z"></path>
            <path id="Fill-21" d="M46.9499471,16.0065256 L49.4884394,22.9798053 C49.5191478,23.0636867 49.4589676,23.1578728 49.3089292,23.2598907 C49.1588909,23.3623207 49.0576974,23.4497057 49.0057611,23.5193663 C48.9538247,23.5900575 48.9449626,23.6720839 48.9781441,23.7631787 C48.9954562,23.8079016 49.0337902,23.8592197 49.0935582,23.9142475 C49.154975,23.9688631 49.2038199,23.9977166 49.2409173,23.9983349 L49.3994056,23.9752521 L52.6627398,22.7875172 L52.7973209,22.704048 C52.8195794,22.6822018 52.8383341,22.6323264 52.8548219,22.5566889 C52.8727523,22.4804332 52.8692486,22.4130396 52.8484329,22.3540959 C52.814633,22.2630012 52.7550711,22.2079734 52.6697471,22.1873638 C52.5852475,22.1657236 52.4523151,22.1651053 52.2703318,22.1824174 C52.0883485,22.2003478 51.9820026,22.1675785 51.9512942,22.0822545 L49.4128019,15.1104174 L46.9499471,16.0065256 Z M50.1537193,15.4385232 C50.1582535,15.4517134 50.193496,15.474178 50.2613018,15.5048863 C50.3293137,15.5360069 50.4094853,15.5572349 50.5063507,15.5698068 C50.6036283,15.5836153 50.7147144,15.6219492 50.8389907,15.6879002 C50.9614121,15.7530267 51.080742,15.8519531 51.1949196,15.9828245 C51.3095093,16.1151385 51.438938,16.3047474 51.5844422,16.5508268 C51.7293281,16.7962879 51.850513,16.9011911 51.948615,16.8661546 C51.993544,16.8494608 52.025489,16.8096842 52.0434194,16.747443 C52.0634108,16.6860262 52.0646474,16.6390362 52.0537242,16.6064729 L51.9203797,16.2443611 L51.264168,14.4373058 L49.9620495,14.9107097 L50.1537193,15.4385232 Z M46.659763,16.7167346 C46.6640911,16.7301309 46.6513131,16.7699075 46.6203986,16.8373011 C46.5884536,16.9030459 46.5398148,16.9729127 46.4736578,17.0452526 C46.4089434,17.1165621 46.3487632,17.2171372 46.2962086,17.3471842 C46.2436539,17.4772312 46.2154187,17.6299488 46.2129455,17.8043065 C46.2102663,17.9786643 46.2269601,18.1773415 46.2634392,18.3991014 C46.2988878,18.6223041 46.3089865,18.7708998 46.2910561,18.8426214 C46.273744,18.9157857 46.2422112,18.9598904 46.1962517,18.9765842 C46.1641006,18.9887439 46.1206142,18.9811184 46.066823,18.9516465 C46.0107647,18.9240296 45.9744917,18.8850773 45.955943,18.8325227 L45.8238351,18.4708231 L45.166799,16.6635617 L46.4678871,16.1895394 L46.659763,16.7167346 L46.659763,16.7167346 Z"></path>
            <path id="Fill-22" d="M49.9902847,7.98153466 L50.4313315,7.98112247 L50.4313315,7.48175031 L50.6652512,7.48175031 C50.8396089,7.48154421 50.8536235,7.62416309 50.8651649,7.76101126 C50.8715539,7.83499995 50.8787673,7.90940084 50.9012318,7.98153466 L51.3420726,7.98153466 C51.3037386,7.91517154 51.3010593,7.74452352 51.2946703,7.67424457 C51.2788009,7.49514659 51.2037817,7.36324474 51.0844518,7.31646081 C51.2301621,7.26287568 51.2992045,7.10686053 51.2992045,6.95805875 C51.2992045,6.68704167 51.0819786,6.54854473 50.8307468,6.54854473 L49.9902847,6.54854473 L49.9902847,7.98153466 Z M50.4313315,6.88984076 L50.6378403,6.88984076 C50.8064274,6.88984076 50.8569211,6.94198321 50.8569211,7.03204745 C50.8569211,7.16023955 50.7448045,7.17404803 50.662778,7.17404803 L50.4313315,7.17404803 L50.4313315,6.88984076 L50.4313315,6.88984076 Z"></path>
            <path id="Fill-23" d="M49.5261551,7.29420237 C49.5261551,6.67096613 50.0319162,6.16355621 50.6551525,6.16417394 C51.2788009,6.16417394 51.7857986,6.67096613 51.7857986,7.29420237 C51.7857986,7.9174386 51.2788009,8.42464243 50.6551525,8.42464243 C50.0319162,8.42464243 49.5261551,7.91702641 49.5261551,7.29420237 Z M49.0820168,7.29420237 C49.0820168,8.16166312 49.78831,8.86651362 50.6551525,8.86733801 C51.5228193,8.86651362 52.2287003,8.16166312 52.2287003,7.29420237 C52.2287003,6.42715381 51.5228193,5.72127282 50.6551525,5.72127282 C49.78831,5.72127282 49.0820168,6.42715381 49.0820168,7.29420237 L49.0820168,7.29420237 Z"></path>
            <path id="Fill-24" d="M14.300942,21.2875458 L15.3081363,21.7747583 L14.9291246,23.9072402 L8.06404554,24.5199655 C7.20132501,24.5962213 6.66671033,24.6642332 6.45772834,24.7219402 C6.24874634,24.7808839 6.12055424,24.870742 6.07109104,24.9925451 C6.02121566,25.1129055 5.95382205,25.2054429 5.86787976,25.2656231 C5.78152526,25.3245668 5.69620126,25.3476496 5.61149554,25.3328107 C5.49608142,25.3124071 5.40375013,25.2386245 5.33594433,25.1110507 C5.26731415,24.9847134 5.24752887,24.8400336 5.27576411,24.6782477 L5.80007396,21.7265317 C5.84747619,21.4573695 5.92826607,21.258074 6.04347409,21.1272026 C6.15826992,20.9971557 6.28007303,20.9425401 6.41156269,20.9662412 C6.52821339,20.9874691 6.61415568,21.0478554 6.67165665,21.1496672 C6.7295698,21.2514789 6.77697203,21.3559699 6.81283284,21.4616975 C6.85075463,21.5670129 6.91917871,21.6296663 7.01913558,21.6475967 C7.06591952,21.6554283 7.10507788,21.6581076 7.13722895,21.6554283 L14.300942,21.2875458 Z M8.24808983,18.2748252 L13.3953534,20.7669457 L12.1715515,20.8310418 L8.42430246,19.0299633 C8.34351258,18.9926598 8.2563337,18.954738 8.16338412,18.9197016 C8.07043453,18.8823981 7.9743935,18.8568421 7.87443663,18.8376751 C7.65123397,18.7985167 7.4410154,18.8143862 7.24542969,18.8875505 C7.05005007,18.9592721 6.89485931,19.0837545 6.77944519,19.2620281 C6.66403107,19.438859 6.54614379,19.5169696 6.42186752,19.4953295 C6.27553891,19.4689491 6.21288553,19.3990823 6.2332891,19.2830499 L6.64671895,16.9562189 C6.67557248,16.7950513 6.76543062,16.7272455 6.92041529,16.7546564 C7.11208516,16.7896928 7.26274181,16.9644627 7.36991206,17.2797906 C7.47687621,17.5965611 7.58466475,17.809459 7.69162891,17.9195146 C7.79941745,18.0306007 7.98469833,18.1478696 8.24808983,18.2748252 L8.24808983,18.2748252 Z"></path>
            <path id="Fill-25" d="M17.0074031,15.964894 C16.9970982,15.6992355 16.9843202,15.4869559 16.9694813,15.3276432 C16.9554667,15.1687427 16.8804475,15.0364287 16.7444238,14.9309072 L11.7125743,11.0082699 C11.5281178,10.8640022 11.3222273,10.822989 11.0973759,10.8841997 C10.9652679,10.9394336 10.8294502,10.9921944 10.6921899,11.042688 L10.1369655,10.6113278 C10.8768525,9.99241956 11.6305479,9.59609572 12.39867,9.42379893 C13.1651434,9.25129605 13.7972418,9.27643984 14.2908433,9.4994364 C14.7856813,9.72181467 15.1766466,9.91966745 15.4612661,10.0925825 C15.7471221,10.2657037 16.0105136,10.4460383 16.250204,10.6323496 C16.5715087,10.8823448 16.8534489,11.1403778 17.1022075,11.4076852 C17.3482869,11.673962 17.5933358,12.0550347 17.8354994,12.5496667 C18.077869,13.045123 18.1854515,13.625285 18.1574223,14.2899467 C18.1291871,14.9546083 17.9175258,15.6468869 17.5240873,16.3680191 L17.0074031,15.964894 Z M17.1687767,16.8234926 C16.5651197,17.3824267 15.947242,17.7566982 15.3132887,17.9477498 C14.680572,18.1363282 14.0913417,18.1746622 13.5451856,18.0613091 C13.0004722,17.9477498 12.5676693,17.8043065 12.2484256,17.6285061 C11.9287697,17.4543545 11.6087016,17.2420749 11.2882213,16.992698 C10.7766895,16.5943132 10.3024611,16.1171995 9.8626509,15.5621812 C9.42428335,15.0075752 9.1942795,14.335494 9.17490642,13.5475866 C9.15512114,12.7598852 9.35503488,11.9309645 9.77609031,11.0614428 L10.3325512,11.4950702 C10.3119416,11.68674 10.2942173,11.8747002 10.2781417,12.0605993 C10.3049343,12.2293925 10.3954107,12.3738662 10.5491588,12.4942267 L15.5849241,16.4187188 C15.7137345,16.5199123 15.8779935,16.555567 16.0739914,16.525683 C16.2701954,16.4960051 16.4639262,16.4607626 16.6529168,16.4209859 L17.1687767,16.8234926 L17.1687767,16.8234926 Z"></path>
            <path id="Fill-26" d="M16.8598379,4.79857817 L20.3836782,12.371187 C20.4265463,12.4624878 20.3676027,12.5739861 20.2087022,12.704033 C20.0495955,12.8338739 19.9444863,12.9412503 19.8925499,13.0251316 C19.8418501,13.1098373 19.8387587,13.200932 19.8855426,13.3000645 C19.9084193,13.3495277 19.956646,13.4027006 20.0304286,13.4591711 C20.1027685,13.5156416 20.1610938,13.5426403 20.2035497,13.539961 L20.3770831,13.4979173 L23.9225636,11.8477015 L24.0660068,11.74218 C24.0884714,11.7149753 24.1045469,11.6580926 24.11547,11.5705015 C24.1263932,11.4835287 24.1179432,11.4087157 24.0878531,11.3446196 C24.0425118,11.2454871 23.9712024,11.1888105 23.8731004,11.1731472 C23.7764411,11.1578961 23.627021,11.1690253 23.4250463,11.2063288 C23.2251326,11.2448688 23.1033294,11.2166336 23.059843,11.1253328 L19.5368271,3.55293009 L16.8598379,4.79857817 Z M20.3956318,3.84909096 C20.4034635,3.86454821 20.4457133,3.88515787 20.5225873,3.9140114 C20.6009041,3.94245274 20.6944719,3.95894047 20.8041153,3.96429898 C20.9135527,3.9694514 21.0413326,4.00242686 21.1853941,4.06425585 C21.3302801,4.12587875 21.4724867,4.22562952 21.6136629,4.36206549 C21.7552513,4.49850147 21.9180677,4.69759082 22.1045851,4.95953965 C22.2917209,5.22169457 22.4368129,5.32783434 22.5431588,5.27940163 C22.5924159,5.25570052 22.6239487,5.20850439 22.6379632,5.13801934 C22.6519778,5.066916 22.6507412,5.01291868 22.6342535,4.97747006 L22.4520641,4.58444377 L21.5380255,2.62137329 L20.1303854,3.2767606 L20.3956318,3.84909096 Z M16.5933549,5.62523179 C16.5997439,5.64007075 16.5894391,5.68644249 16.5605856,5.76331654 C16.5331747,5.84122107 16.4855664,5.92386582 16.4183789,6.01063251 C16.3509853,6.09801748 16.2953392,6.21672914 16.2485552,6.36738579 C16.2034201,6.51763024 16.1875506,6.69075141 16.2017713,6.88633712 C16.2151676,7.08233503 16.2535016,7.30368281 16.316361,7.55038049 C16.3798388,7.79584159 16.4041582,7.95989451 16.3919985,8.04398194 C16.3792205,8.12703889 16.3485121,8.18041792 16.2990489,8.20350074 C16.2638064,8.21937018 16.2137249,8.21524825 16.1502471,8.18824959 C16.0855328,8.16186922 16.0408098,8.12126818 16.0150478,8.06417941 L15.8318278,7.67177141 L14.9177892,5.70787654 L16.3266659,5.05228314 L16.5933549,5.62523179 L16.5933549,5.62523179 Z"></path>
            <path id="Fill-27" d="M31.3838802,5.92984262 L31.413352,5.48570437 C31.43458,5.16687287 31.3696595,5.00220165 31.223537,4.99251511 C31.1369764,4.98653831 31.0570109,5.02878812 30.9801369,5.11720358 C30.9042933,5.20726781 30.8465862,5.37482438 30.805573,5.62214034 C30.7670329,5.87028069 30.6031861,6.04278358 30.3158874,6.14109168 L29.9082282,6.27897033 L29.8517578,7.13756892 L30.2390134,7.32697174 C30.5106487,7.46196503 30.6485274,7.65239833 30.6518249,7.89971429 C30.6551225,8.14661807 30.6940747,8.32015144 30.7711549,8.42319976 C30.8447314,8.52624807 30.918514,8.57900881 30.9877624,8.58374904 C31.0576292,8.58890145 31.1153363,8.55736867 31.1582044,8.48976897 C31.2018968,8.42175708 31.2286894,8.2980991 31.2402308,8.11900112 L31.2711453,7.67342018 L31.3838802,5.92984262 Z M30.1357589,2.79861639 C30.1332858,2.83715647 30.1518345,2.8655978 30.1876953,2.8841465 C30.2268537,2.90145862 30.2742559,2.92495363 30.3311386,2.951334 C30.3884334,2.97853876 30.4980768,3.0251166 30.6600688,3.09024314 C30.8249461,3.15598797 30.9947697,3.24914365 31.1709824,3.37032847 C31.3459584,3.490895 31.4968211,3.65371135 31.6196547,3.85692263 C31.7429005,4.0611644 31.8397659,4.29034386 31.90819,4.54507931 C31.9778507,4.80022695 32.053076,4.96531035 32.1336598,5.04032953 C32.2146557,5.11617309 32.3018346,5.15718633 32.3954025,5.16336922 C32.4889704,5.16913993 32.57347,5.14749978 32.6466343,5.09803659 C32.7210352,5.04795511 32.758957,4.99560656 32.7626667,4.94016656 L32.7902836,4.50921849 L32.9312537,2.34767695 L30.1761539,2.16713629 L30.1357589,2.79861639 Z M25.9377765,10.2593147 C25.9313875,10.3603021 25.8275148,10.4301688 25.6251279,10.4676784 C25.4231532,10.5053941 25.2797099,10.5492927 25.1941798,10.5981376 C25.1084436,10.6473947 25.0628963,10.726948 25.055889,10.8351487 C25.0519732,10.8901765 25.0692853,10.9598372 25.1072071,11.0445429 C25.1436862,11.1294547 25.1814018,11.1801545 25.2199419,11.1987032 L25.3936814,11.2448688 L28.8223051,11.4688959 L29.4333816,2.11890968 L26.0045518,1.89426434 L25.8275148,1.91755326 C25.8025771,1.93156784 25.7628005,1.97422984 25.7071544,2.04512708 C25.6519205,2.11519994 25.6212121,2.18609718 25.6172962,2.25658224 C25.6096707,2.36540126 25.6455315,2.44948869 25.7238482,2.509875 C25.8019588,2.56984913 25.9392192,2.63188421 26.1345988,2.69515588 C26.3289479,2.75842755 26.4231341,2.84086621 26.4173634,2.94226575 L25.9377765,10.2593147 Z M29.6038235,10.8874973 C29.6071211,10.8483389 29.6275246,10.8223707 29.6673013,10.8091805 C29.7083145,10.7961965 29.7569533,10.7797087 29.8185762,10.7599234 C29.8775198,10.7413747 29.992934,10.7092237 30.1642003,10.6657373 C30.3352605,10.6218387 30.5153889,10.5525902 30.7058222,10.454076 C30.8960494,10.358035 31.0673157,10.2164466 31.2144687,10.0305474 C31.3632705,9.84485437 31.4896078,9.63051386 31.5914195,9.38690764 C31.692819,9.14288922 31.7900967,8.98852283 31.8787182,8.92422068 C31.9696068,8.85971244 32.0621442,8.83044671 32.1550938,8.83683571 C32.24928,8.84260641 32.3288333,8.87578797 32.3954025,8.93431942 C32.4619717,8.99388135 32.4928862,9.05097012 32.4902069,9.10517353 L32.4613534,9.53715209 L32.319765,11.6982814 L29.5628103,11.518153 L29.6038235,10.8874973 L29.6038235,10.8874973 Z"></path>
            <path id="Fill-28" d="M41.6091588,8.89206961 C41.7655862,8.68824003 41.8265908,8.46915931 41.7913482,8.23441523 C41.7394119,8.00750284 41.6880938,7.78059044 41.6380123,7.55367804 L42.0687543,6.99391957 C42.5065036,7.33336073 42.8616081,7.72515044 43.1289154,8.16949479 C43.3982837,8.61383915 43.5341014,9.0520006 43.5361624,9.48274257 C43.5384294,9.91451503 43.5128735,10.2733293 43.45867,10.5618646 C43.4040544,10.8499877 43.3154329,11.1611936 43.1936298,11.4973372 C43.0732693,11.8332747 42.9411614,12.1364429 42.8014279,12.4078722 C42.6602517,12.6797136 42.511656,12.9173431 42.3552286,13.1207604 C42.268668,13.2316404 42.164177,13.3581838 42.0392825,13.4995661 C41.9174794,13.6413605 41.7309619,13.8400377 41.4809667,14.0970402 C41.2336507,14.3544549 40.9174985,14.5927026 40.5386929,14.8117834 C40.1574141,15.0298336 39.7091539,15.1576135 39.1924696,15.192856 C38.677228,15.2283047 38.1566279,15.1716281 37.6298449,15.022208 C37.1028558,14.8723758 36.6747931,14.6685462 36.3407104,14.4105132 L36.7720707,13.8521974 C36.7953596,13.8488999 36.9682747,13.8464267 37.2965866,13.8431292 C37.6246925,13.8400377 37.8783975,13.7211199 38.0605869,13.4861698 L41.6091588,8.89206961 Z M38.5578981,5.57041009 C38.619521,5.48941411 38.587576,5.36864148 38.4606205,5.20726781 C38.3349015,5.04506975 38.254936,4.91749593 38.2234032,4.82372196 C38.1914582,4.73056628 38.2093887,4.64050205 38.2765762,4.55394146 C38.3196504,4.49850147 38.3841586,4.45728214 38.4696887,4.42863471 C38.5541883,4.40184215 38.6104527,4.38823977 38.6401306,4.39009464 L38.7996494,4.46964794 L41.5104385,6.56400198 L35.7819824,13.979359 L33.0709873,11.8856233 L32.9543366,11.75063 C32.9312537,11.7149753 32.9312537,11.6508792 32.946711,11.5601967 C32.9625804,11.4688959 32.9877242,11.4012962 33.0217302,11.3580159 C33.0868567,11.2714553 33.1711502,11.2320908 33.2690461,11.2384798 C33.3677664,11.2454871 33.5107975,11.2902101 33.6985515,11.3712061 C33.8881604,11.4528203 34.0120245,11.4532325 34.0746779,11.3730609 L38.5578981,5.57041009 L38.5578981,5.57041009 Z"></path>
        </g>
        <g fill-rule="nonzero" fill="#243746" transform="translate(94.265000, 69.381637)" id="Product-of-the-Year">
            <path id="Shape" d="M8.28,1.26 L0,1.26 L0,1.71 C0.6,1.83 1.59,2.37 1.59,4.59 L1.59,19.68 C1.59,21.48 0.6,22.32 0,22.44 L0,22.86 L7.38,22.86 L7.38,22.44 C6.78,22.32 5.85,21.63 5.85,19.68 L5.85,13.53 L8.88,13.53 C13.05,13.53 16.74,11.16 16.74,7.41 C16.74,3.57 13.65,1.26 8.28,1.26 Z M8.19,12.99 C6.81,12.99 6.15,12.78 5.85,12.69 L5.85,1.8 L7.32,1.8 C10.14,1.8 12.51,4.23 12.51,7.41 C12.51,10.68 10.86,12.99 8.19,12.99 Z"></path>
            <path id="Path" d="M27.24,7.47 C25.29,7.47 23.88,8.76 22.95,11.28 L22.92,11.31 L23.46,7.32 L17.94,8.43 L17.94,8.88 C18.54,9.03 19.56,9.54 19.56,11.46 L19.56,19.68 C19.56,21.48 18.54,22.35 17.94,22.47 L17.94,22.86 L24.99,22.86 L24.99,22.44 C24.39,22.32 23.43,21.66 23.43,19.68 L23.43,11.58 C23.88,10.56 24.57,9.66 25.14,9.66 C26.19,9.66 25.83,11.61 27.63,11.61 C28.65,11.61 29.55,10.8 29.55,9.63 C29.55,8.31 28.53,7.47 27.24,7.47 Z"></path>
            <path id="Shape" d="M38.4,23.25 C42.72,23.25 46.23,19.68 46.23,15.36 C46.23,11.04 42.72,7.47 38.4,7.47 C34.08,7.47 30.6,11.04 30.6,15.36 C30.6,19.68 34.08,23.25 38.4,23.25 Z M39.6,22.56 C36.72,22.56 34.68,16.68 34.68,12.93 C34.68,10.17 35.61,8.19 37.17,8.19 C40.02,8.19 42.12,13.95 42.12,17.67 C42.12,20.49 41.16,22.56 39.6,22.56 Z"></path>
            <path id="Shape" d="M62.07,0 L56.58,1.08 L56.58,1.53 C57.18,1.53 58.2,2.22 58.2,4.14 L58.2,8.97 C57.24,8.1 55.95,7.47 54.45,7.47 C50.58,7.47 47.73,11.1 47.73,15.39 C47.73,19.71 50.28,23.25 54.3,23.25 C56.1,23.25 57.51,22.44 58.71,20.61 L58.38,22.86 L63.69,22.86 L63.69,22.41 C63.09,22.29 62.07,21.6 62.07,19.68 L62.07,0 Z M55.47,22.11 C52.83,22.11 51.66,18.39 51.66,14.1 C51.66,11.13 52.11,8.13 54.6,8.13 C56.19,8.13 57.48,9.39 58.2,11.1 L58.2,20.22 C57.45,21.42 56.49,22.11 55.47,22.11 Z"></path>
            <path id="Path" d="M71.34,23.25 C73.56,23.25 75.6,21.66 76.38,19.26 L76.08,22.86 L81.54,22.86 L81.54,22.44 C80.94,22.32 79.98,21.84 79.98,19.68 L79.98,7.32 L74.49,8.4 L74.49,8.85 C75.09,8.85 76.08,9.36 76.08,11.34 L76.08,17.76 C76.08,19.14 75.15,21.15 73.56,21.15 C71.76,21.15 70.83,19.56 70.83,16.86 L70.83,7.32 L65.34,8.4 L65.34,8.85 C65.94,8.85 66.96,9.48 66.96,11.34 L66.96,16.86 C66.96,20.64 68.04,23.25 71.34,23.25 Z"></path>
            <path id="Path" d="M90.36,23.25 C92.85,23.25 95.49,21.96 96.57,18.75 L96.57,17.91 C95.52,19.89 93.6,20.52 92.31,20.52 C88.89,20.52 86.49,17.58 86.49,13.05 C86.49,10.08 87.78,8.07 90.36,8.07 C92.16,8.07 93.24,9.3 93.24,10.2 C93.24,11.16 92.55,11.43 92.55,12.45 C92.55,13.62 93.54,14.34 94.47,14.34 C95.43,14.34 96.48,13.35 96.48,11.88 C96.48,9.6 93.84,7.47 90.87,7.47 C86.31,7.47 83.04,11.16 83.04,15.33 C83.04,19.65 86.31,23.25 90.36,23.25 Z"></path>
            <path id="Path" d="M107.49,7.29 C106.32,7.65 104.76,7.86 103.56,7.86 L103.56,2.22 L103.08,2.22 C102.3,4.47 99.87,7.26 97.47,7.86 L97.47,8.61 L99.69,8.61 L99.69,18.78 C99.69,21.9 101.25,23.22 103.08,23.22 C105.36,23.22 106.68,22.05 106.98,21.72 L106.98,21.27 C106.44,21.69 103.56,22.65 103.56,18.42 L103.56,8.61 L107.31,8.61 L107.49,7.29 Z"></path>
            <path id="Shape" d="M124.89,23.25 C129.21,23.25 132.72,19.68 132.72,15.36 C132.72,11.04 129.21,7.47 124.89,7.47 C120.57,7.47 117.09,11.04 117.09,15.36 C117.09,19.68 120.57,23.25 124.89,23.25 Z M126.09,22.56 C123.21,22.56 121.17,16.68 121.17,12.93 C121.17,10.17 122.1,8.19 123.66,8.19 C126.51,8.19 128.61,13.95 128.61,17.67 C128.61,20.49 127.65,22.56 126.09,22.56 Z"></path>
            <path id="Path" d="M142.86,5.64 C144,5.64 144.87,4.77 144.87,3.69 C144.87,1.62 142.86,0 140.79,0 C138.57,0 136.98,1.59 136.47,4.47 C136.17,6.09 135.78,7.86 134.37,7.86 L134.37,8.43 L135.99,8.43 L135.99,19.68 C135.99,21.48 135.24,22.32 134.37,22.44 L134.37,22.86 L141.42,22.86 L141.42,22.44 C140.52,22.29 139.89,21.63 139.89,19.68 L139.89,8.49 L143.07,8.55 L143.07,7.86 L139.86,7.86 C139.71,6.06 138.45,3.99 138.45,2.46 C138.45,1.44 139.08,0.84 139.86,0.81 C140.76,0.81 141.21,1.35 141.21,2.07 C141.21,2.67 140.94,3.03 140.94,3.69 C140.94,4.77 141.66,5.64 142.86,5.64 Z"></path>
            <path id="Path" d="M24.465,39.29 C23.295,39.65 21.735,39.86 20.535,39.86 L20.535,34.22 L20.055,34.22 C19.275,36.47 16.845,39.26 14.445,39.86 L14.445,40.61 L16.665,40.61 L16.665,50.78 C16.665,53.9 18.225,55.22 20.055,55.22 C22.335,55.22 23.655,54.05 23.955,53.72 L23.955,53.27 C23.415,53.69 20.535,54.65 20.535,50.42 L20.535,40.61 L24.285,40.61 L24.465,39.29 Z"></path>
            <path id="Path" d="M40.245,45.08 C40.245,41.69 38.565,39.47 35.265,39.47 C33.525,39.47 32.115,40.43 31.155,42.08 L31.155,32 L25.665,33.08 L25.665,33.53 C26.565,33.77 27.285,34.46 27.285,36.02 L27.285,51.68 C27.285,53.54 26.265,54.35 25.665,54.47 L25.665,54.86 L32.715,54.86 L32.715,54.44 C32.115,54.32 31.155,53.54 31.155,51.68 L31.155,43.1 C31.845,41.57 32.925,40.64 34.035,40.64 C35.595,40.64 36.375,41.72 36.375,45.5 L36.375,51.68 C36.375,53.45 35.385,54.32 34.785,54.44 L34.785,54.86 L41.865,54.86 L41.865,54.44 C41.265,54.32 40.245,53.45 40.245,51.68 L40.245,45.08 Z"></path>
            <path id="Shape" d="M52.575,52.52 C49.125,52.52 47.505,49.61 47.055,46.67 L56.955,44.66 C56.325,41.54 53.685,39.47 50.535,39.47 C46.485,39.47 43.215,42.95 43.215,47.27 C43.215,51.59 46.485,55.25 50.535,55.25 C53.655,55.25 55.965,53.3 56.745,50.72 L56.745,49.91 C55.725,51.89 53.805,52.52 52.575,52.52 Z M49.065,40.19 C50.715,40.19 52.185,42.23 52.185,43.82 C52.185,44.51 51.855,45.05 50.985,45.23 L46.965,46.1 C46.935,45.68 46.905,45.26 46.905,44.87 C46.905,43.43 47.295,40.19 49.065,40.19 Z"></path>
            <path id="Path" d="M78.225,33.71 C80.385,34.61 80.415,36.77 79.245,39.17 L77.085,43.61 L73.935,37.64 C72.405,34.76 72.825,34.25 73.695,33.71 L73.695,33.26 L65.955,33.26 L65.955,33.71 C66.915,34.07 67.485,34.55 68.325,36.08 L73.185,44.84 L73.185,51.68 C73.185,53.48 72.165,54.35 71.565,54.44 L71.565,54.86 L79.035,54.86 L79.035,54.41 C78.435,54.32 77.415,53.75 77.415,51.53 L77.415,44.51 C78.465,42.38 79.485,40.25 79.935,39.32 C81.765,35.51 83.325,34.52 84.825,33.71 L84.825,33.26 L78.225,33.26 L78.225,33.71 Z"></path>
            <path id="Shape" d="M94.935,52.52 C91.485,52.52 89.865,49.61 89.415,46.67 L99.315,44.66 C98.685,41.54 96.045,39.47 92.895,39.47 C88.845,39.47 85.575,42.95 85.575,47.27 C85.575,51.59 88.845,55.25 92.895,55.25 C96.015,55.25 98.325,53.3 99.105,50.72 L99.105,49.91 C98.085,51.89 96.165,52.52 94.935,52.52 Z M91.425,40.19 C93.075,40.19 94.545,42.23 94.545,43.82 C94.545,44.51 94.215,45.05 93.345,45.23 L89.325,46.1 C89.295,45.68 89.265,45.26 89.265,44.87 C89.265,43.43 89.655,40.19 91.425,40.19 Z"></path>
            <path id="Shape" d="M104.775,55.25 C106.335,55.25 108.345,54.5 109.425,52.64 C109.485,54.11 110.535,55.25 112.275,55.25 C113.295,55.25 114.675,54.47 115.215,53.51 L115.215,53.06 C113.685,53.81 113.205,52.91 113.205,51.05 L113.205,46.19 C113.205,41.6 111.465,39.47 106.845,39.47 C103.905,39.47 101.265,41.51 101.265,43.64 C101.265,44.78 101.895,45.71 103.095,45.71 C104.325,45.71 105.165,45.02 105.165,44.06 C105.165,42.98 104.715,42.77 104.715,41.81 C104.715,41.12 105.165,40.07 106.605,40.07 C108.105,40.07 109.395,41.15 109.395,43.88 L109.395,46.04 C107.175,46.67 100.515,47.39 100.515,51.47 C100.515,54.11 102.285,55.25 104.775,55.25 Z M106.755,53.42 C105.405,53.42 104.475,52.49 104.475,50.72 C104.475,48.23 107.295,47.51 109.395,46.58 L109.395,50.75 C109.395,52.52 107.805,53.42 106.755,53.42 Z"></path>
            <path id="Path" d="M125.715,39.47 C123.765,39.47 122.355,40.76 121.425,43.28 L121.395,43.31 L121.935,39.32 L116.415,40.43 L116.415,40.88 C117.015,41.03 118.035,41.54 118.035,43.46 L118.035,51.68 C118.035,53.48 117.015,54.35 116.415,54.47 L116.415,54.86 L123.465,54.86 L123.465,54.44 C122.865,54.32 121.905,53.66 121.905,51.68 L121.905,43.58 C122.355,42.56 123.045,41.66 123.615,41.66 C124.665,41.66 124.305,43.61 126.105,43.61 C127.125,43.61 128.025,42.8 128.025,41.63 C128.025,40.31 127.005,39.47 125.715,39.47 Z"></path>
        </g>
    </g>
</svg>