<svg xmlns:xlink="http://www.w3.org/1999/xlink" xmlns="http://www.w3.org/2000/svg" version="1.1" viewBox="0 0 330 176" height="176px" width="330px">
    <title>endy-ottawa-life-best-mattress-in-canada-300x176</title>
    <g fill-rule="evenodd" fill="none" stroke-width="1" stroke="none" id="endy-ottawa-life-best-mattress-in-canada-300x176">
        <g transform="translate(0.000000, 0.866000)" id="Group-78"></g>
        <g fill="#FDC01A" transform="translate(-0.000153, 31.866200)" id="laurel-left">
            <path id="Fill-1" d="M36.8215529,107.6199 C33.3775529,111.6819 31.8705529,122.3709 43.3625529,131.8009 C43.6285529,131.0589 43.8385529,130.2959 43.9885529,129.5189 C45.7745529,121.0319 42.6055529,113.8099 36.8215529,107.6199"></path>
            <path id="Fill-3" d="M29.1736529,116.2557 C31.9316529,110.9747 32.5286529,101.3367 25.6736529,92.0707 C20.5206529,96.1607 19.7696529,107.0657 29.1736529,116.2557"></path>
            <path id="Fill-5" d="M21.6003529,21.7547 C27.2193529,20.3047 33.6833529,12.9097 34.8083529,0.4397 C30.0083529,1.3167 20.6473529,8.5877 21.6003529,21.7547"></path>
            <path id="Fill-7" d="M16.9646529,94.3714 C21.9126529,89.8344 24.8066529,81.8364 22.2456529,71.5654 C16.3126529,73.2774 11.4316529,82.3434 16.9646529,94.3714"></path>
            <path id="Fill-9" d="M22.6770529,53.1653 C17.7060529,53.2983 10.5530529,59.2773 12.0600529,71.9693 C16.2810529,70.2093 22.4050529,64.5233 22.6770529,53.1653"></path>
            <path id="Fill-11" d="M26.3225529,36.3836 C21.1725529,35.7436 14.1135529,41.1236 13.4805529,52.5446 C19.1405529,51.4626 24.7895529,46.2766 26.3225529,36.3836"></path>
            <path id="Fill-13" d="M30.6926529,21.6746 C27.3446529,20.8476 20.1006529,23.0616 17.6036529,34.3376 C22.1506529,34.2976 28.1686529,30.8356 30.6926529,21.6746"></path>
            <path id="Fill-15" d="M17.6907529,123.7044 C23.3327529,132.5824 32.0607529,137.5364 40.6517529,133.9174 C41.3687529,133.6164 42.0537529,133.2374 42.6967529,132.7884 C36.0547529,126.8784 25.3857529,119.9514 17.6907529,123.7044"></path>
            <path id="Fill-17" d="M27.4553529,117.74 C22.8943529,110.359 14.9793529,100 6.57335289,100.617 C9.72835289,114.828 20.2973529,120.326 27.4553529,117.74"></path>
            <path id="Fill-19" d="M0.0574528887,72.9895 C-0.781547111,86.4475 7.72045289,95.4745 15.6234529,94.8045 C13.0754529,86.7125 8.04145289,74.6625 0.0574528887,72.9895"></path>
            <path id="Fill-22" d="M8.35375289,71.4012 C8.94175289,71.7402 9.56475289,72.0082 10.2107529,72.1992 C10.1967529,64.2172 8.97075289,52.6802 2.15675289,49.2692 C-0.625247111,58.3142 1.29775289,67.5662 8.35375289,71.4012"></path>
            <path id="Fill-24" d="M11.8479529,51.7185 C13.0679529,44.0875 12.9499529,33.2835 6.85795289,29.3845 C2.40095289,40.1595 6.08595289,49.0535 11.8479529,51.7185"></path>
            <path id="Fill-26" d="M15.8327529,33.4715 C18.4577529,27.0575 20.1977529,17.9305 15.4827529,13.4975 C9.19875289,22.9825 12.5057529,30.8055 15.8327529,33.4715"></path>
        </g>
        <g transform="translate(0.000000, 1.000000)" id="laurel-right">
            <polygon points="0 179.866 329.486 179.866 329.486 -1.42108547e-14 0 -1.42108547e-14" id="Clip-64"></polygon>
            <path fill="#FDC01A" id="Fill-28" d="M285.4977,160.3855 C285.6477,161.1625 285.8567,161.9255 286.1237,162.6665 C297.6157,153.2375 296.1077,142.5475 292.6647,138.4865 C286.8807,144.6765 283.7117,151.8985 285.4977,160.3855"></path>
            <path fill="#FDC01A" id="Fill-30" d="M303.8121,122.9373 C296.9571,132.2023 297.5541,141.8413 300.3121,147.1223 C309.7161,137.9323 308.9641,127.0263 303.8121,122.9373"></path>
            <path fill="#FDC01A" id="Fill-32" d="M294.6774,31.3055 C295.8024,43.7765 302.2674,51.1705 307.8854,52.6205 C308.8384,39.4535 299.4774,32.1825 294.6774,31.3055"></path>
            <path fill="#FDC01A" id="Fill-34" d="M307.2408,102.4314 C304.6778,112.7024 307.5728,120.7004 312.5208,125.2374 C318.0538,113.2094 313.1738,104.1434 307.2408,102.4314"></path>
            <path fill="#FDC01A" id="Fill-36" d="M317.4254,102.8357 C318.9324,90.1437 311.7794,84.1647 306.8094,84.0317 C307.0804,95.3897 313.2044,101.0757 317.4254,102.8357"></path>
            <path fill="#FDC01A" id="Fill-38" d="M316.0055,83.4104 C315.3725,71.9904 308.3135,66.6104 303.1625,67.2494 C304.6955,77.1424 310.3455,82.3284 316.0055,83.4104"></path>
            <path fill="#FDC01A" id="Fill-40" d="M311.8815,65.2034 C309.3855,53.9284 302.1415,51.7144 298.7935,52.5404 C301.3175,61.7024 307.3355,65.1634 311.8815,65.2034"></path>
            <path fill="#FDC01A" id="Fill-42" d="M286.7887,163.6551 C287.4327,164.1041 288.1177,164.4821 288.8347,164.7831 C297.4257,168.4031 306.1527,163.4491 311.7947,154.5711 C304.0997,150.8171 293.4317,157.7451 286.7887,163.6551"></path>
            <path fill="#FDC01A" id="Fill-44" d="M322.9127,131.4832 C314.5067,130.8662 306.5907,141.2252 302.0297,148.6062 C309.1877,151.1922 319.7577,145.6942 322.9127,131.4832"></path>
            <path fill="#FDC01A" id="Fill-46" d="M313.8619,125.6712 C321.7649,126.3412 330.2669,117.3142 329.4279,103.8562 C321.4439,105.5292 316.4109,117.5782 313.8619,125.6712"></path>
            <path fill="#FDC01A" id="Fill-48" d="M327.3287,80.135 C320.5147,83.547 319.2897,95.084 319.2747,103.066 C319.9207,102.874 320.5437,102.606 321.1317,102.267 C328.1877,98.432 330.1107,89.18 327.3287,80.135"></path>
            <path fill="#FDC01A" id="Fill-50" d="M322.6276,60.2503 C316.5366,64.1493 316.4176,74.9543 317.6376,82.5843 C323.3996,79.9193 327.0846,71.0263 322.6276,60.2503"></path>
            <path fill="#FDC01A" id="Fill-52" d="M314.0035,44.364 C309.2875,48.797 311.0265,57.924 313.6525,64.338 C316.9795,61.672 320.2865,53.849 314.0035,44.364"></path>
        </g>
        <g opacity="0.7" fill-rule="nonzero" fill="#243746" transform="translate(130.240000, 155.586200)" id="WINNER">
            <polygon points="6.74 -5.68434189e-14 4.58 8.26 2.58 -5.68434189e-14 0 -5.68434189e-14 3.2 12.28 5.54 12.28 7.7 4.18 9.86 12.28 12.2 12.28 15.4 -5.68434189e-14 12.88 -5.68434189e-14 10.86 8.26 8.74 -5.68434189e-14" id="Path"></polygon>
            <polygon points="19.68 -5.68434189e-14 17.12 -5.68434189e-14 17.12 12.28 19.68 12.28" id="Path"></polygon>
            <polygon points="32.6 -5.68434189e-14 30.14 -5.68434189e-14 30.14 7.76 24.72 -5.68434189e-14 22.32 -5.68434189e-14 22.32 12.28 24.78 12.28 24.78 4.1 30.58 12.28 32.6 12.28" id="Path"></polygon>
            <polygon points="45.54 -5.68434189e-14 43.08 -5.68434189e-14 43.08 7.76 37.66 -5.68434189e-14 35.26 -5.68434189e-14 35.26 12.28 37.72 12.28 37.72 4.1 43.52 12.28 45.54 12.28" id="Path"></polygon>
            <polygon points="48.2 -5.68434189e-14 48.2 12.28 56.54 12.28 56.54 10.02 50.72 10.02 50.72 7.1 56 7.1 56 4.92 50.72 4.92 50.72 2.24 56.54 2.24 56.54 -5.68434189e-14" id="Path"></polygon>
            <path id="Shape" d="M62.7,7.7 L65.74,12.28 L68.62,12.28 L65.38,7.52 C67.1,7.1 68.18,5.86 68.18,3.9 C68.18,1.38 66.46,-5.68434189e-14 63.88,-5.68434189e-14 L58.82,-5.68434189e-14 L58.82,12.28 L61.36,12.28 L61.36,7.7 L62.7,7.7 Z M61.36,2.18 L63.72,2.18 C65,2.18 65.66,2.86 65.66,3.9 C65.66,4.92 65,5.6 63.72,5.6 L61.36,5.6 L61.36,2.18 Z"></path>
        </g>
        <g fill="#243746" transform="translate(122.500000, 1.000000)" opacity="0.699999988" id="OLM">
            <path id="Fill-54" d="M22.7516,25.352 C16.8016,25.352 11.9776,20.529 11.9776,14.579 C11.9776,8.628 16.8016,3.805 22.7516,3.805 C28.7016,3.805 33.5256,8.628 33.5256,14.579 C33.5256,20.529 28.7016,25.352 22.7516,25.352 L22.7516,25.352 Z M70.9896,0 L61.8526,21.128 L52.6166,0 L47.6376,24.967 L39.6816,24.967 L39.6816,1.111 L36.0266,1.111 L36.0266,9.994 C34.1256,4.489 28.9016,0.534 22.7516,0.534 C14.9946,0.534 8.7076,6.822 8.7076,14.579 C8.7076,22.335 14.9946,28.623 22.7516,28.623 C28.9016,28.623 34.1256,24.667 36.0266,19.163 L36.0266,24.967 L36.0266,28.045 L39.6816,28.045 L50.6476,28.045 L53.6816,10.347 L61.8036,28.719 L69.8776,10.347 L73.0686,28.042 L76.5496,28.09 L70.9896,0 Z"></path>
            <path id="Fill-57" d="M6.7286,39.6108 C5.0636,39.6108 3.7146,38.3028 3.7146,36.6908 C3.7146,35.0768 5.0636,33.7698 6.7286,33.7698 C8.3936,33.7698 9.7426,35.0768 9.7426,36.6908 C9.7426,38.3028 8.3936,39.6108 6.7286,39.6108 M6.7286,31.0178 C3.4956,31.0178 0.8746,33.5568 0.8746,36.6908 C0.8746,39.8228 3.4956,42.3628 6.7286,42.3628 C9.9616,42.3628 12.5826,39.8228 12.5826,36.6908 C12.5826,33.5568 9.9616,31.0178 6.7286,31.0178"></path>
            <polygon points="12.1178 31.3057 12.1178 33.7697 14.3868 33.7697 14.3868 42.0577 17.1658 42.0577 17.1658 33.7697 21.1338 33.7697 21.1338 42.0577 23.9128 42.0577 23.9128 33.7697 26.1648 33.7697 26.1648 31.3057" id="Fill-59"></polygon>
            <polygon points="61.9948 39.4619 61.9948 30.7269 59.0318 30.7269 59.0318 39.4619 59.0318 42.0579 61.9948 42.0579 65.5188 42.0579 65.5188 39.4619" id="Fill-61"></polygon>
            <polygon points="66.424 42.0572 69.387 42.0572 69.387 30.7262 66.424 30.7262" id="Fill-63"></polygon>
            <polygon points="77.0504 33.3223 77.0504 30.7263 73.5264 30.7263 70.5634 30.7263 70.5634 33.3223 70.5634 35.1083 70.5634 37.6903 70.5634 42.0573 73.5264 42.0573 73.5264 37.6903 76.6514 37.6903 76.6514 35.1083 73.5264 35.1083 73.5264 33.3223" id="Fill-65"></polygon>
            <polygon points="84.611 33.3223 84.611 30.7263 81.086 30.7263 78.123 30.7263 78.123 33.3223 78.123 39.4623 78.123 42.0573 81.086 42.0573 84.611 42.0573 84.611 39.4623 81.086 39.4623 81.086 37.6903 84.306 37.6903 84.306 35.1083 81.086 35.1083 81.086 33.3223" id="Fill-66"></polygon>
            <path id="Fill-67" d="M30.191,37.9136 L29.066,37.9136 L30.191,34.7746 L31.317,37.9136 L30.191,37.9136 Z M31.648,31.2926 L30.191,31.2926 L28.734,31.2926 L24.566,42.0576 L27.579,42.0576 L28.265,40.1446 L30.191,40.1446 L32.117,40.1446 L32.803,42.0576 L35.816,42.0576 L31.648,31.2926 Z"></path>
            <path id="Fill-68" d="M52.8639,37.9136 L51.7379,37.9136 L52.8639,34.7746 L53.9889,37.9136 L52.8639,37.9136 Z M54.3199,31.2926 L52.8639,31.2926 L51.4069,31.2926 L47.2379,42.0576 L50.2519,42.0576 L50.9379,40.1446 L52.8639,40.1446 L54.7899,40.1446 L55.4749,42.0576 L58.4889,42.0576 L54.3199,31.2926 Z"></path>
            <polygon points="46.6744 31.2925 44.8374 38.1015 42.6164 31.3055 41.5474 31.3055 40.4774 31.3055 38.2564 38.1015 36.4194 31.2925 33.5324 31.2925 36.7964 42.0575 39.4274 42.0575 41.5474 35.9415 43.6664 42.0575 46.2984 42.0575 49.5614 31.2925" id="Fill-69"></polygon>
            <polygon points="46.3033 46.772 46.8603 43.93 47.7683 45.984 48.7073 43.93 49.2073 46.772 48.7983 46.772 48.5433 45.176 47.7603 46.894 47.0003 45.174 46.7163 46.772" id="Fill-70"></polygon>
            <path id="Fill-71" d="M52.2096,45.7549 L51.8176,44.8559 L51.4066,45.7549 L52.2096,45.7549 Z M52.3726,46.1299 L51.2406,46.1299 L50.9456,46.7719 L50.5166,46.7719 L51.8246,43.9629 L53.0866,46.7719 L52.6496,46.7719 L52.3726,46.1299 Z"></path>
            <path id="Fill-72" d="M55.901,45.3955 L56.993,45.3955 L56.993,45.4825 C56.993,45.6815 56.969,45.8575 56.922,46.0105 C56.878,46.1515 56.8,46.2845 56.692,46.4075 C56.447,46.6835 56.134,46.8215 55.755,46.8215 C55.385,46.8215 55.069,46.6875 54.805,46.4205 C54.542,46.1525 54.41,45.8315 54.41,45.4555 C54.41,45.0715 54.544,44.7465 54.812,44.4795 C55.08,44.2115 55.407,44.0775 55.792,44.0775 C55.998,44.0775 56.191,44.1195 56.37,44.2035 C56.541,44.2885 56.71,44.4255 56.875,44.6145 L56.59,44.8865 C56.374,44.5985 56.11,44.4535 55.798,44.4535 C55.518,44.4535 55.284,44.5505 55.094,44.7435 C54.905,44.9325 54.81,45.1695 54.81,45.4555 C54.81,45.7495 54.916,45.9925 55.127,46.1835 C55.325,46.3595 55.539,46.4485 55.769,46.4485 C55.965,46.4485 56.141,46.3825 56.298,46.2495 C56.455,46.1165 56.542,45.9565 56.56,45.7705 L55.901,45.7705 L55.901,45.3955 Z"></path>
            <path id="Fill-73" d="M60.0094,45.7549 L59.6174,44.8559 L59.2064,45.7549 L60.0094,45.7549 Z M60.1724,46.1299 L59.0404,46.1299 L58.7454,46.7719 L58.3164,46.7719 L59.6244,43.9629 L60.8864,46.7719 L60.4494,46.7719 L60.1724,46.1299 Z"></path>
            <polygon points="62.7262 46.397 63.9952 46.397 63.9952 46.772 62.0702 46.772 63.3682 44.503 62.2832 44.503 62.2832 44.128 64.0242 44.128" id="Fill-74"></polygon>
            <polygon points="65.513 46.7722 65.912 46.7722 65.912 44.1282 65.513 44.1282" id="Fill-75"></polygon>
            <polygon points="67.7906 46.772 67.7906 43.949 69.7186 45.966 69.7186 44.128 70.1176 44.128 70.1176 46.933 68.1896 44.921 68.1896 46.772" id="Fill-76"></polygon>
            <polygon points="73.4547 44.5034 72.3937 44.5034 72.3937 45.1384 73.4237 45.1384 73.4237 45.5134 72.3937 45.5134 72.3937 46.3974 73.4547 46.3974 73.4547 46.7724 71.9957 46.7724 71.9957 44.1284 73.4547 44.1284" id="Fill-77"></polygon>
        </g>
        <g fill-rule="nonzero" fill="#243746" transform="translate(73.860000, 69.641637)" id="Best-Mattress-in-Can">
            <path id="Shape" d="M11.88,10.23 C14.1,9.45 15.87,7.68 15.87,5.37 C15.87,1.59 12.48,0 8.91,0 L0,0 L0,0.45 C0.6,0.57 1.62,1.11 1.62,3.33 L1.62,18.42 C1.62,20.22 0.6,21.06 0,21.18 L0,21.6 L9.75,21.6 C14.4,21.6 17.04,19.32 17.04,15.87 C17.04,12.81 14.67,10.71 11.88,10.23 Z M6.75,0.54 C9.9,0.54 11.64,2.43 11.64,5.37 C11.64,9.18 9.72,10.14 8.22,10.14 C7.41,10.14 6.42,10.05 5.85,9.96 L5.85,0.54 L6.75,0.54 Z M8.88,21.06 C7.71,21.06 6.63,20.97 5.85,20.76 L5.85,10.71 L8.22,10.71 C10.89,10.71 12.78,13.08 12.78,15.87 C12.78,18.69 11.37,21.06 8.88,21.06 Z"></path>
            <path id="Shape" d="M28.02,19.26 C24.57,19.26 22.95,16.35 22.5,13.41 L32.4,11.4 C31.77,8.28 29.13,6.21 25.98,6.21 C21.93,6.21 18.66,9.69 18.66,14.01 C18.66,18.33 21.93,21.99 25.98,21.99 C29.1,21.99 31.41,20.04 32.19,17.46 L32.19,16.65 C31.17,18.63 29.25,19.26 28.02,19.26 Z M24.51,6.93 C26.16,6.93 27.63,8.97 27.63,10.56 C27.63,11.25 27.3,11.79 26.43,11.97 L22.41,12.84 C22.38,12.42 22.35,12 22.35,11.61 C22.35,10.17 22.74,6.93 24.51,6.93 Z"></path>
            <path id="Path" d="M40.26,21.99 C43.38,21.99 45.87,20.22 45.87,17.58 C45.87,11.16 36.75,11.91 36.45,8.94 C36.3,7.32 37.47,6.75 38.79,6.75 C41.04,6.75 43.53,9.15 44.61,11.73 L45.15,11.73 L44.04,6.21 C42.06,7.44 41.01,6.21 38.91,6.21 C36.33,6.21 34.02,7.71 34.02,10.32 C34.02,16.32 42.78,15.12 42.78,18.75 C42.78,20.49 41.73,21.45 40.23,21.45 C37.23,21.45 35.07,18.3 34.14,15.9 L33.6,15.9 L34.92,21.99 C37.14,21.03 37.83,21.99 40.26,21.99 Z"></path>
            <path id="Path" d="M56.94,6.03 C55.77,6.39 54.21,6.6 53.01,6.6 L53.01,0.96 L52.53,0.96 C51.75,3.21 49.32,6 46.92,6.6 L46.92,7.35 L49.14,7.35 L49.14,17.52 C49.14,20.64 50.7,21.96 52.53,21.96 C54.81,21.96 56.13,20.79 56.43,20.46 L56.43,20.01 C55.89,20.43 53.01,21.39 53.01,17.16 L53.01,7.35 L56.76,7.35 L56.94,6.03 Z"></path>
            <path id="Path" d="M88.53,18.66 C88.08,14.07 87.42,4.17 87.33,2.85 C87.24,1.56 88.14,0.57 89.13,0.42 L89.13,0 L83.16,0 C83.16,0.9 82.89,3.15 82.2,5.55 L78.66,17.76 L73.77,0 L67.17,0 L67.17,0.42 C68.73,0.57 70.14,1.68 69.96,3.51 L68.64,18.09 C68.43,20.28 66.69,21.06 65.79,21.18 L65.79,21.6 L72.15,21.6 L72.15,21.18 C71.25,21.06 69.15,20.61 69.36,18.06 L70.53,3.81 L75.99,22.89 C77.04,21.93 78.27,21.21 79.44,20.61 C79.32,20.19 79.23,18.84 79.65,16.95 C80.04,15.24 82.2,7.83 83.34,3.99 L84.36,18.78 C84.45,20.25 83.58,21.03 82.74,21.18 L82.74,21.6 L90.15,21.6 L90.15,21.18 C89.25,21.03 88.68,20.25 88.53,18.66 Z"></path>
            <path id="Shape" d="M96.06,21.99 C97.62,21.99 99.63,21.24 100.71,19.38 C100.77,20.85 101.82,21.99 103.56,21.99 C104.58,21.99 105.96,21.21 106.5,20.25 L106.5,19.8 C104.97,20.55 104.49,19.65 104.49,17.79 L104.49,12.93 C104.49,8.34 102.75,6.21 98.13,6.21 C95.19,6.21 92.55,8.25 92.55,10.38 C92.55,11.52 93.18,12.45 94.38,12.45 C95.61,12.45 96.45,11.76 96.45,10.8 C96.45,9.72 96,9.51 96,8.55 C96,7.86 96.45,6.81 97.89,6.81 C99.39,6.81 100.68,7.89 100.68,10.62 L100.68,12.78 C98.46,13.41 91.8,14.13 91.8,18.21 C91.8,20.85 93.57,21.99 96.06,21.99 Z M98.04,20.16 C96.69,20.16 95.76,19.23 95.76,17.46 C95.76,14.97 98.58,14.25 100.68,13.32 L100.68,17.49 C100.68,19.26 99.09,20.16 98.04,20.16 Z"></path>
            <path id="Path" d="M117.12,6.03 C115.95,6.39 114.39,6.6 113.19,6.6 L113.19,0.96 L112.71,0.96 C111.93,3.21 109.5,6 107.1,6.6 L107.1,7.35 L109.32,7.35 L109.32,17.52 C109.32,20.64 110.88,21.96 112.71,21.96 C114.99,21.96 116.31,20.79 116.61,20.46 L116.61,20.01 C116.07,20.43 113.19,21.39 113.19,17.16 L113.19,7.35 L116.94,7.35 L117.12,6.03 Z"></path>
            <path id="Path" d="M127.74,6.03 C126.57,6.39 125.01,6.6 123.81,6.6 L123.81,0.96 L123.33,0.96 C122.55,3.21 120.12,6 117.72,6.6 L117.72,7.35 L119.94,7.35 L119.94,17.52 C119.94,20.64 121.5,21.96 123.33,21.96 C125.61,21.96 126.93,20.79 127.23,20.46 L127.23,20.01 C126.69,20.43 123.81,21.39 123.81,17.16 L123.81,7.35 L127.56,7.35 L127.74,6.03 Z"></path>
            <path id="Path" d="M138.24,6.21 C136.29,6.21 134.88,7.5 133.95,10.02 L133.92,10.05 L134.46,6.06 L128.94,7.17 L128.94,7.62 C129.54,7.77 130.56,8.28 130.56,10.2 L130.56,18.42 C130.56,20.22 129.54,21.09 128.94,21.21 L128.94,21.6 L135.99,21.6 L135.99,21.18 C135.39,21.06 134.43,20.4 134.43,18.42 L134.43,10.32 C134.88,9.3 135.57,8.4 136.14,8.4 C137.19,8.4 136.83,10.35 138.63,10.35 C139.65,10.35 140.55,9.54 140.55,8.37 C140.55,7.05 139.53,6.21 138.24,6.21 Z"></path>
            <path id="Shape" d="M150.96,19.26 C147.51,19.26 145.89,16.35 145.44,13.41 L155.34,11.4 C154.71,8.28 152.07,6.21 148.92,6.21 C144.87,6.21 141.6,9.69 141.6,14.01 C141.6,18.33 144.87,21.99 148.92,21.99 C152.04,21.99 154.35,20.04 155.13,17.46 L155.13,16.65 C154.11,18.63 152.19,19.26 150.96,19.26 Z M147.45,6.93 C149.1,6.93 150.57,8.97 150.57,10.56 C150.57,11.25 150.24,11.79 149.37,11.97 L145.35,12.84 C145.32,12.42 145.29,12 145.29,11.61 C145.29,10.17 145.68,6.93 147.45,6.93 Z"></path>
            <path id="Path" d="M163.2,21.99 C166.32,21.99 168.81,20.22 168.81,17.58 C168.81,11.16 159.69,11.91 159.39,8.94 C159.24,7.32 160.41,6.75 161.73,6.75 C163.98,6.75 166.47,9.15 167.55,11.73 L168.09,11.73 L166.98,6.21 C165,7.44 163.95,6.21 161.85,6.21 C159.27,6.21 156.96,7.71 156.96,10.32 C156.96,16.32 165.72,15.12 165.72,18.75 C165.72,20.49 164.67,21.45 163.17,21.45 C160.17,21.45 158.01,18.3 157.08,15.9 L156.54,15.9 L157.86,21.99 C160.08,21.03 160.77,21.99 163.2,21.99 Z"></path>
            <path id="Path" d="M176.97,21.99 C180.09,21.99 182.58,20.22 182.58,17.58 C182.58,11.16 173.46,11.91 173.16,8.94 C173.01,7.32 174.18,6.75 175.5,6.75 C177.75,6.75 180.24,9.15 181.32,11.73 L181.86,11.73 L180.75,6.21 C178.77,7.44 177.72,6.21 175.62,6.21 C173.04,6.21 170.73,7.71 170.73,10.32 C170.73,16.32 179.49,15.12 179.49,18.75 C179.49,20.49 178.44,21.45 176.94,21.45 C173.94,21.45 171.78,18.3 170.85,15.9 L170.31,15.9 L171.63,21.99 C173.85,21.03 174.54,21.99 176.97,21.99 Z"></path>
            <path id="Shape" d="M27.405,36.2 C28.665,36.2 29.715,35.15 29.715,33.92 C29.715,32.66 28.665,31.61 27.405,31.61 C26.175,31.61 25.125,32.66 25.125,33.92 C25.125,35.15 26.175,36.2 27.405,36.2 Z M30.975,53.6 L30.975,53.18 C30.375,53.06 29.445,52.4 29.445,50.42 L29.445,38.06 L23.955,39.14 L23.955,39.59 C24.555,39.71 25.545,40.25 25.545,42.17 L25.545,50.42 C25.545,52.4 24.555,53.06 23.955,53.18 L23.955,53.6 L30.975,53.6 Z"></path>
            <path id="Path" d="M47.055,43.82 C47.055,40.43 45.375,38.21 42.075,38.21 C40.035,38.21 38.385,39.56 37.485,41.81 L37.995,38.06 L32.475,39.17 L32.475,39.62 C33.075,39.77 34.095,40.28 34.095,42.2 L34.095,50.42 C34.095,52.22 33.075,53.09 32.475,53.21 L32.475,53.6 L39.525,53.6 L39.525,53.18 C38.925,53.06 37.965,52.4 37.965,50.42 L37.965,41.84 C38.655,40.31 39.735,39.38 40.845,39.38 C42.405,39.38 43.185,40.46 43.185,44.24 L43.185,50.42 C43.185,52.19 42.195,53.06 41.595,53.18 L41.595,53.6 L48.675,53.6 L48.675,53.18 C48.075,53.06 47.055,52.19 47.055,50.42 L47.055,43.82 Z"></path>
            <path id="Path" d="M68.595,53.99 C72.615,53.99 75.135,50.93 75.945,47 L75.555,46.88 C74.385,50.15 72.075,50.99 70.245,50.99 C64.755,50.99 62.535,45.32 62.535,40.82 C62.535,35.33 65.055,32.18 68.295,32.18 C72.105,32.18 74.145,36.29 75.255,40.67 L75.855,40.67 L74.505,32 C72.105,33.77 71.655,31.61 68.355,31.61 C63.195,31.61 58.575,36.56 58.575,42.92 C58.575,48.95 62.535,53.99 68.595,53.99 Z"></path>
            <path id="Shape" d="M81.675,53.99 C83.235,53.99 85.245,53.24 86.325,51.38 C86.385,52.85 87.435,53.99 89.175,53.99 C90.195,53.99 91.575,53.21 92.115,52.25 L92.115,51.8 C90.585,52.55 90.105,51.65 90.105,49.79 L90.105,44.93 C90.105,40.34 88.365,38.21 83.745,38.21 C80.805,38.21 78.165,40.25 78.165,42.38 C78.165,43.52 78.795,44.45 79.995,44.45 C81.225,44.45 82.065,43.76 82.065,42.8 C82.065,41.72 81.615,41.51 81.615,40.55 C81.615,39.86 82.065,38.81 83.505,38.81 C85.005,38.81 86.295,39.89 86.295,42.62 L86.295,44.78 C84.075,45.41 77.415,46.13 77.415,50.21 C77.415,52.85 79.185,53.99 81.675,53.99 Z M83.655,52.16 C82.305,52.16 81.375,51.23 81.375,49.46 C81.375,46.97 84.195,46.25 86.295,45.32 L86.295,49.49 C86.295,51.26 84.705,52.16 83.655,52.16 Z"></path>
            <path id="Path" d="M107.895,43.82 C107.895,40.43 106.215,38.21 102.915,38.21 C100.875,38.21 99.225,39.56 98.325,41.81 L98.835,38.06 L93.315,39.17 L93.315,39.62 C93.915,39.77 94.935,40.28 94.935,42.2 L94.935,50.42 C94.935,52.22 93.915,53.09 93.315,53.21 L93.315,53.6 L100.365,53.6 L100.365,53.18 C99.765,53.06 98.805,52.4 98.805,50.42 L98.805,41.84 C99.495,40.31 100.575,39.38 101.685,39.38 C103.245,39.38 104.025,40.46 104.025,44.24 L104.025,50.42 C104.025,52.19 103.035,53.06 102.435,53.18 L102.435,53.6 L109.515,53.6 L109.515,53.18 C108.915,53.06 107.895,52.19 107.895,50.42 L107.895,43.82 Z"></path>
            <path id="Shape" d="M115.125,53.99 C116.685,53.99 118.695,53.24 119.775,51.38 C119.835,52.85 120.885,53.99 122.625,53.99 C123.645,53.99 125.025,53.21 125.565,52.25 L125.565,51.8 C124.035,52.55 123.555,51.65 123.555,49.79 L123.555,44.93 C123.555,40.34 121.815,38.21 117.195,38.21 C114.255,38.21 111.615,40.25 111.615,42.38 C111.615,43.52 112.245,44.45 113.445,44.45 C114.675,44.45 115.515,43.76 115.515,42.8 C115.515,41.72 115.065,41.51 115.065,40.55 C115.065,39.86 115.515,38.81 116.955,38.81 C118.455,38.81 119.745,39.89 119.745,42.62 L119.745,44.78 C117.525,45.41 110.865,46.13 110.865,50.21 C110.865,52.85 112.635,53.99 115.125,53.99 Z M117.105,52.16 C115.755,52.16 114.825,51.23 114.825,49.46 C114.825,46.97 117.645,46.25 119.745,45.32 L119.745,49.49 C119.745,51.26 118.155,52.16 117.105,52.16 Z"></path>
            <path id="Shape" d="M140.955,30.74 L135.465,31.82 L135.465,32.27 C136.065,32.27 137.085,32.96 137.085,34.88 L137.085,39.71 C136.125,38.84 134.835,38.21 133.335,38.21 C129.465,38.21 126.615,41.84 126.615,46.13 C126.615,50.45 129.165,53.99 133.185,53.99 C134.985,53.99 136.395,53.18 137.595,51.35 L137.265,53.6 L142.575,53.6 L142.575,53.15 C141.975,53.03 140.955,52.34 140.955,50.42 L140.955,30.74 Z M134.355,52.85 C131.715,52.85 130.545,49.13 130.545,44.84 C130.545,41.87 130.995,38.87 133.485,38.87 C135.075,38.87 136.365,40.13 137.085,41.84 L137.085,50.96 C136.335,52.16 135.375,52.85 134.355,52.85 Z"></path>
            <path id="Shape" d="M148.485,53.99 C150.045,53.99 152.055,53.24 153.135,51.38 C153.195,52.85 154.245,53.99 155.985,53.99 C157.005,53.99 158.385,53.21 158.925,52.25 L158.925,51.8 C157.395,52.55 156.915,51.65 156.915,49.79 L156.915,44.93 C156.915,40.34 155.175,38.21 150.555,38.21 C147.615,38.21 144.975,40.25 144.975,42.38 C144.975,43.52 145.605,44.45 146.805,44.45 C148.035,44.45 148.875,43.76 148.875,42.8 C148.875,41.72 148.425,41.51 148.425,40.55 C148.425,39.86 148.875,38.81 150.315,38.81 C151.815,38.81 153.105,39.89 153.105,42.62 L153.105,44.78 C150.885,45.41 144.225,46.13 144.225,50.21 C144.225,52.85 145.995,53.99 148.485,53.99 Z M150.465,52.16 C149.115,52.16 148.185,51.23 148.185,49.46 C148.185,46.97 151.005,46.25 153.105,45.32 L153.105,49.49 C153.105,51.26 151.515,52.16 150.465,52.16 Z"></path>
        </g>
    </g>
</svg>