<svg xmlns:xlink="http://www.w3.org/1999/xlink" xmlns="http://www.w3.org/2000/svg" version="1.1" viewBox="0 0 330 176" height="176px" width="330px">
    <title>endy-brand-spark-most-trusted-mattress-300x176</title>
    <defs>
        <polygon points="0 0 48.4288993 0 48.4288993 48.4288993 0 48.4288993" id="path-1"></polygon>
    </defs>
    <g fill-rule="evenodd" fill="none" stroke-width="1" stroke="none" id="endy-brand-spark-most-trusted-mattress-300x176">
        <g transform="translate(0.000000, 0.866000)" id="Group-78"></g>
        <g fill="#FDC01A" transform="translate(-0.000153, 31.866200)" id="laurel-left">
            <path id="Fill-1" d="M36.8215529,107.6199 C33.3775529,111.6819 31.8705529,122.3709 43.3625529,131.8009 C43.6285529,131.0589 43.8385529,130.2959 43.9885529,129.5189 C45.7745529,121.0319 42.6055529,113.8099 36.8215529,107.6199"></path>
            <path id="Fill-3" d="M29.1736529,116.2557 C31.9316529,110.9747 32.5286529,101.3367 25.6736529,92.0707 C20.5206529,96.1607 19.7696529,107.0657 29.1736529,116.2557"></path>
            <path id="Fill-5" d="M21.6003529,21.7547 C27.2193529,20.3047 33.6833529,12.9097 34.8083529,0.4397 C30.0083529,1.3167 20.6473529,8.5877 21.6003529,21.7547"></path>
            <path id="Fill-7" d="M16.9646529,94.3714 C21.9126529,89.8344 24.8066529,81.8364 22.2456529,71.5654 C16.3126529,73.2774 11.4316529,82.3434 16.9646529,94.3714"></path>
            <path id="Fill-9" d="M22.6770529,53.1653 C17.7060529,53.2983 10.5530529,59.2773 12.0600529,71.9693 C16.2810529,70.2093 22.4050529,64.5233 22.6770529,53.1653"></path>
            <path id="Fill-11" d="M26.3225529,36.3836 C21.1725529,35.7436 14.1135529,41.1236 13.4805529,52.5446 C19.1405529,51.4626 24.7895529,46.2766 26.3225529,36.3836"></path>
            <path id="Fill-13" d="M30.6926529,21.6746 C27.3446529,20.8476 20.1006529,23.0616 17.6036529,34.3376 C22.1506529,34.2976 28.1686529,30.8356 30.6926529,21.6746"></path>
            <path id="Fill-15" d="M17.6907529,123.7044 C23.3327529,132.5824 32.0607529,137.5364 40.6517529,133.9174 C41.3687529,133.6164 42.0537529,133.2374 42.6967529,132.7884 C36.0547529,126.8784 25.3857529,119.9514 17.6907529,123.7044"></path>
            <path id="Fill-17" d="M27.4553529,117.74 C22.8943529,110.359 14.9793529,100 6.57335289,100.617 C9.72835289,114.828 20.2973529,120.326 27.4553529,117.74"></path>
            <path id="Fill-19" d="M0.0574528887,72.9895 C-0.781547111,86.4475 7.72045289,95.4745 15.6234529,94.8045 C13.0754529,86.7125 8.04145289,74.6625 0.0574528887,72.9895"></path>
            <path id="Fill-22" d="M8.35375289,71.4012 C8.94175289,71.7402 9.56475289,72.0082 10.2107529,72.1992 C10.1967529,64.2172 8.97075289,52.6802 2.15675289,49.2692 C-0.625247111,58.3142 1.29775289,67.5662 8.35375289,71.4012"></path>
            <path id="Fill-24" d="M11.8479529,51.7185 C13.0679529,44.0875 12.9499529,33.2835 6.85795289,29.3845 C2.40095289,40.1595 6.08595289,49.0535 11.8479529,51.7185"></path>
            <path id="Fill-26" d="M15.8327529,33.4715 C18.4577529,27.0575 20.1977529,17.9305 15.4827529,13.4975 C9.19875289,22.9825 12.5057529,30.8055 15.8327529,33.4715"></path>
        </g>
        <g transform="translate(0.000000, 1.000000)" id="laurel-right">
            <polygon points="0 179.866 329.486 179.866 329.486 0 0 0" id="Clip-64"></polygon>
            <path fill="#FDC01A" id="Fill-28" d="M285.4977,160.3855 C285.6477,161.1625 285.8567,161.9255 286.1237,162.6665 C297.6157,153.2375 296.1077,142.5475 292.6647,138.4865 C286.8807,144.6765 283.7117,151.8985 285.4977,160.3855"></path>
            <path fill="#FDC01A" id="Fill-30" d="M303.8121,122.9373 C296.9571,132.2023 297.5541,141.8413 300.3121,147.1223 C309.7161,137.9323 308.9641,127.0263 303.8121,122.9373"></path>
            <path fill="#FDC01A" id="Fill-32" d="M294.6774,31.3055 C295.8024,43.7765 302.2674,51.1705 307.8854,52.6205 C308.8384,39.4535 299.4774,32.1825 294.6774,31.3055"></path>
            <path fill="#FDC01A" id="Fill-34" d="M307.2408,102.4314 C304.6778,112.7024 307.5728,120.7004 312.5208,125.2374 C318.0538,113.2094 313.1738,104.1434 307.2408,102.4314"></path>
            <path fill="#FDC01A" id="Fill-36" d="M317.4254,102.8357 C318.9324,90.1437 311.7794,84.1647 306.8094,84.0317 C307.0804,95.3897 313.2044,101.0757 317.4254,102.8357"></path>
            <path fill="#FDC01A" id="Fill-38" d="M316.0055,83.4104 C315.3725,71.9904 308.3135,66.6104 303.1625,67.2494 C304.6955,77.1424 310.3455,82.3284 316.0055,83.4104"></path>
            <path fill="#FDC01A" id="Fill-40" d="M311.8815,65.2034 C309.3855,53.9284 302.1415,51.7144 298.7935,52.5404 C301.3175,61.7024 307.3355,65.1634 311.8815,65.2034"></path>
            <path fill="#FDC01A" id="Fill-42" d="M286.7887,163.6551 C287.4327,164.1041 288.1177,164.4821 288.8347,164.7831 C297.4257,168.4031 306.1527,163.4491 311.7947,154.5711 C304.0997,150.8171 293.4317,157.7451 286.7887,163.6551"></path>
            <path fill="#FDC01A" id="Fill-44" d="M322.9127,131.4832 C314.5067,130.8662 306.5907,141.2252 302.0297,148.6062 C309.1877,151.1922 319.7577,145.6942 322.9127,131.4832"></path>
            <path fill="#FDC01A" id="Fill-46" d="M313.8619,125.6712 C321.7649,126.3412 330.2669,117.3142 329.4279,103.8562 C321.4439,105.5292 316.4109,117.5782 313.8619,125.6712"></path>
            <path fill="#FDC01A" id="Fill-48" d="M327.3287,80.135 C320.5147,83.547 319.2897,95.084 319.2747,103.066 C319.9207,102.874 320.5437,102.606 321.1317,102.267 C328.1877,98.432 330.1107,89.18 327.3287,80.135"></path>
            <path fill="#FDC01A" id="Fill-50" d="M322.6276,60.2503 C316.5366,64.1493 316.4176,74.9543 317.6376,82.5843 C323.3996,79.9193 327.0846,71.0263 322.6276,60.2503"></path>
            <path fill="#FDC01A" id="Fill-52" d="M314.0035,44.364 C309.2875,48.797 311.0265,57.924 313.6525,64.338 C316.9795,61.672 320.2865,53.849 314.0035,44.364"></path>
        </g>
        <g opacity="0.7" fill-rule="nonzero" fill="#243746" transform="translate(130.240000, 159.066252)" id="WINNER">
            <polygon points="6.74 0 4.58 8.26 2.58 0 0 0 3.2 12.28 5.54 12.28 7.7 4.18 9.86 12.28 12.2 12.28 15.4 0 12.88 0 10.86 8.26 8.74 0" id="Path"></polygon>
            <polygon points="19.68 0 17.12 0 17.12 12.28 19.68 12.28" id="Path"></polygon>
            <polygon points="32.6 0 30.14 0 30.14 7.76 24.72 0 22.32 0 22.32 12.28 24.78 12.28 24.78 4.1 30.58 12.28 32.6 12.28" id="Path"></polygon>
            <polygon points="45.54 0 43.08 0 43.08 7.76 37.66 0 35.26 0 35.26 12.28 37.72 12.28 37.72 4.1 43.52 12.28 45.54 12.28" id="Path"></polygon>
            <polygon points="48.2 0 48.2 12.28 56.54 12.28 56.54 10.02 50.72 10.02 50.72 7.1 56 7.1 56 4.92 50.72 4.92 50.72 2.24 56.54 2.24 56.54 0" id="Path"></polygon>
            <path id="Shape" d="M62.7,7.7 L65.74,12.28 L68.62,12.28 L65.38,7.52 C67.1,7.1 68.18,5.86 68.18,3.9 C68.18,1.38 66.46,0 63.88,0 L58.82,0 L58.82,12.28 L61.36,12.28 L61.36,7.7 L62.7,7.7 Z M61.36,2.18 L63.72,2.18 C65,2.18 65.66,2.86 65.66,3.9 C65.66,4.92 65,5.6 63.72,5.6 L61.36,5.6 L61.36,2.18 Z"></path>
        </g>
        <g transform="translate(140.701852, 1.000000)" id="2021_BMTA_Canada_#1Round_logo_english">
            <g id="Group-4">
                <mask fill="white" id="mask-2">
                    <use xlink:href="#path-1"></use>
                </mask>
                <g id="Clip-2"></g>
                <path mask="url(#mask-2)" fill="#66737E" id="Fill-1" d="M48.2871965,24.2145913 C48.2871965,37.5094989 37.505601,48.2872471 24.2059475,48.2872471 C10.906294,48.2872471 0.124698422,37.5094989 0.124698422,24.2145913 C0.124698422,10.9194004 10.906294,0.141652186 24.2059475,0.141652186 C37.505601,0.141652186 48.2871965,10.9194004 48.2871965,24.2145913"></path>
                <path mask="url(#mask-2)" fill="#FFFFFE" id="Fill-3" d="M24.2059475,0.283304372 C11.0057693,0.283304372 0.266401174,11.0188403 0.266401174,24.2145913 C0.266401174,37.4103423 11.0057693,48.1455949 24.2059475,48.1455949 C37.406409,48.1455949 48.1454938,37.4103423 48.1454938,24.2145913 C48.1454938,11.0188403 37.406409,0.283304372 24.2059475,0.283304372 Z M24.2059475,48.4288993 C10.8493295,48.4288993 -0.0170043302,37.5664431 -0.0170043302,24.2145913 C-0.0170043302,10.8627395 10.8493295,0 24.2059475,0 C37.5625655,0 48.4288993,10.8627395 48.4288993,24.2145913 C48.4288993,37.5664431 37.5625655,48.4288993 24.2059475,48.4288993 L24.2059475,48.4288993 Z"></path>
            </g>
            <path fill="#FFFFFE" id="Fill-5" d="M6.57302385,33.7021714 C6.59172861,33.6270958 6.5707566,33.5316222 6.50982442,33.416034 L6.40864866,33.2219705 L5.87868036,33.4993255 L5.97107056,33.6761074 C6.03058571,33.7899958 6.09916985,33.8633716 6.17710636,33.8962349 C6.25475947,33.9296648 6.33694706,33.9234321 6.42366915,33.8781034 C6.50500653,33.8356078 6.55460249,33.7769638 6.57302385,33.7021714 Z M5.78543995,34.1733066 C5.80244428,34.0795328 5.7775046,33.9687608 5.71118771,33.8415572 L5.60661108,33.6418276 L4.99558881,33.9613949 L5.1029995,34.1673572 C5.16676574,34.2886115 5.24158479,34.3699198 5.32688985,34.4112823 C5.41247831,34.4526447 5.50571872,34.4469786 5.60604427,34.394284 C5.70835366,34.3410228 5.76815222,34.2673636 5.78543995,34.1733066 Z M5.50203445,34.8509706 C5.41021107,34.8543703 5.3243392,34.8365221 5.24300182,34.7965762 C5.16166444,34.7569136 5.08486155,34.6968531 5.01230974,34.6163946 C4.93947452,34.5367861 4.87259083,34.4379129 4.81052502,34.3203416 L4.510682,33.7469335 L6.50840739,32.7015404 L6.81335172,33.2828809 C6.93181522,33.5089578 6.9720588,33.7001883 6.93493268,33.8574222 C6.89808996,34.0143728 6.80059847,34.1344939 6.64217479,34.2172188 C6.53788157,34.2721798 6.43755602,34.2903113 6.34119815,34.2735963 C6.24512368,34.2560315 6.15556754,34.2138191 6.07337995,34.1461094 C6.09718601,34.2761461 6.08868384,34.3948506 6.04787345,34.5025063 C6.00706306,34.6098786 5.92005757,34.6985529 5.78685698,34.7682458 C5.68851527,34.8195239 5.59329102,34.8472877 5.50203445,34.8509706 L5.50203445,34.8509706 Z"></path>
            <path fill="#FFFFFE" id="Fill-6" d="M6.70707465,35.3637516 C6.6067491,35.3136067 6.50557334,35.2872594 6.40298055,35.2838597 L5.63495163,35.7626441 L5.4274988,35.4300448 L6.76715662,34.5951468 L6.94343484,34.8776013 L6.70027292,35.0872465 C6.80541636,35.0832802 6.90800915,35.0974455 7.0083347,35.1300255 C7.10837685,35.1628888 7.1936819,35.2300319 7.26510009,35.3320215 L6.96780772,35.5901118 C6.8949725,35.489822 6.80796701,35.4141797 6.70707465,35.3637516"></path>
            <path fill="#FFFFFE" id="Fill-7" d="M7.22882418,36.7111472 C7.1525881,36.6275724 7.08343716,36.5632623 7.02165476,36.5182169 C6.95958896,36.4734548 6.90489169,36.4431412 6.85699616,36.4269929 C6.80910063,36.4105612 6.766023,36.4060283 6.72833006,36.413111 C6.69063713,36.4207602 6.65662847,36.4349254 6.62658749,36.4567398 C6.5806758,36.4898864 6.55403568,36.5295491 6.54723395,36.5757277 C6.54043222,36.6224729 6.55460249,36.670068 6.59002818,36.7190797 C6.62942154,36.7734741 6.67901751,36.817103 6.73909947,36.8499663 C6.79889804,36.8828296 6.86691536,36.905494 6.94286803,36.917676 L7.22882418,36.7111472 Z M6.62233641,37.2165622 L6.77055748,37.0698105 C6.67901751,37.058195 6.58917796,37.0309978 6.50273928,36.9890687 C6.41573379,36.9465731 6.33808069,36.8777301 6.26949655,36.7825399 C6.19042642,36.6729011 6.1584016,36.5624124 6.17342209,36.4507904 C6.18844258,36.3394518 6.2513586,36.2436949 6.36273696,36.1632365 C6.51832659,36.0513313 6.67986772,36.0320666 6.84651016,36.1048758 C7.013436,36.1779683 7.20303428,36.3354856 7.4150216,36.5774275 L7.45186432,36.5507969 C7.52073185,36.5012186 7.55615754,36.4465409 7.55814138,36.3876136 C7.55984181,36.3289696 7.53518553,36.2643762 7.48445595,36.1935501 C7.43089231,36.1196076 7.36939331,36.0544476 7.29882534,35.9975034 C7.22825737,35.9408426 7.15343832,35.8892812 7.07380137,35.8419693 L7.29967556,35.6190088 C7.38328018,35.6714201 7.46376735,35.7311973 7.54227067,35.7983405 C7.62020718,35.8657669 7.69615986,35.9501916 7.76984529,36.0530311 C7.88915901,36.2190475 7.94584011,36.366649 7.93847157,36.4964024 C7.93138643,36.6264391 7.85118267,36.7465602 7.69701008,36.8576155 L6.81930323,37.4896676 L6.62233641,37.2165622 L6.62233641,37.2165622 Z"></path>
            <path fill="#FFFFFE" id="Fill-8" d="M7.75255756,38.6158024 L8.5375908,37.9449377 C8.59030422,37.8993257 8.62289586,37.8508806 8.63479889,37.7993192 C8.64641851,37.7477579 8.62913078,37.6947799 8.58208546,37.6398189 C8.54127507,37.5916571 8.48771143,37.5568107 8.42111114,37.534713 C8.35507766,37.5123319 8.2802586,37.4995832 8.19693739,37.4964669 L7.38724786,38.1885795 L7.13246631,37.8905433 L8.33212181,36.8646981 L8.54921043,37.1182555 L8.40354,37.289938 C8.50414895,37.3009869 8.60164044,37.3222347 8.69459745,37.3545314 C8.78812127,37.3865448 8.86917524,37.4429223 8.9391764,37.5239474 C9.03525087,37.6367025 9.07634466,37.7491744 9.06217439,37.8619295 C9.04800411,37.974118 8.98452128,38.0783741 8.8720093,38.1746975 L8.0073391,38.9135553 L7.75255756,38.6158024"></path>
            <path fill="#FFFFFE" id="Fill-9" d="M9.90672279,39.1130016 C9.88745121,39.0605903 9.86647921,39.0152616 9.84323996,38.9770155 C9.81943389,38.9387694 9.7837248,38.8957072 9.73554586,38.8483953 C9.66129362,38.7750195 9.57088727,38.7449892 9.4646102,38.7583045 C9.35833314,38.7713365 9.24440413,38.8401795 9.12168954,38.9639835 C9.01342864,39.0744722 8.95391349,39.1756119 8.94399429,39.2679691 C8.93379169,39.3606096 8.959865,39.4373851 9.02193081,39.4985789 C9.0732272,39.5490071 9.13302576,39.5804538 9.2016099,39.5929192 C9.27047743,39.6056679 9.3461467,39.6070844 9.42946792,39.5971688 L9.90672279,39.1130016 Z M9.09533283,40.015326 L9.22541596,39.836561 C9.13784366,39.8450601 9.04885433,39.8399606 8.95873138,39.8215459 C8.86832502,39.8028478 8.78387018,39.7544027 8.70423324,39.676494 C8.64528489,39.6186999 8.60135704,39.5529733 8.57244968,39.4798808 C8.54325891,39.4073549 8.53163929,39.3291629 8.5373074,39.2458714 C8.54212529,39.1625799 8.56876541,39.0756054 8.61609413,38.9838148 C8.66285603,38.8928741 8.7331406,38.7999503 8.8260976,38.7053266 C8.9286904,38.6013539 9.03071638,38.5237285 9.13302576,38.473017 C9.23505175,38.4223056 9.33282664,38.3945417 9.42720068,38.3911421 C9.5210079,38.3874591 9.60943042,38.4024743 9.69218482,38.4364708 C9.77493923,38.470184 9.84862466,38.519479 9.91380793,38.5835058 C9.96822178,38.6373336 10.0132833,38.688895 10.0481421,38.7384732 C10.0832844,38.7883348 10.111625,38.8362133 10.1334472,38.8823919 L10.66795,38.339864 L10.9907488,38.5707571 L9.33509389,40.2516019 L9.09533283,40.015326 L9.09533283,40.015326 Z"></path>
            <path fill="#FFFFFE" id="Fill-10" d="M10.9927327,41.1950055 C10.9102617,41.2343848 10.82524,41.2544994 10.7371009,41.2547956 C10.6489618,41.2553493 10.5599725,41.2372178 10.4709831,41.1998216 C10.3811436,41.1624255 10.2949883,41.1088809 10.2111003,41.0394714 C10.10539,40.9519303 10.0161173,40.8598564 9.9435655,40.7629663 C9.8710137,40.6660762 9.81149854,40.567203 9.76502004,40.4666299 L10.0674137,40.2037235 C10.1051066,40.3085461 10.1552694,40.4113856 10.2170518,40.5122419 C10.279401,40.6130983 10.3539367,40.6997894 10.4409422,40.772032 C10.5185953,40.8360588 10.5953982,40.8703386 10.6724845,40.8745882 C10.7492874,40.8788378 10.8167379,40.8459745 10.8756862,40.775715 C10.9020429,40.7437016 10.9207477,40.7116882 10.9315171,40.6799581 C10.9422865,40.6479447 10.945404,40.6119651 10.9400193,40.5723024 C10.934918,40.5323565 10.9207477,40.4847614 10.8977918,40.4289504 C10.8745526,40.3728562 10.8430946,40.3059963 10.8037012,40.2278043 C10.7484371,40.1229817 10.7045093,40.029208 10.6716342,39.9464831 C10.6384758,39.8637582 10.6189208,39.7869827 10.6138195,39.7161566 C10.6087182,39.6456138 10.6177872,39.5781874 10.6413099,39.5144439 C10.6645491,39.4501338 10.7042259,39.3846905 10.7597734,39.3172641 C10.823823,39.2404886 10.894391,39.1835444 10.9711939,39.1469981 C11.0482802,39.1101686 11.1293341,39.0917538 11.2143558,39.0914705 C11.2996608,39.0914705 11.3855327,39.1087521 11.4725382,39.1441651 C11.5595437,39.1792948 11.6434317,39.2302896 11.7236355,39.2968662 C11.822544,39.3790244 11.9001971,39.458633 11.956028,39.5362584 C12.0118589,39.6136004 12.0577706,39.6954754 12.0937631,39.7821665 L11.7933532,40.04224 C11.7644459,39.9476163 11.7247691,39.8586587 11.6743229,39.7759339 C11.6238767,39.693209 11.564645,39.6235161 11.495494,39.5665719 C11.4118894,39.4971624 11.3365036,39.464299 11.2696199,39.4682653 C11.2024528,39.4719483 11.1471887,39.5011286 11.1024106,39.5543898 C11.0783211,39.5832869 11.0624504,39.611334 11.0533815,39.6393811 C11.0443125,39.667145 11.042612,39.7002916 11.0477133,39.7385377 C11.0528146,39.7765005 11.0661347,39.8218292 11.0882403,39.8739572 C11.1100626,39.9260852 11.1406704,39.9895453 11.1806305,40.0649043 C11.2384453,40.175393 11.2843569,40.2739829 11.317232,40.3606741 C11.3498236,40.4473652 11.3688118,40.527257 11.3733463,40.6000663 C11.3778808,40.6731588 11.3676782,40.7428517 11.3427385,40.808295 C11.3180822,40.8740216 11.2778386,40.9405981 11.2222911,41.007458 C11.1511564,41.0930159 11.0746369,41.1556261 10.9927327,41.1950055"></path>
            <path fill="#FFFFFE" id="Fill-11" d="M12.6274156,41.3819863 C12.6234479,41.2879293 12.5846214,41.2151201 12.510936,41.1641253 C12.4534046,41.1241794 12.3890716,41.1043481 12.3185036,41.1043481 C12.2476523,41.1043481 12.1716996,41.1170968 12.0900788,41.1428774 L11.7040805,41.6984373 C11.7301538,41.7457492 11.7579275,41.7859784 11.7876851,41.8196916 C11.8174427,41.8536881 11.8602369,41.8899511 11.9157844,41.9287638 C12.0005227,41.9874078 12.0943299,42.001573 12.1983397,41.9712594 C12.3020661,41.9412292 12.4035253,41.854538 12.5030006,41.711186 C12.5897227,41.5859655 12.6310999,41.4763267 12.6274156,41.3819863 Z M12.5730018,42.1976196 C12.480895,42.2636295 12.3890716,42.3066918 12.2983818,42.3270897 C12.2071253,42.3474876 12.1175691,42.3480542 12.030847,42.3282229 C11.9435581,42.3089582 11.8622208,42.2732619 11.7868349,42.2208506 C11.7242023,42.177505 11.6717723,42.1338761 11.6295448,42.0896807 C11.587034,42.0457685 11.5510415,42.0029895 11.5215673,41.9613438 L11.1826144,42.4500438 L10.8269405,42.2746784 L12.0733579,40.4790953 L12.347411,40.6689092 L12.2538872,40.8666557 C12.3363582,40.8471077 12.4236471,40.8380419 12.5168875,40.8400251 C12.6095611,40.8422915 12.7013845,40.8748715 12.7929244,40.9383317 C12.8609418,40.9853602 12.9153556,41.0425877 12.9564494,41.1091642 C12.9972598,41.1765907 13.0219161,41.2516663 13.0304183,41.3352411 C13.0380702,41.4193825 13.0273008,41.5100399 12.9972598,41.6066467 C12.966652,41.7038201 12.9139386,41.8069429 12.8379859,41.9160151 C12.7535311,42.037836 12.6651086,42.1316097 12.5730018,42.1976196 L12.5730018,42.1976196 Z"></path>
            <path fill="#FFFFFE" id="Fill-12" d="M13.8817684,42.5817804 C13.7777586,42.5370183 13.6882024,42.5067047 13.6133834,42.4908397 C13.5385643,42.4755412 13.4756483,42.4701584 13.4257689,42.4752579 C13.3753227,42.4797908 13.334229,42.4933894 13.3027709,42.5154871 C13.2713129,42.5375849 13.2463732,42.5647821 13.2276685,42.5967955 C13.1993279,42.6458071 13.191676,42.6928357 13.2041458,42.7378811 C13.2171825,42.7832098 13.2494907,42.8206059 13.3024875,42.8509195 C13.3605857,42.8843494 13.4237851,42.9038974 13.4918024,42.9095635 C13.5598197,42.914663 13.6312379,42.9075804 13.7052068,42.8874658 L13.8817684,42.5817804 Z M13.5360137,43.2914578 L13.6108327,43.0968277 C13.5221268,43.1237416 13.4297366,43.1356404 13.3330953,43.1330907 C13.2370209,43.1299743 13.1378289,43.0993774 13.0355196,43.0407334 C12.9187565,42.9730237 12.8442208,42.8851993 12.812196,42.7772604 C12.7798878,42.6696047 12.7985925,42.556283 12.8671767,42.4375784 C12.9629677,42.2715621 13.1018364,42.187704 13.2840662,42.1857208 C13.4660125,42.184021 13.7035063,42.2500309 13.9962642,42.3834673 L14.0189366,42.344088 C14.0617309,42.2707122 14.0716501,42.2064021 14.049261,42.1520076 C14.0265886,42.0976132 13.9775594,42.0486015 13.9021736,42.0049727 C13.8231034,41.9593606 13.7397822,41.9250808 13.6522099,41.9024165 C13.5652044,41.8797521 13.4753649,41.8633205 13.3832581,41.8525549 L13.4977539,41.5567851 C13.5955288,41.5701004 13.6938705,41.5919149 13.7924957,41.6210952 C13.8908374,41.6505589 13.9951306,41.6967375 14.1045251,41.7593478 C14.2816536,41.8619039 14.3938821,41.9735259 14.4403606,42.0950634 C14.4874059,42.2163177 14.4635999,42.3591031 14.3689424,42.5231364 L13.8279213,43.4597406 L13.5360137,43.2914578 L13.5360137,43.2914578 Z"></path>
            <path fill="#FFFFFE" id="Fill-13" d="M15.3101321,42.9466764 C15.1979035,42.957442 15.0981448,42.9883221 15.0097223,43.0398835 L14.6123878,43.8532504 L14.2601147,43.6812846 L14.9527578,42.2633462 L15.2526008,42.409248 L15.1573766,42.7155 C15.2446655,42.6562894 15.3393229,42.6140771 15.4413489,42.588863 C15.5433749,42.5633656 15.6516358,42.5752644 15.7658482,42.6237094 L15.6510689,43.0005042 C15.5357229,42.953759 15.4220773,42.9359108 15.3101321,42.9466764"></path>
            <polyline points="16.32274 44.6280878 16.0892139 43.6659862 15.7956058 44.3895456 15.4322799 44.241944 16.2963833 42.1137615 16.6832318 42.2038523 16.1430609 43.5325498 16.8677288 43.1214752 17.2763995 43.2874915 16.4718113 43.7223638 16.7294269 44.7297941 16.32274 44.6280878" fill="#FFFFFE" id="Fill-14"></polyline>
            <polyline points="19.8457538 45.6505333 20.1198069 44.0223831 19.1737994 45.4927328 18.805939 45.402642 18.6435477 43.6606034 18.1405029 45.2329427 17.7627234 45.1405854 18.4675528 42.9920051 19.0003552 43.1226084 19.1514103 44.9119588 20.1087541 43.3937307 20.6324875 43.5220676 20.2643437 45.7530895 19.8457538 45.6505333" fill="#FFFFFE" id="Fill-15"></polyline>
            <path fill="#FFFFFE" id="Fill-16" d="M21.866435,44.7912712 C21.8154221,44.6898482 21.7312506,44.6320541 21.614771,44.6173223 C21.4980079,44.6028737 21.4042007,44.6377202 21.3333493,44.7221449 C21.2619311,44.8068529 21.2174364,44.9227244 21.1984483,45.0706093 C21.1805937,45.213678 21.196181,45.3357822 21.24436,45.438055 C21.2931057,45.5397613 21.3747265,45.598122 21.4892223,45.6125705 C21.6102365,45.627869 21.7068777,45.5933058 21.7788627,45.5085978 C21.8514146,45.4241731 21.896476,45.3083016 21.9151808,45.1607001 C21.9333187,45.0156482 21.917448,44.8924108 21.866435,44.7912712 Z M22.1963191,45.5454274 C22.1467231,45.6411843 22.0843739,45.7199429 22.0084212,45.7819865 C21.9324685,45.8434636 21.8465967,45.8870925 21.7513724,45.9125899 C21.6558648,45.9375206 21.5549724,45.9437533 21.4492621,45.9301547 C21.3432685,45.9168394 21.2474774,45.8862426 21.1627392,45.8383641 C21.0777175,45.7902024 21.0071496,45.7267422 20.9513187,45.6485502 C20.8952044,45.5700749 20.8549608,45.4782843 20.8305879,45.3731783 C20.8070653,45.2680724 20.8030976,45.1516343 20.8192517,45.0244307 C20.8351224,44.8969437 20.8679975,44.7850385 20.9170266,44.6889983 C20.9666226,44.5932414 21.0289718,44.5144828 21.103224,44.4524391 C21.1786099,44.3903955 21.2630647,44.3464833 21.3577222,44.3198527 C21.4520962,44.2935054 21.5521383,44.2867061 21.658132,44.3000214 C21.7638423,44.31362 21.8599167,44.3445002 21.946072,44.3940784 C22.0322273,44.4433734 22.1039289,44.5074002 22.16061,44.5858755 C22.2178579,44.6643508 22.2583849,44.7561414 22.2824743,44.8612473 C22.3065638,44.9666366 22.3108149,45.0827914 22.2946608,45.2102783 C22.2782232,45.3377653 22.2456316,45.4493872 22.1963191,45.5454274 L22.1963191,45.5454274 Z"></path>
            <path fill="#FFFFFE" id="Fill-17" d="M23.6365858,45.9675509 C23.5246407,46.048576 23.3645165,46.083989 23.1556467,46.07464 C23.0400172,46.0689739 22.9289223,46.048576 22.821795,46.0131629 C22.7141009,45.9777499 22.6231277,45.9372373 22.5491589,45.8924752 L22.616326,45.5686584 C22.6985136,45.6292855 22.7892034,45.6785804 22.8875451,45.7168265 C22.9861702,45.7553559 23.0845119,45.7766038 23.1820034,45.7814199 C23.2673085,45.7851029 23.3327751,45.7734874 23.3786868,45.7462902 C23.4245985,45.719093 23.4489714,45.6802803 23.4512386,45.6301354 C23.4523722,45.6020883 23.448688,45.5774408 23.4399024,45.556193 C23.4308334,45.5352284 23.4152461,45.5156804 23.3920069,45.4983989 C23.3687676,45.480834 23.3367428,45.4644023 23.2962158,45.448254 C23.2554054,45.4321056 23.2038256,45.4151074 23.1414764,45.3966926 C23.046819,45.3683622 22.965765,45.3383319 22.8985979,45.3071684 C22.8314308,45.2757216 22.7770169,45.239742 22.7347895,45.1995128 C22.6931289,45.1595668 22.6633713,45.1133882 22.64495,45.0615435 C22.6265286,45.0091322 22.6188767,44.9470886 22.6228443,44.8754126 C22.6287959,44.7382932 22.6846267,44.6292211 22.7900536,44.5479127 C22.895197,44.4668876 23.0400172,44.4303414 23.2253644,44.4388405 C23.4319671,44.4487562 23.6141968,44.4943682 23.7714868,44.5756765 L23.7043197,44.8994934 C23.6280837,44.8521816 23.5464629,44.8139355 23.4594574,44.7836219 C23.3724519,44.7533084 23.2896975,44.7363101 23.211761,44.7326271 C23.1375087,44.7295108 23.0819613,44.7397098 23.0448351,44.7643572 C23.007709,44.7887214 22.9884374,44.8227179 22.9861702,44.8660635 C22.98532,44.8878779 22.9887208,44.9071426 22.9963728,44.9238576 C23.0043081,44.9405726 23.0187618,44.9570042 23.0397338,44.9734359 C23.0609892,44.9895842 23.09018,45.0054493 23.1275895,45.0215976 C23.1649991,45.037746 23.2128946,45.0544609 23.2712761,45.0723091 C23.3718851,45.1031893 23.4580404,45.1346361 23.5283249,45.1663661 C23.5988929,45.1978129 23.6561408,45.2340759 23.7000687,45.2757216 C23.7439965,45.3168008 23.7748877,45.3646792 23.7933091,45.4187903 C23.811447,45.4731848 23.8185322,45.5372116 23.8154147,45.611154 C23.8077627,45.7681046 23.7482476,45.8868092 23.6365858,45.9675509"></path>
            <path fill="#FFFFFE" id="Fill-18" d="M24.9362835,46.0769064 C24.8974569,46.0828558 24.849278,46.0865387 24.7928803,46.087672 C24.714377,46.0890885 24.6435256,46.0822892 24.5797593,46.0684073 C24.5159931,46.0545253 24.4612958,46.0293113 24.4151007,45.9930483 C24.3689056,45.9567853 24.3323463,45.9083403 24.306273,45.8477132 C24.2799163,45.787086 24.2665963,45.7122937 24.2648958,45.6230528 L24.2501587,44.8130856 L24.0279688,44.8167685 L24.0220173,44.4966346 L24.2442072,44.4926683 L24.2357051,43.9929194 L24.6202863,43.9274761 L24.6302055,44.485869 L24.9538546,44.480203 L25.0085519,44.799487 L24.6358736,44.806003 L24.6489103,45.5508102 C24.6503273,45.6139871 24.6667648,45.6621488 24.6990731,45.6952954 C24.7310979,45.7287253 24.7857951,45.7445904 24.8614644,45.7431738 C24.9119106,45.7423239 24.9530044,45.7369411 24.9858794,45.7278754 L25.0402933,46.0567918 C25.0102523,46.0641577 24.9753934,46.0706737 24.9362835,46.0769064"></path>
            <polyline points="26.9478957 43.9983022 27.1879402 45.8615951 26.7568804 45.9171227 26.5165526 44.0538299 25.8522501 44.1393878 25.8040711 43.7668425 27.5413469 43.5427488 27.6510248 43.9076448 26.9478957 43.9983022" fill="#FFFFFE" id="Fill-19"></polyline>
            <path fill="#FFFFFE" id="Fill-20" d="M28.2935051,44.5371471 C28.2104672,44.613356 28.1495351,44.698064 28.1098583,44.7924044 L28.2833025,45.6808469 L27.8987212,45.7559225 L27.5963275,44.2070975 L27.9233775,44.1430708 L28.0322052,44.4447899 C28.0662138,44.3450668 28.1163766,44.2541261 28.1821267,44.1725344 C28.2484436,44.0909427 28.3419674,44.0351318 28.4624147,44.0048182 L28.5978826,44.3745304 C28.4777186,44.4068271 28.3762595,44.4609383 28.2935051,44.5371471"></path>
            <path fill="#FFFFFE" id="Fill-21" d="M30.1444264,45.246258 L30.0531698,45.0408623 C29.9990394,45.1272701 29.9369736,45.2054621 29.866689,45.2760049 C29.7964044,45.3465477 29.710816,45.3949928 29.6093568,45.4216234 C29.4639698,45.4601528 29.3446561,45.4485373 29.2505654,45.3867769 C29.1561914,45.3247333 29.0895911,45.2213272 29.051048,45.075992 L28.7611241,43.9798874 L29.1403207,43.8795977 L29.404738,44.877679 C29.4223092,44.9451054 29.4517834,44.9946837 29.4931606,45.0266971 C29.533971,45.0587105 29.5881014,45.0655098 29.6558353,45.0479449 C29.7170509,45.0317966 29.772315,44.9983666 29.8219109,44.9482218 C29.8717903,44.8977936 29.9165684,44.8371665 29.9565286,44.7654905 L29.6838925,43.7356791 L30.063089,43.6353893 L30.4669419,45.1609834 L30.1444264,45.246258"></path>
            <path fill="#FFFFFE" id="Fill-22" d="M31.8754672,44.5773764 C31.8023486,44.6943811 31.6671642,44.7873049 31.4696305,44.8564312 C31.3608028,44.8946772 31.2497079,44.9176249 31.1369125,44.9247075 C31.0241171,44.9323567 30.9249252,44.9289571 30.8393367,44.9150752 L30.7803884,44.5895584 C30.8795803,44.6147725 30.9813229,44.6266713 31.0870331,44.6255381 C31.1927434,44.6241216 31.2925021,44.6071233 31.3846089,44.5748266 C31.4645292,44.5464962 31.5209269,44.5110831 31.5535186,44.4688708 C31.5863936,44.4260918 31.5937622,44.3810464 31.5770412,44.3340179 C31.5676888,44.3073873 31.555219,44.2858562 31.5390649,44.2697078 C31.5226274,44.2532762 31.5008051,44.2413774 31.472748,44.2340115 C31.4446909,44.2263622 31.4089818,44.2229626 31.3650539,44.2232459 C31.3211261,44.2235292 31.2669956,44.2269288 31.2026626,44.2334448 C31.1040374,44.2425106 31.0178822,44.2453436 30.9433465,44.2410941 C30.8693777,44.2371278 30.8058949,44.2246624 30.7517644,44.202848 C30.6982008,44.1813168 30.6528559,44.1498701 30.61658,44.1082243 C30.5800207,44.0671452 30.5499797,44.0124674 30.5258902,43.9444744 C30.4808287,43.8150043 30.4913147,43.6929001 30.5584818,43.5781618 C30.625649,43.4634236 30.7469465,43.3753159 30.9212409,43.3144055 C31.1165073,43.2452792 31.3024213,43.2197818 31.4795497,43.2359302 L31.5382147,43.5617302 C31.4495088,43.546715 31.3593858,43.5413323 31.2678458,43.5458651 C31.175739,43.550398 31.0927012,43.5656964 31.0190158,43.5914771 C30.9487312,43.6161246 30.9014025,43.6467215 30.8761794,43.6829844 C30.8506729,43.7195307 30.8452882,43.7586267 30.8597419,43.7999892 C30.8671104,43.8203871 30.877313,43.8368187 30.8911999,43.8492841 C30.90452,43.8617495 30.9243584,43.8716652 30.9498648,43.8790311 C30.9753713,43.8858304 31.0085298,43.8900799 31.0490568,43.8906466 C31.0901506,43.8914965 31.1405968,43.8895133 31.2012455,43.8841306 C31.306389,43.8750648 31.3979289,43.8719485 31.4750152,43.8747815 C31.5523849,43.8776146 31.6187018,43.8900799 31.6750995,43.9118944 C31.7312138,43.9337088 31.7776923,43.9662888 31.8151019,44.0099177 C31.852228,44.0535466 31.8831192,44.1102074 31.907492,44.1799003 C31.9596387,44.3280685 31.9488692,44.460655 31.8754672,44.5773764"></path>
            <path fill="#FFFFFE" id="Fill-23" d="M33.120751,44.1923657 C33.0870258,44.2130469 33.0439481,44.2340115 32.9918015,44.2563925 C32.9198165,44.2867061 32.8512324,44.3076706 32.7874661,44.3181529 C32.7231331,44.3289184 32.6630511,44.3260854 32.60637,44.309937 C32.5496889,44.2937887 32.4978257,44.2626252 32.4510638,44.2161633 C32.4037351,44.1697014 32.3632081,44.1056746 32.3286326,44.0235163 L32.0112185,43.2775759 L31.8068831,43.364267 L31.6816179,43.0696305 L31.8859532,42.9829393 L31.6904034,42.522853 L32.0225547,42.3177407 L32.2410603,42.8322214 L32.5389195,42.7055844 L32.7092462,42.9812395 L32.366609,43.126858 L32.657383,43.8121712 C32.6826061,43.8708152 32.7157645,43.9090613 32.757992,43.9277594 C32.8005028,43.9464575 32.8566171,43.9410747 32.9266182,43.9110445 C32.9730967,43.8914965 33.0093726,43.8710986 33.0360128,43.8504173 L33.2103071,44.1348549 C33.1848007,44.1529864 33.1550431,44.1722511 33.120751,44.1923657"></path>
            <path fill="#FFFFFE" id="Fill-24" d="M33.7524619,42.48744 C33.6779262,42.452027 33.5982893,42.4557099 33.5127008,42.4993388 C33.4426997,42.5347518 33.3959378,42.5931125 33.3726985,42.6747042 C33.3494592,42.7562958 33.3605121,42.8585687 33.4061403,42.9820894 L33.9655828,42.6982185 C33.8978489,42.5933958 33.8267141,42.5231364 33.7524619,42.48744 Z M34.396926,42.706151 C34.4037277,42.7222993 34.4099626,42.7353313 34.4147805,42.7449637 L33.5112838,43.2033501 C33.5909207,43.3365032 33.6799101,43.4169616 33.7788186,43.4452921 C33.8774437,43.4733392 33.9814535,43.4594573 34.0899978,43.4044963 C34.1812544,43.3580343 34.2574905,43.2999569 34.3181393,43.2299808 C34.3793548,43.1600046 34.4346189,43.0781296 34.4844983,42.9840726 L34.6650276,43.2370634 C34.6154316,43.3280041 34.552799,43.4124288 34.4765629,43.4903375 C34.39976,43.5682462 34.3045358,43.6362392 34.1891898,43.6943166 C34.0905646,43.7450281 33.9919395,43.7770415 33.8938812,43.79149 C33.7961063,43.8059385 33.7011655,43.7985726 33.6084919,43.7696756 C33.5161017,43.7407785 33.4288128,43.6892171 33.3469086,43.6149914 C33.264721,43.5404824 33.1916024,43.4401926 33.1272693,43.3141222 C33.0694546,43.1993839 33.0331787,43.0888952 33.0198586,42.9820894 C33.0062552,42.8752837 33.0122067,42.7758439 33.0379966,42.6832033 C33.0637865,42.5908461 33.1077144,42.5075546 33.1692133,42.4333289 C33.2307123,42.3596697 33.3069484,42.2993259 33.3987718,42.252864 C33.5036318,42.1996028 33.6042408,42.1715556 33.7005987,42.1692892 C33.7969565,42.1667394 33.8867961,42.1851542 33.9692671,42.2253835 C34.0517381,42.2653294 34.1274074,42.3228402 34.1962749,42.3976325 C34.264859,42.4729915 34.3246576,42.5599659 34.3748204,42.6588391 C34.3827557,42.6744209 34.3895574,42.6902859 34.396926,42.706151 L34.396926,42.706151 Z"></path>
            <path fill="#FFFFFE" id="Fill-25" d="M35.311759,41.6196787 C35.2567783,41.6256281 35.2074657,41.6355438 35.1646715,41.6491424 C35.1218773,41.6630243 35.0722813,41.6871051 35.0141832,41.7225182 C34.9257607,41.7777625 34.8747477,41.8585043 34.8625612,41.9647434 C34.8500914,42.0709826 34.8897682,42.1981862 34.9813081,42.3463544 C35.0629289,42.478091 35.1471004,42.5596826 35.2346727,42.5914127 C35.322245,42.6228595 35.4030155,42.6160602 35.4769844,42.5701649 C35.5382,42.5322021 35.582978,42.4814906 35.611602,42.4177471 C35.6402259,42.3540036 35.6594975,42.2806278 35.6697001,42.1976196 L35.311759,41.6196787 Z M35.9970335,42.6211597 L35.8539137,42.4523103 C35.8414438,42.5392847 35.8153705,42.6245593 35.7759772,42.7081341 C35.7365838,42.7914256 35.6694167,42.8622517 35.5750427,42.9206124 C35.5050415,42.963958 35.4305059,42.9914385 35.3525693,43.0024873 C35.2751996,43.0132529 35.1964129,43.0061703 35.116776,42.9812395 C35.0368556,42.9560254 34.9586357,42.9098468 34.881266,42.8427037 C34.8033295,42.7752772 34.7299275,42.6851865 34.6599263,42.572148 C34.5831234,42.4480607 34.531827,42.3302061 34.5066039,42.2191508 C34.4816642,42.1080954 34.4785468,42.0061059 34.4966847,41.9140319 C34.5153895,41.8222413 34.5510986,41.7397998 34.603812,41.6675571 C34.6565254,41.5953145 34.7214253,41.5349707 34.7993618,41.486809 C34.8639783,41.446863 34.9249104,41.4156996 34.9815915,41.3933185 C35.0385561,41.3712208 35.0918363,41.3550724 35.1417157,41.3445902 L34.7409803,40.6969564 L35.0419569,40.4380162 L36.2829896,42.4440944 L35.9970335,42.6211597 L35.9970335,42.6211597 Z"></path>
            <path fill="#FFFFFE" id="Fill-26" d="M36.9212188,39.7320217 L37.2357989,40.5986497 L37.7105031,40.2085396 L36.9212188,39.7320217 Z M38.5726227,40.7269866 L38.0282007,40.404303 L37.3689995,40.9456976 L37.5733349,41.5182557 L37.2423172,41.7899446 L36.4584176,39.503395 L36.8143749,39.2107416 L38.8560282,40.3924042 L38.5726227,40.7269866 L38.5726227,40.7269866 Z"></path>
            <polyline points="40.2603025 39.0560574 40.0154401 39.3059319 39.0603636 38.786635 39.6013847 39.7283387 39.3568057 39.9782132 37.9205066 39.2308562 38.157717 38.9138386 39.1065587 39.4492839 38.5720559 38.5237285 38.8143676 38.2761205 39.7490389 38.7937176 39.2054672 37.877228 39.4642164 37.6137549 40.2603025 39.0560574" fill="#FFFFFE" id="Fill-27"></polyline>
            <path fill="#FFFFFE" id="Fill-28" d="M40.7426586,37.2672736 C40.6820098,37.3630305 40.638082,37.4468886 40.6114419,37.5185646 C40.5848018,37.5899573 40.5694979,37.6505845 40.5663804,37.7012959 C40.5638298,37.7517241 40.5706315,37.7942198 40.5873524,37.8287829 C40.6043567,37.863346 40.6270292,37.8922431 40.6562199,37.915474 C40.7001478,37.9508871 40.7454927,37.9661855 40.7916878,37.9605194 C40.8381663,37.9551367 40.8809605,37.928506 40.9186534,37.8811942 C40.9611643,37.8287829 40.9900716,37.7695723 41.0062257,37.7032791 C41.0220965,37.6369858 41.0257807,37.5655931 41.017562,37.4888177 L40.7426586,37.2672736 Z M41.3902402,37.7188608 L41.2097109,37.6148881 C41.2227475,37.7066787 41.2204803,37.7998859 41.2023424,37.8945095 C41.1847712,37.9894165 41.1385761,38.0826236 41.0646073,38.1741309 C40.979869,38.2789536 40.8818107,38.3390141 40.770149,38.3540292 C40.6584872,38.3693276 40.5493761,38.3336313 40.4428156,38.2472235 C40.2934609,38.1268191 40.2322453,37.9763845 40.258602,37.7962029 C40.2855255,37.6160213 40.3872681,37.3919276 40.5643966,37.1236383 L40.5289709,37.0950246 C40.4632208,37.0414801 40.401155,37.0219321 40.3441905,37.0355307 C40.2866592,37.0491293 40.2305449,37.0902084 40.1758476,37.1576348 C40.1183163,37.2287442 40.0715544,37.305803 40.0358453,37.3885279 C39.9995694,37.4712528 39.9695284,37.557094 39.9451555,37.6466182 L39.6699688,37.4874011 C39.6988762,37.3930608 39.7354355,37.299287 39.7790799,37.2066465 C39.8235746,37.1137227 39.885357,37.0179658 39.9647105,36.9196592 C40.0933766,36.7607254 40.2211925,36.6675183 40.3484416,36.6400378 C40.4754072,36.6125572 40.6128589,36.6584525 40.7605132,36.7774404 L41.6019441,37.4570876 L41.3902402,37.7188608 L41.3902402,37.7188608 Z"></path>
            <path fill="#FFFFFE" id="Fill-29" d="M41.3233565,35.9144953 C41.3171216,36.0266838 41.3318587,36.1303732 41.3692682,36.2252802 L42.1109404,36.7442938 L41.8861998,37.0655609 L40.5927371,36.1609701 L40.7837524,35.8878646 L41.071409,36.0292335 C41.0266309,35.9340433 40.9999908,35.8340368 40.9906384,35.7292142 C40.9812861,35.6246749 41.0096266,35.519569 41.0753767,35.4138964 L41.4296336,35.5858622 C41.3661507,35.6926679 41.3304416,35.8023067 41.3233565,35.9144953"></path>
            <path fill="#FFFFFE" id="Fill-30" d="M42.0650287,34.5707826 C42.0188336,34.6013795 41.9800071,34.632543 41.9482656,34.6642731 C41.9165242,34.6962865 41.8830824,34.7410486 41.8485069,34.7988426 C41.7946599,34.8883668 41.7867245,34.9832738 41.8247008,35.0835635 C41.8621104,35.1832867 41.9556342,35.2784769 42.1052723,35.3682844 C42.2379061,35.4476097 42.3501346,35.4816062 42.4425248,35.4694241 C42.5351984,35.4575253 42.6034992,35.4141797 42.6482772,35.3393874 C42.6854034,35.277627 42.7015575,35.2121837 42.6981566,35.1424908 C42.6939055,35.072798 42.677468,34.9988555 42.6482772,34.9203802 L42.0650287,34.5707826 Z M43.1337509,35.1467404 L42.9291321,35.0620324 C42.957756,35.1456072 42.9736268,35.2331482 42.9770276,35.3249389 C42.9801451,35.4172961 42.9532216,35.5107865 42.8959736,35.6062601 C42.8534628,35.6773695 42.8001826,35.7354469 42.7358495,35.7807756 C42.6720833,35.8261043 42.5986813,35.8558513 42.5167771,35.8700165 C42.4345895,35.8841817 42.3436163,35.8793655 42.2438576,35.8550013 C42.1438154,35.8309205 42.0369716,35.7844586 41.9227591,35.7158989 C41.7977773,35.6411065 41.6985854,35.5600815 41.6251834,35.4728237 C41.5517813,35.3852827 41.501902,35.2966084 41.4761121,35.2065176 C41.4506056,35.1158602 41.4443707,35.0266194 41.4579741,34.9379451 C41.471861,34.8498374 41.501902,34.7662626 41.5489473,34.6877873 C41.5883406,34.6226273 41.627734,34.5670997 41.668261,34.5212044 C41.7085046,34.4755924 41.7478979,34.4364964 41.7878581,34.4041997 L41.1346084,34.0129563 L41.2833963,33.6446606 L43.3066282,34.8580533 L43.1337509,35.1467404 L43.1337509,35.1467404 Z"></path>
            <path fill="#FFFFFE" id="Fill-31" d="M43.9080147,33.4573964 C43.9372055,33.591966 43.9048972,33.7531662 43.8119402,33.9404304 C43.7609272,34.0438365 43.6974444,34.1376102 43.6214917,34.2214683 C43.5458225,34.3056097 43.472137,34.3721863 43.4012857,34.4220478 L43.131767,34.2299675 C43.2201895,34.179256 43.3020937,34.1163624 43.3766294,34.0415701 C43.4520152,33.967061 43.5106802,33.8854693 43.5543246,33.7979283 C43.592301,33.7217194 43.6084551,33.6574093 43.6016533,33.6041481 C43.5954184,33.5511702 43.5696285,33.5134907 43.5245671,33.491393 C43.499344,33.478361 43.4749711,33.471845 43.4522986,33.4715617 C43.4293428,33.4712784 43.4052533,33.4780777 43.3800302,33.4922429 C43.3545237,33.5064081 43.3264666,33.5290724 43.295292,33.5596693 C43.2641174,33.5902662 43.2281249,33.6307787 43.1858975,33.6806403 C43.1221312,33.7554326 43.0620493,33.8174763 43.005935,33.866488 C42.9501041,33.9154996 42.8954068,33.9509127 42.8418432,33.9730104 C42.7882796,33.9948248 42.7341491,34.0036073 42.678885,33.999641 C42.6239044,33.9953914 42.5641058,33.97726 42.4997727,33.9452466 C42.3767748,33.8843361 42.2991217,33.7894292 42.2670968,33.6602424 C42.2353554,33.5310556 42.2605785,33.3837373 42.3427661,33.2180042 C42.4348729,33.0327232 42.5502189,32.8842717 42.6885208,32.7729331 L42.957756,32.9650134 C42.8837872,33.0160082 42.8157699,33.0752188 42.7525705,33.1420787 C42.6899378,33.2097884 42.6414755,33.2786314 42.6060498,33.3488909 C42.5734582,33.4151841 42.5604215,33.4701451 42.5680735,33.5140573 C42.575442,33.5576862 42.5986813,33.5894163 42.6377912,33.608681 C42.6570628,33.6185966 42.6763344,33.6231295 42.6947557,33.6225629 C42.7131771,33.6219963 42.7344325,33.615197 42.7576718,33.6024483 C42.780911,33.5896996 42.8072677,33.569585 42.8367419,33.5421044 C42.8662161,33.5140573 42.9013583,33.4769444 42.9410351,33.4313324 C43.0101861,33.3511573 43.0736689,33.2851474 43.1309168,33.233586 C43.1881647,33.1817413 43.244279,33.1440618 43.3003933,33.1205475 C43.355374,33.0970333 43.4117717,33.0879675 43.4687362,33.0933503 C43.5259841,33.0981665 43.5874831,33.1174312 43.6538,33.1505778 C43.7943691,33.2199874 43.8791073,33.3222603 43.9080147,33.4573964"></path>
            <path fill="#FFFFFE" id="Fill-32" d="M42.1486333,24.2145913 C42.1486333,34.120612 34.1155043,42.1505911 24.2059475,42.1505911 C14.296674,42.1505911 6.26326163,34.120612 6.26326163,24.2145913 C6.26326163,14.3085706 14.296674,6.27830819 24.2059475,6.27830819 C34.1155043,6.27830819 42.1486333,14.3085706 42.1486333,24.2145913"></path>
            <path fill="#66737E" id="Fill-33" d="M24.2059475,6.41996038 C14.3904813,6.41996038 6.40496438,14.4026277 6.40496438,24.2145913 C6.40496438,34.0262716 14.3904813,42.0089389 24.2059475,42.0089389 C34.0214137,42.0089389 42.0069306,34.0262716 42.0069306,24.2145913 C42.0069306,14.4026277 34.0214137,6.41996038 24.2059475,6.41996038 Z M24.2059475,42.2922433 C14.2340414,42.2922433 6.12155888,34.1826556 6.12155888,24.2145913 C6.12155888,14.2462437 14.2340414,6.13665601 24.2059475,6.13665601 C34.1775701,6.13665601 42.2903361,14.2462437 42.2903361,24.2145913 C42.2903361,34.1826556 34.1775701,42.2922433 24.2059475,42.2922433 L24.2059475,42.2922433 Z"></path>
            <path fill="#FFFFFE" id="Fill-34" d="M4.90121478,32.4417503 C4.62489442,31.7958163 4.37861503,31.1286345 4.16946177,30.4586197 C3.54086836,28.4446089 3.22203717,26.343907 3.22203717,24.2145913 C3.22203717,12.6719213 12.6160794,3.28094793 24.1631533,3.28094793 C35.7099437,3.28094793 45.1042693,12.6719213 45.1042693,24.2145913 C45.1042693,26.3368244 44.7877054,28.4310103 44.1630796,30.439355 C43.966963,31.0691406 43.7385382,31.6963765 43.4837567,32.3029311 L43.2224568,32.1935756 C43.4735541,31.5949535 43.6991448,30.9765001 43.8924274,30.3552136 C44.5082676,28.3743494 44.8208638,26.3082106 44.8208638,24.2145913 C44.8208638,12.8277387 35.5540707,3.56425231 24.1631533,3.56425231 C12.7725192,3.56425231 3.50544268,12.8277387 3.50544268,24.2145913 C3.50544268,26.3152932 3.81973938,28.3876647 4.44039743,30.374195 C4.64614983,31.0351441 4.88931175,31.6929768 5.16194785,32.3304116 L4.90121478,32.4417503"></path>
            <path fill="#66737E" id="Fill-35" d="M16.7855412,14.667234 L17.9004584,14.667234 L18.0835384,13.5048361 L16.9686211,13.5048361 L16.7855412,14.667234 Z M16.4511227,16.8483943 L15.7264548,16.6812447 L15.8854453,15.6542664 L15.0573344,15.6542664 L15.0573344,14.6434364 L16.0450026,14.6434364 L16.2122118,13.528917 L15.3441408,13.528917 L15.1769315,12.518087 L16.3714857,12.518087 L16.5545657,11.37977 L17.3191937,11.37977 L17.1358304,12.518087 L18.2266582,12.518087 L18.4179569,11.3239591 L19.1505601,11.4911086 L18.9833509,12.518087 L19.8111783,12.518087 L19.8111783,13.528917 L18.8320123,13.528917 L18.648649,14.6434364 L19.5325907,14.6434364 L19.692148,15.6542664 L18.4896585,15.6542664 L18.3062951,16.7923001 L17.5498858,16.7923001 L17.7250304,15.6542664 L16.6342026,15.6542664 L16.4511227,16.8483943 L16.4511227,16.8483943 Z"></path>
            <polyline points="23.1630152 21.3234702 23.1630152 12.0540344 20.7379143 12.9988545 20.4168159 10.6814247 23.5019682 9.25555384 26.1588948 9.25555384 26.1588948 21.3234702 23.1630152 21.3234702" fill="#66737E" id="Fill-36"></polyline>
            <polyline points="20.041587 27.3346223 19.8664424 24.6579626 19.1020978 27.3405717 18.1688434 27.3405717 17.4047822 24.6579626 17.2293542 27.3346223 16.3604329 27.3346223 16.6517738 23.3108504 17.9412688 23.3108504 18.7229012 26.0810005 19.5102017 23.3108504 20.7645544 23.3108504 21.0561787 27.3346223 20.041587 27.3346223" fill="#66737E" id="Fill-37"></polyline>
            <path fill="#66737E" id="Fill-38" d="M24.1277276,24.3692755 C23.9664698,24.1341329 23.7397454,24.0162782 23.4478378,24.0162782 C23.1567803,24.0162782 22.9297725,24.1341329 22.7685148,24.3692755 C22.6066902,24.6047014 22.5262031,24.9225689 22.5262031,25.3225947 C22.5262031,25.7231871 22.6066902,26.0410546 22.7685148,26.2759139 C22.9297725,26.5113398 23.1567803,26.6291945 23.4478378,26.6291945 C23.7397454,26.6291945 23.9664698,26.5113398 24.1277276,26.2759139 C24.2895521,26.0410546 24.3697559,25.7231871 24.3697559,25.3225947 C24.3697559,24.9225689 24.2895521,24.6047014 24.1277276,24.3692755 Z M25.2361265,26.1682582 C25.1448699,26.4246487 25.0153536,26.6456261 24.8481444,26.8303406 C24.6806517,27.0147717 24.47745,27.1575571 24.2385391,27.2589801 C23.9993449,27.3595531 23.7337939,27.4105479 23.4421696,27.4105479 C23.1542297,27.4105479 22.8929298,27.3595531 22.6577032,27.2589801 C22.4221932,27.1575571 22.2209753,27.0156216 22.0537661,26.8331736 C21.8865568,26.650159 21.7573239,26.4317313 21.6660674,26.1770407 C21.5745274,25.9223501 21.5286157,25.6396123 21.5286157,25.3285441 C21.5286157,25.0180425 21.5745274,24.7338882 21.6660674,24.4772145 C21.7573239,24.220824 21.8865568,24.0001299 22.0537661,23.8154154 C22.2209753,23.630701 22.4236103,23.4879156 22.6608207,23.3867759 C22.8974643,23.285353 23.162165,23.2352081 23.4537893,23.2352081 C23.7454135,23.2352081 24.0101143,23.285353 24.2473247,23.3867759 C24.4842517,23.4879156 24.685753,23.6298511 24.8512618,23.8125824 C25.0159204,23.9953137 25.1448699,24.2140247 25.2361265,24.468432 C25.3270997,24.723406 25.3730113,25.0061437 25.3730113,25.3169286 C25.3730113,25.6277135 25.3270997,25.9115845 25.2361265,26.1682582 L25.2361265,26.1682582 Z"></path>
            <path fill="#66737E" id="Fill-39" d="M28.526181,26.6872719 C28.4499449,26.8470555 28.3473521,26.9782254 28.2167022,27.0807816 C28.0863356,27.1841877 27.9341469,27.2601133 27.7590023,27.3085583 C27.5838577,27.3570034 27.3970935,27.3810843 27.198993,27.3810843 C26.9269237,27.3810843 26.6758264,27.3541704 26.446268,27.2994926 C26.2167095,27.2450982 25.9993375,27.1711557 25.7930183,27.0779486 L25.9389721,26.2266189 C26.1486922,26.3393741 26.3635136,26.4297482 26.5834363,26.4977412 C26.8030755,26.5660176 27.0142126,26.6000141 27.2165641,26.6000141 C27.3602507,26.6000141 27.4767304,26.5699838 27.5662865,26.5093567 C27.6561261,26.4492962 27.7006207,26.3586388 27.7006207,26.2382344 C27.7006207,26.1798737 27.6918352,26.1294455 27.674264,26.0866666 C27.6564095,26.0438876 27.6226842,26.0019586 27.5722381,25.9614461 C27.5217919,25.9203669 27.4520741,25.8790045 27.3622346,25.8356589 C27.2729618,25.7931633 27.158466,25.7447182 27.0184637,25.6903238 C26.8158288,25.6124151 26.6418178,25.5356396 26.495864,25.459714 C26.3499101,25.3840717 26.2305964,25.299647 26.1370726,25.2064399 C26.0441156,25.1129495 25.9746812,25.0061437 25.93047,24.8854561 C25.8854085,24.7647684 25.8630195,24.6211331 25.8630195,24.4537002 C25.8630195,24.2596367 25.8987286,24.0885209 25.970997,23.940636 C26.042982,23.7930344 26.14019,23.6683805 26.2623378,23.5678074 C26.3850524,23.4663845 26.5298726,23.3904589 26.6973653,23.340314 C26.8645745,23.2896025 27.0451038,23.2643884 27.2398034,23.2643884 C27.5005365,23.2643884 27.7241434,23.2873361 27.9103408,23.3343646 C28.097105,23.3808265 28.2782012,23.4471198 28.4530624,23.5323944 L28.301157,24.3723918 C28.1186439,24.2672859 27.9369809,24.1865442 27.7558848,24.1304499 C27.5753555,24.0740723 27.4070126,24.0457419 27.2517064,24.0457419 C27.0998011,24.0457419 26.9864389,24.0746389 26.9130369,24.1335662 C26.8396348,24.1916436 26.8022253,24.2672859 26.8022253,24.3604931 C26.8022253,24.4112045 26.8107275,24.4565332 26.828582,24.4976124 C26.8461532,24.5384082 26.8767609,24.5775042 26.9218224,24.6143338 C26.9666005,24.6514466 27.0286663,24.6891261 27.1083032,24.7279388 C27.1879402,24.7667515 27.2902496,24.8095305 27.4146646,24.8562757 C27.63232,24.9378674 27.8190842,25.0197423 27.9749573,25.101334 C28.1299801,25.1829256 28.257796,25.2721665 28.3567045,25.3696232 C28.4561798,25.4667966 28.5278814,25.5764354 28.5723761,25.6988229 C28.6174376,25.8214937 28.6398266,25.9625793 28.6398266,26.1217963 C28.6398266,26.3393741 28.6015668,26.5280548 28.526181,26.6872719"></path>
            <polyline points="31.0022949 24.1565139 31.0022949 27.3346223 29.998756 27.3346223 29.998756 24.1565139 28.8849723 24.1565139 28.8849723 23.3108504 32.0701668 23.3108504 32.2098857 24.1565139 31.0022949 24.1565139" fill="#66737E" id="Fill-40"></polyline>
            <polyline points="14.0447265 29.6407199 14.0447265 32.8191117 13.0411877 32.8191117 13.0411877 29.6407199 11.9271206 29.6407199 11.9271206 28.7953397 15.1125985 28.7953397 15.252034 29.6407199 14.0447265 29.6407199" fill="#66737E" id="Fill-41"></polyline>
            <path fill="#66737E" id="Fill-42" d="M17.5036907,29.6962476 C17.3911787,29.5973744 17.2259533,29.5477961 17.0080145,29.5477961 L16.6869161,29.5477961 L16.6869161,30.7198263 L16.9963949,30.7198263 C17.2100826,30.7198263 17.3767251,30.6693981 17.4951886,30.5679751 C17.6139355,30.4668355 17.6728838,30.3195172 17.6728838,30.1251704 C17.6728838,29.9384728 17.6167695,29.7951208 17.5036907,29.6962476 Z M18.868855,32.6907748 L17.847745,32.8596242 L16.9669207,31.437153 L16.6934344,31.437153 L16.6934344,32.8191117 L15.7015151,32.8191117 L15.7015151,28.7953397 L17.1072064,28.7953397 C17.5972145,28.7953397 17.9772613,28.9029954 18.2473468,29.1188733 C18.5177156,29.3347512 18.6529,29.6503523 18.6529,30.0665264 C18.6529,30.3464311 18.5888504,30.5804405 18.4604677,30.7691213 C18.3323684,30.9575187 18.1478714,31.1045536 17.9064099,31.2093762 L18.868855,32.6907748 L18.868855,32.6907748 Z"></path>
            <path fill="#66737E" id="Fill-43" d="M22.4853927,31.9530502 C22.400371,32.1609956 22.2816241,32.3340946 22.1297188,32.4717805 C21.9780968,32.6100331 21.7987011,32.7131559 21.5932321,32.7808656 C21.3866295,32.8488586 21.1616056,32.8831385 20.9164598,32.8831385 C20.6715974,32.8831385 20.4457233,32.8499919 20.2399709,32.7839819 C20.0336517,32.7176887 19.8568066,32.6159825 19.7085855,32.4780132 C19.5606479,32.3397607 19.4464355,32.166945 19.3648147,31.9589996 C19.2831939,31.7510542 19.2418167,31.5068458 19.2418167,31.2269411 L19.2418167,28.7953397 L20.245639,28.7953397 L20.245639,31.221275 C20.245639,31.4816317 20.3028869,31.6839111 20.4176661,31.8275464 C20.5321619,31.9717483 20.7024886,32.043141 20.927796,32.043141 C21.1573545,32.043141 21.3288148,31.9723149 21.4416102,31.8303794 C21.5538388,31.6887272 21.6102365,31.489281 21.6102365,31.2328905 L21.6102365,28.7953397 L22.6137754,28.7953397 L22.6137754,31.221275 C22.6137754,31.5011798 22.5712645,31.7453881 22.4853927,31.9530502"></path>
            <path fill="#66737E" id="Fill-44" d="M25.8720884,32.1717612 C25.7961358,32.3312616 25.6929762,32.4624315 25.562893,32.565271 C25.4325265,32.6683938 25.2800543,32.744036 25.1049097,32.7927644 C24.9294817,32.8414927 24.7430009,32.8658569 24.5449005,32.8658569 C24.2725478,32.8658569 24.0217339,32.8383764 23.7921754,32.7839819 C23.562617,32.7295875 23.345245,32.6559284 23.1389258,32.5624379 L23.285163,31.7111083 C23.4945997,31.8238634 23.709421,31.9139542 23.9296271,31.9822306 C24.148983,32.0502236 24.3601201,32.0842201 24.5624716,32.0842201 C24.7058748,32.0842201 24.8226379,32.0544732 24.912194,31.9938461 C25.0020335,31.9337855 25.0465282,31.8431281 25.0465282,31.7230071 C25.0465282,31.6643631 25.0377426,31.6139349 25.0204549,31.5711559 C25.0026004,31.528377 24.9685917,31.4867312 24.9178621,31.4456521 C24.8676993,31.4048563 24.7979816,31.3632105 24.7084254,31.3204316 C24.6185859,31.2773693 24.5040901,31.2289242 24.3640878,31.1742465 C24.1617362,31.0969044 23.9877252,31.0201289 23.8417714,30.9442034 C23.6958176,30.8685611 23.5762205,30.7838531 23.4832634,30.6906459 C23.3897396,30.5968722 23.3208721,30.4903498 23.2763774,30.3696621 C23.231316,30.2492577 23.2089269,30.1053391 23.2089269,29.9384728 C23.2089269,29.7438427 23.244636,29.5730102 23.3171878,29.424842 C23.3888894,29.2775237 23.4860975,29.1528698 23.6082453,29.0520135 C23.7306765,28.9508738 23.8757801,28.8752315 24.0432727,28.8242367 C24.210482,28.7740919 24.3910113,28.7485945 24.5857109,28.7485945 C24.8461605,28.7485945 25.0697675,28.7721087 25.2565317,28.818854 C25.4430125,28.8653159 25.624392,28.9313258 25.7992532,29.0168837 L25.6473479,29.8565979 C25.4645513,29.7517753 25.2828884,29.6710335 25.1017923,29.6146559 C24.921263,29.5582784 24.7529201,29.5299479 24.5973305,29.5299479 C24.4457085,29.5299479 24.3326297,29.5594116 24.2589443,29.617489 C24.1849755,29.6758497 24.1484162,29.7517753 24.1484162,29.8449824 C24.1484162,29.8954106 24.1569183,29.9413059 24.1744895,29.9821017 C24.192344,30.0228975 24.2229518,30.0617102 24.2674465,30.0985398 C24.312508,30.1356527 24.3742904,30.1733322 24.4544941,30.2124282 C24.5341311,30.2509576 24.6358736,30.2940198 24.7605721,30.3410483 C24.9782275,30.4223567 25.1649917,30.5039484 25.3205813,30.58554 C25.4761709,30.6671317 25.60342,30.7566559 25.7028954,30.8538293 C25.8018039,30.9510027 25.8737889,31.0609248 25.9185669,31.1830289 C25.963345,31.3056997 25.985734,31.4467853 25.985734,31.6062857 C25.985734,31.8238634 25.9474743,32.0122608 25.8720884,32.1717612"></path>
            <polyline points="28.3484857 29.6407199 28.3484857 32.8191117 27.3449468 32.8191117 27.3449468 29.6407199 26.2308798 29.6407199 26.2308798 28.7953397 29.4157909 28.7953397 29.5557932 29.6407199 28.3484857 29.6407199" fill="#66737E" id="Fill-45"></polyline>
            <polyline points="30.0052743 32.8191117 30.0052743 28.7953397 32.513413 28.7953397 32.513413 29.5939747 30.9852905 29.5939747 30.9852905 30.3291496 32.1515042 30.3291496 32.2798869 31.1512989 30.9852905 31.1512989 30.9852905 32.0201934 32.5661264 32.0201934 32.5661264 32.8191117 30.0052743 32.8191117" fill="#66737E" id="Fill-46"></polyline>
            <path fill="#66737E" id="Fill-47" d="M35.5554877,30.2614398 C35.49909,30.1070389 35.4203033,29.9781354 35.3194109,29.8755793 C35.2182351,29.7733064 35.0960874,29.6976641 34.9543846,29.6489358 C34.8126819,29.6010573 34.656242,29.5764098 34.4850651,29.5764098 L34.1234397,29.5764098 L34.1234397,32.0377582 L34.4850651,32.0377582 C34.663894,32.0377582 34.8243015,32.0133941 34.9660042,31.964949 C35.1079904,31.916504 35.2284377,31.8431281 35.3279131,31.7445382 C35.427105,31.6459483 35.5036245,31.5190279 35.5583217,31.3643437 C35.613019,31.2093762 35.6396591,31.0240952 35.6396591,30.807084 C35.6396591,30.5982887 35.6118854,30.4164073 35.5554877,30.2614398 Z M36.5063132,31.6204509 C36.4150566,31.8674923 36.2793053,32.0802539 36.1007599,32.2590189 C35.9222144,32.4380673 35.7011581,32.5757532 35.4384412,32.6732099 C35.1765745,32.7703833 34.8758813,32.8191117 34.5374951,32.8191117 L33.1255689,32.8191117 L33.1255689,28.7953397 L34.5083044,28.7953397 C34.8585936,28.7953397 35.1666553,28.844068 35.4330565,28.9409581 C35.6991743,29.0386981 35.9222144,29.1744009 36.1007599,29.349483 C36.2793053,29.5242818 36.4150566,29.7350603 36.5063132,29.9821017 C36.5972863,30.2288598 36.6429146,30.5019652 36.6429146,30.801418 C36.6429146,31.1005874 36.5972863,31.3736928 36.5063132,31.6204509 L36.5063132,31.6204509 Z"></path>
            <path fill="#66737E" id="Fill-48" d="M17.5252295,35.4481763 C17.4793178,35.3861326 17.4192359,35.3555357 17.3455505,35.3555357 C17.2911366,35.3555357 17.240407,35.3716841 17.1925115,35.4036975 C17.1448994,35.4359942 17.0998379,35.4765067 17.0587441,35.5249517 L17.0587441,36.1142248 C17.0927527,36.1269735 17.1239273,36.135756 17.1519845,36.1411388 C17.1800416,36.1465215 17.2171678,36.1490713 17.2642131,36.1490713 C17.3670893,36.1490713 17.4475764,36.116208 17.5062414,36.051048 C17.5649063,35.9856047 17.5943805,35.8785156 17.5943805,35.7294975 C17.5943805,35.6039937 17.5714246,35.5099366 17.5252295,35.4481763 Z M17.870134,36.0227175 C17.8389594,36.1108252 17.7950316,36.1839177 17.7380671,36.2419951 C17.6816694,36.3003558 17.6136521,36.3431348 17.5337317,36.3711819 C17.4538114,36.3989457 17.3653888,36.4128277 17.2684642,36.4128277 C17.1664382,36.4128277 17.0720641,36.4051784 16.9859089,36.38988 C16.8997536,36.3748649 16.816149,36.353617 16.7353784,36.3267031 L16.7353784,34.505056 L17.0587441,34.4537779 L17.0587441,35.242214 C17.0998379,35.1991517 17.1508509,35.1594891 17.2120665,35.1237928 C17.2729986,35.0880964 17.3449836,35.0699649 17.4274546,35.0699649 C17.495472,35.0699649 17.559805,35.0832802 17.619887,35.1093442 C17.6799689,35.1354082 17.7321156,35.1745042 17.7760434,35.2277655 C17.8196879,35.2801768 17.8545467,35.3467533 17.8794864,35.4266451 C17.9047095,35.506537 17.9171794,35.6011606 17.9171794,35.7105161 C17.9171794,35.8309205 17.9015921,35.9348932 17.870134,36.0227175 L17.870134,36.0227175 Z"></path>
            <path fill="#66737E" id="Fill-49" d="M18.7951696,36.4666555 C18.7662622,36.5473972 18.7348042,36.6148237 18.7007956,36.6686515 C18.6667869,36.722196 18.629094,36.7652583 18.5877168,36.7978383 C18.5463396,36.830135 18.5007113,36.8527993 18.4505485,36.866398 C18.4001023,36.8799966 18.3437046,36.8865126 18.2807886,36.8865126 C18.2521647,36.8865126 18.2289254,36.8848127 18.2107875,36.8825463 C18.1929329,36.8797133 18.1767788,36.8765969 18.1623251,36.8726306 L18.1192475,36.6037748 C18.1407863,36.6094409 18.1637421,36.6136905 18.1878316,36.6173734 C18.2122045,36.6210564 18.2396948,36.6227562 18.2700192,36.6227562 C18.3164977,36.6227562 18.3584417,36.611424 18.3952844,36.5893263 C18.4321272,36.5666619 18.4601843,36.5323821 18.4803061,36.4859202 L18.5097803,36.3995123 L18.0384769,35.121243 L18.3748792,35.0781808 L18.6767061,36.0040194 L18.9671967,35.0971621 L19.2877284,35.0971621 L18.7951696,36.4666555"></path>
            <path fill="#66737E" id="Fill-50" d="M21.2041164,36.3847805 C21.1125764,36.4139609 21.0139513,36.428976 20.9079576,36.428976 C20.77334,36.428976 20.6517591,36.4063117 20.5432148,36.3604163 C20.4346704,36.3148043 20.3422802,36.2502109 20.2657608,36.1666362 C20.1898081,36.0830614 20.1308597,35.9824883 20.0894825,35.8640671 C20.0483887,35.7456459 20.0274167,35.6144759 20.0274167,35.4711239 C20.0274167,35.3274886 20.0489556,35.196602 20.0908996,35.0781808 C20.133127,34.9597595 20.1929255,34.8583366 20.2700118,34.7739119 C20.3470981,34.6897705 20.4397717,34.6243271 20.5471824,34.5775819 C20.6548765,34.53112 20.7741902,34.5078891 20.9051236,34.5078891 C21.0128177,34.5078891 21.1094589,34.5197878 21.194764,34.5438687 C21.2797857,34.5682329 21.3565885,34.6008129 21.4248893,34.6421753 L21.3735929,34.9787409 C21.3126607,34.9328456 21.2446434,34.8943162 21.1703911,34.8637193 C21.0958555,34.8325559 21.0128177,34.8169741 20.9215611,34.8169741 C20.7563357,34.8169741 20.6268194,34.8753348 20.5324453,34.9917729 C20.4383547,35.108211 20.3913094,35.2674281 20.3913094,35.4694241 C20.3913094,35.6756697 20.440622,35.83517 20.5389637,35.9493417 C20.6378722,36.0626634 20.7699392,36.1196076 20.9348812,36.1196076 C21.0210364,36.1196076 21.1029406,36.1051591 21.1811605,36.0765454 C21.2590971,36.0476483 21.3341995,36.0099688 21.4059011,35.9635069 L21.4546469,36.2700422 C21.3789776,36.3167875 21.2956564,36.3547503 21.2041164,36.3847805"></path>
            <path fill="#66737E" id="Fill-51" d="M22.4610198,35.7484789 C22.3683462,35.7589612 22.2921101,35.7742596 22.2323116,35.7938076 C22.172513,35.8136389 22.1257511,35.8357366 22.0920258,35.8598175 C22.0580172,35.8838984 22.0344945,35.910529 22.020891,35.9391427 C22.007571,35.9680398 22.0007693,35.9975034 22.0007693,36.0281003 C22.0007693,36.0748455 22.0146561,36.1113918 22.0424299,36.138589 C22.0702036,36.1652196 22.1087468,36.1788182 22.1586261,36.1788182 C22.2138902,36.1788182 22.2671704,36.1666362 22.3181834,36.142272 C22.3686296,36.1181911 22.4165251,36.083628 22.4610198,36.0388659 L22.4610198,35.7484789 Z M22.5072149,36.3969626 L22.480008,36.22698 C22.4278614,36.2827909 22.3669292,36.3292529 22.296928,36.3669323 C22.2269268,36.4046118 22.1433222,36.4235932 22.0466809,36.4235932 C21.9353026,36.4235932 21.8460299,36.3918631 21.7785793,36.3281196 C21.7114122,36.2646595 21.6779704,36.1759852 21.6779704,36.0632301 C21.6779704,35.9051462 21.7423034,35.7881415 21.8715363,35.7119326 C22.0007693,35.6354405 22.1974527,35.5850123 22.4610198,35.5597982 L22.4610198,35.5221187 C22.4610198,35.4524258 22.4420316,35.4025643 22.4032051,35.372534 C22.3649453,35.3433536 22.3096813,35.3283385 22.2379797,35.3283385 C22.1628772,35.3283385 22.0894752,35.3382542 22.0177736,35.3580855 C21.946072,35.3776335 21.8752206,35.4028476 21.8055029,35.4334444 L21.7649759,35.1750708 C21.8403617,35.1447573 21.9191485,35.1192599 22.0016195,35.0999952 C22.0840905,35.0798806 22.1773309,35.0699649 22.2813407,35.0699649 C22.4496836,35.0699649 22.575799,35.1036781 22.6594036,35.1711046 C22.7427249,35.2382477 22.7841021,35.3498696 22.7841021,35.5059704 L22.7841021,36.3969626 L22.5072149,36.3969626 L22.5072149,36.3969626 Z"></path>
            <path fill="#66737E" id="Fill-52" d="M23.8905172,36.3969626 L23.8905172,35.5464829 C23.8905172,35.4889721 23.8774805,35.4427935 23.8514072,35.4076637 C23.8253339,35.372534 23.7828231,35.3555357 23.7235913,35.3555357 C23.6714447,35.3555357 23.6207151,35.3702676 23.5714026,35.3997312 C23.52209,35.4294782 23.4741945,35.4691408 23.427716,35.5192857 L23.427716,36.3969626 L23.1043503,36.3969626 L23.1043503,35.0971621 L23.3789702,35.0971621 L23.4084444,35.2798935 C23.46966,35.222666 23.5351267,35.1730877 23.6051278,35.1320086 C23.675129,35.0906461 23.7541991,35.0699649 23.8417714,35.0699649 C23.9639192,35.0699649 24.0563094,35.1045281 24.1192254,35.173371 C24.1821414,35.2424973 24.2135994,35.3382542 24.2135994,35.460075 L24.2135994,36.3969626 L23.8905172,36.3969626"></path>
            <path fill="#66737E" id="Fill-53" d="M25.2474627,35.7484789 C25.1545057,35.7589612 25.0782696,35.7742596 25.0184711,35.7938076 C24.9586725,35.8136389 24.9119106,35.8357366 24.8781853,35.8598175 C24.8441767,35.8838984 24.820654,35.910529 24.8070506,35.9391427 C24.7937305,35.9680398 24.7869288,35.9975034 24.7869288,36.0281003 C24.7869288,36.0748455 24.8008156,36.1113918 24.8285894,36.138589 C24.8563631,36.1652196 24.8949063,36.1788182 24.9447856,36.1788182 C25.0000497,36.1788182 25.0533299,36.1666362 25.1043429,36.142272 C25.1547891,36.1181911 25.2026846,36.083628 25.2474627,36.0388659 L25.2474627,35.7484789 Z M25.2933744,36.3969626 L25.2661675,36.22698 C25.2140209,36.2827909 25.1530887,36.3292529 25.0830875,36.3669323 C25.0130864,36.4046118 24.9294817,36.4235932 24.8328405,36.4235932 C24.7214621,36.4235932 24.6324728,36.3918631 24.5647388,36.3281196 C24.4975717,36.2646595 24.4641299,36.1759852 24.4641299,36.0632301 C24.4641299,35.9051462 24.5284629,35.7881415 24.6576959,35.7119326 C24.7869288,35.6354405 24.9836122,35.5850123 25.2474627,35.5597982 L25.2474627,35.5221187 C25.2474627,35.4524258 25.2281911,35.4025643 25.1893646,35.372534 C25.1511048,35.3433536 25.0958408,35.3283385 25.0241392,35.3283385 C24.9490367,35.3283385 24.8756347,35.3382542 24.8039331,35.3580855 C24.7322315,35.3776335 24.6613801,35.4028476 24.5916624,35.4334444 L24.5511354,35.1750708 C24.6265212,35.1447573 24.705308,35.1192599 24.787779,35.0999952 C24.87025,35.0798806 24.9637738,35.0699649 25.0675002,35.0699649 C25.2358431,35.0699649 25.3619585,35.1036781 25.4455632,35.1711046 C25.5288844,35.2382477 25.5702616,35.3498696 25.5702616,35.5059704 L25.5702616,36.3969626 L25.2933744,36.3969626 L25.2933744,36.3969626 Z"></path>
            <path fill="#66737E" id="Fill-54" d="M26.6956648,35.3983147 C26.6540042,35.3787667 26.6157445,35.3643182 26.579752,35.3555357 C26.5440429,35.34647 26.4981312,35.3416538 26.4423003,35.3416538 C26.3564284,35.3416538 26.2858605,35.3765003 26.2311632,35.4453432 C26.1764659,35.5144695 26.1489756,35.6207086 26.1489756,35.7643439 C26.1489756,35.8915476 26.1727817,35.9856047 26.2203938,36.0453819 C26.2680059,36.1057257 26.3275211,36.135756 26.3995061,36.135756 C26.4587378,36.135756 26.5120181,36.1196076 26.5593468,36.0873109 C26.6069589,36.0550142 26.6525872,36.0116687 26.6956648,35.9581241 L26.6956648,35.3983147 Z M26.7412931,36.3969626 L26.7143696,36.2164977 C26.6676077,36.2720254 26.612627,36.3204704 26.5485774,36.3618329 C26.4850945,36.402912 26.4074414,36.4235932 26.3159015,36.4235932 C26.2478841,36.4235932 26.1841179,36.4105612 26.1248861,36.3847805 C26.0656544,36.3587165 26.0135078,36.3196205 25.9684463,36.2674925 C25.9236682,36.2153645 25.8888094,36.1490713 25.8635863,36.0683295 C25.8383632,35.9875878 25.8261767,35.8926808 25.8261767,35.7833253 C25.8261767,35.6632043 25.8411972,35.558665 25.871805,35.4694241 C25.9021294,35.3810331 25.9440734,35.3082239 25.9970703,35.2518463 C26.0497837,35.1949022 26.1104325,35.1529731 26.1787332,35.1252093 C26.2467505,35.0974455 26.3187355,35.0835635 26.393838,35.0835635 C26.456754,35.0835635 26.5128683,35.0880964 26.5621808,35.0971621 C26.6114934,35.1059446 26.6559881,35.1175601 26.6956648,35.1320086 L26.6956648,34.505056 L27.0184637,34.4537779 L27.0184637,36.3969626 L26.7412931,36.3969626 L26.7412931,36.3969626 Z"></path>
            <path fill="#66737E" id="Fill-55" d="M27.4080962,36.3969626 L28.247566,36.3969626 L28.247566,35.0971621 L27.4080962,35.0971621 L27.4080962,36.3969626 Z M28.1842375,34.828023 C28.085563,34.8620195 27.9692154,34.8790178 27.8344585,34.8790178 C27.6945468,34.8790178 27.5752537,34.8620195 27.4773156,34.828023 C27.3793774,34.7937432 27.3307766,34.749831 27.3307766,34.6960032 C27.3307766,34.6404755 27.3793774,34.5951468 27.4773156,34.5600171 C27.5752537,34.5248873 27.6945468,34.5078891 27.8344585,34.5078891 C27.9692154,34.5078891 28.085563,34.5248873 28.1842375,34.5600171 C28.2821757,34.5951468 28.3307766,34.6404755 28.3307766,34.6960032 C28.3307766,34.749831 28.2821757,34.7937432 28.1842375,34.828023 L28.1842375,34.828023 Z"></path>
            <path fill="#66737E" id="Fill-56" d="M28.7359011,35.7484789 C28.6432275,35.7589612 28.566708,35.7742596 28.5069094,35.7938076 C28.4473943,35.8136389 28.4003489,35.8357366 28.3666237,35.8598175 C28.332615,35.8838984 28.3090924,35.910529 28.2954889,35.9391427 C28.2821688,35.9680398 28.2756505,35.9975034 28.2756505,36.0281003 C28.2756505,36.0748455 28.2895374,36.1113918 28.3173111,36.138589 C28.3448015,36.1652196 28.383628,36.1788182 28.4335074,36.1788182 C28.4887715,36.1788182 28.5420517,36.1666362 28.5927813,36.142272 C28.6435109,36.1181911 28.6914064,36.083628 28.7359011,36.0388659 L28.7359011,35.7484789 Z M28.7818127,36.3969626 L28.7546058,36.22698 C28.7027426,36.2827909 28.6418104,36.3292529 28.5718093,36.3669323 C28.5018081,36.4046118 28.4182035,36.4235932 28.3212788,36.4235932 C28.2101838,36.4235932 28.1209111,36.3918631 28.0534606,36.3281196 C27.9862935,36.2646595 27.9525682,36.1759852 27.9525682,36.0632301 C27.9525682,35.9051462 28.0171847,35.7881415 28.1464176,35.7119326 C28.2756505,35.6354405 28.4720505,35.5850123 28.7359011,35.5597982 L28.7359011,35.5221187 C28.7359011,35.4524258 28.7169129,35.4025643 28.6780863,35.372534 C28.6395432,35.3433536 28.5845625,35.3283385 28.5128609,35.3283385 C28.4374751,35.3283385 28.3643564,35.3382542 28.2926548,35.3580855 C28.2209533,35.3776335 28.1501019,35.4028476 28.0803841,35.4334444 L28.0398571,35.1750708 C28.115243,35.1447573 28.1940297,35.1192599 28.2765007,35.0999952 C28.3589717,35.0798806 28.4522121,35.0699649 28.5559386,35.0699649 C28.7245648,35.0699649 28.8503969,35.1036781 28.9340015,35.1711046 C29.0173227,35.2382477 29.0589833,35.3498696 29.0589833,35.5059704 L29.0589833,36.3969626 L28.7818127,36.3969626 L28.7818127,36.3969626 Z"></path>
            <path fill="#66737E" id="Fill-57" d="M30.1653984,36.3969626 L30.1653984,35.5464829 C30.1653984,35.4889721 30.1520784,35.4427935 30.126005,35.4076637 C30.1002151,35.372534 30.0574209,35.3555357 29.9981892,35.3555357 C29.946326,35.3555357 29.8955964,35.3702676 29.8462838,35.3997312 C29.7966879,35.4294782 29.7487923,35.4691408 29.7023138,35.5192857 L29.7023138,36.3969626 L29.3792315,36.3969626 L29.3792315,35.0971621 L29.6535681,35.0971621 L29.6833257,35.2798935 C29.7445412,35.222666 29.8100079,35.1730877 29.8797257,35.1320086 C29.9497268,35.0906461 30.0290804,35.0699649 30.1166527,35.0699649 C30.2388004,35.0699649 30.3311906,35.1045281 30.3941067,35.173371 C30.4567393,35.2424973 30.4884807,35.3382542 30.4884807,35.460075 L30.4884807,36.3969626 L30.1653984,36.3969626"></path>
            <path fill="#66737E" id="Fill-58" d="M31.6419411,36.3148043 C31.5532352,36.3856304 31.4225852,36.4210435 31.2502747,36.4210435 C31.1550504,36.4210435 31.0626602,36.4085781 30.9731041,36.383364 C30.8832646,36.3581499 30.8070285,36.3284029 30.7441125,36.2944064 L30.7871901,36.0252673 C30.8571912,36.0720125 30.9334273,36.1091254 31.0161817,36.1371725 C31.0986527,36.1649363 31.1802735,36.1788182 31.2610441,36.1788182 C31.3310453,36.1788182 31.3843255,36.1666362 31.4211682,36.142272 C31.4580109,36.1181911 31.4764323,36.0853278 31.4764323,36.044532 C31.4764323,36.0210177 31.4721812,36.0006198 31.4642458,35.9836215 C31.4563105,35.9666233 31.4424236,35.9513248 31.4225852,35.9380095 C31.4027468,35.9244109 31.3761067,35.9119455 31.3415313,35.90033 C31.3075226,35.8887146 31.2647284,35.8765325 31.2125818,35.8640671 C31.1335116,35.8439525 31.0657777,35.8224213 31.00938,35.7991904 C30.9526989,35.7759594 30.9065038,35.7487622 30.8705113,35.7173154 C30.8348022,35.6858686 30.8084455,35.6490391 30.7911578,35.6068267 C30.7741534,35.5646144 30.7656513,35.5139029 30.7656513,35.4546923 C30.7656513,35.3416538 30.8075953,35.2498632 30.8909165,35.1790371 C30.9745211,35.108211 31.0924178,35.072798 31.24489,35.072798 C31.4152167,35.072798 31.5668386,35.1031115 31.6997558,35.164022 L31.6566782,35.4334444 C31.5920617,35.3974648 31.5234776,35.368851 31.4506424,35.3473199 C31.3780906,35.3255055 31.3095064,35.3150232 31.24489,35.3150232 C31.1839578,35.3150232 31.1386129,35.3255055 31.1088553,35.3473199 C31.0793812,35.368851 31.0646441,35.3974648 31.0646441,35.4334444 C31.0646441,35.4512926 31.0683283,35.4668744 31.0754135,35.480473 C31.0822152,35.4937883 31.0949685,35.5071036 31.1131064,35.5192857 C31.1306776,35.5320344 31.1556172,35.5442164 31.1870753,35.5558319 C31.2185333,35.5674474 31.25821,35.5796295 31.3066724,35.5920949 C31.3911272,35.613626 31.4628288,35.6360071 31.5220606,35.659238 C31.5812923,35.682469 31.6297547,35.7105161 31.6674476,35.7428128 C31.7054239,35.7748262 31.7323474,35.8130723 31.7496352,35.8572678 C31.7666395,35.90118 31.7751417,35.9535913 31.7751417,36.0145017 C31.7751417,36.1436885 31.730647,36.2439782 31.6419411,36.3148043"></path>
            <path fill="#66737E" id="Fill-59" d="M40.8322148,44.7272444 L40.9710835,44.7272444 C41.132908,44.7272444 41.2644082,44.6731332 41.2644082,44.5419633 C41.2644082,44.4258085 41.1796699,44.3487497 40.9943227,44.3487497 C40.916953,44.3487497 40.863106,44.3569656 40.8322148,44.3640482 L40.8322148,44.7272444 Z M40.8237126,45.4459876 L40.5303879,45.4459876 L40.5303879,44.1787671 C40.6460173,44.1558194 40.8086921,44.140521 41.017562,44.140521 C41.2570396,44.140521 41.3650171,44.1787671 41.4574073,44.2331615 C41.5274085,44.2869894 41.5812555,44.3875624 41.5812555,44.5110831 C41.5812555,44.6499023 41.4727112,44.7581245 41.318822,44.8043032 L41.318822,44.8198849 C41.44182,44.8666301 41.5112544,44.958704 41.5506477,45.12897 C41.5891909,45.3219002 41.6124301,45.3992423 41.6430379,45.4459876 L41.3261906,45.4459876 C41.2876474,45.3992423 41.2644082,45.2836542 41.225865,45.1366192 C41.2023424,44.9978 41.1258229,44.9357564 40.9634315,44.9357564 L40.8237126,44.9357564 L40.8237126,45.4459876 Z M40.0443475,44.7810722 C40.0443475,45.3454145 40.461237,45.7930354 41.0328659,45.7930354 C41.5891909,45.7930354 41.998145,45.3454145 41.998145,44.789288 C41.998145,44.2249457 41.5891909,43.7696756 41.0246471,43.7696756 C40.461237,43.7696756 40.0443475,44.2249457 40.0443475,44.7810722 Z M42.3226443,44.7810722 C42.3226443,45.4998154 41.7592342,46.0633078 41.0246471,46.0633078 C40.2988456,46.0633078 39.7195648,45.4998154 39.7195648,44.7810722 C39.7195648,44.0787607 40.2988456,43.514985 41.0246471,43.514985 C41.7592342,43.514985 42.3226443,44.0787607 42.3226443,44.7810722 L42.3226443,44.7810722 Z"></path>
            <path fill="#66737E" id="Fill-60" d="M22.0466809,39.7722509 L22.0466809,39.5456074 L22.6296461,38.9506682 C22.6922787,38.8832418 22.739324,38.8240312 22.7704986,38.773603 C22.80224,38.7231748 22.8175439,38.6679305 22.8175439,38.6084365 C22.8175439,38.5330776 22.7960051,38.4764167 22.7526441,38.4387372 C22.7089996,38.4010577 22.6466504,38.381793 22.5647462,38.381793 C22.484259,38.381793 22.408023,38.3987913 22.3357546,38.4325045 C22.2632028,38.4662177 22.193485,38.5098466 22.1260345,38.5628245 L22.0874913,38.2880193 C22.1518244,38.238441 22.2257932,38.1967953 22.3102481,38.163932 C22.3947029,38.1310687 22.4907774,38.114637 22.5984715,38.114637 C22.7639803,38.114637 22.8929298,38.1559995 22.98532,38.2387243 C23.0774268,38.3214492 23.1236219,38.4342043 23.1236219,38.5772731 C23.1236219,38.6299677 23.1176703,38.6792626 23.1057673,38.724308 C23.0935809,38.7693534 23.0751595,38.8129823 23.0505032,38.8554779 C23.0255636,38.8979736 22.9938221,38.9410359 22.9561292,38.9840981 C22.9187197,39.027727 22.8745084,39.0744722 22.8249125,39.1243338 L22.4295618,39.5167104 L23.1139861,39.5167104 L23.1528126,39.7722509 L22.0466809,39.7722509"></path>
            <path fill="#66737E" id="Fill-61" d="M24.2623452,38.5132463 C24.2053807,38.4112567 24.1214926,38.3602619 24.0103977,38.3602619 C23.8998695,38.3602619 23.8148479,38.4112567 23.7564664,38.5132463 C23.6978014,38.6155191 23.6683272,38.763404 23.6683272,38.9580341 C23.6683272,39.1520976 23.6978014,39.3005491 23.7564664,39.4022554 C23.8148479,39.504245 23.8998695,39.5552397 24.0103977,39.5552397 C24.1214926,39.5552397 24.2053807,39.504245 24.2623452,39.4022554 C24.3193097,39.3005491 24.3479336,39.1520976 24.3479336,38.9580341 C24.3479336,38.763404 24.3193097,38.6155191 24.2623452,38.5132463 Z M24.6117842,39.318114 C24.5806096,39.4232199 24.5369651,39.5121775 24.480284,39.5844201 C24.4241697,39.6566627 24.355869,39.7110572 24.2756652,39.74817 C24.1954615,39.7849996 24.107039,39.8034144 24.0103977,39.8034144 C23.9126228,39.8034144 23.8236335,39.7849996 23.7442799,39.74817 C23.6649264,39.7110572 23.5963422,39.6566627 23.5393777,39.5844201 C23.4824132,39.5121775 23.438202,39.4232199 23.406744,39.318114 C23.3755694,39.2127248 23.3596986,39.0926037 23.3596986,38.9580341 C23.3596986,38.8228979 23.3755694,38.7027769 23.406744,38.597671 C23.438202,38.492565 23.4824132,38.4038908 23.5393777,38.3316482 C23.5963422,38.2591222 23.6649264,38.2047278 23.7442799,38.1676149 C23.8236335,38.1307854 23.9126228,38.1120873 24.0103977,38.1120873 C24.107039,38.1120873 24.1954615,38.1307854 24.2756652,38.1676149 C24.355869,38.2047278 24.4241697,38.2591222 24.480284,38.3316482 C24.5369651,38.4038908 24.5806096,38.492565 24.6117842,38.597671 C24.6432422,38.7027769 24.6588295,38.8228979 24.6588295,38.9580341 C24.6588295,39.0926037 24.6432422,39.2127248 24.6117842,39.318114 L24.6117842,39.318114 Z"></path>
            <path fill="#66737E" id="Fill-62" d="M24.8495614,39.7722509 L24.8495614,39.5456074 L25.4328099,38.9506682 C25.4951591,38.8832418 25.5422044,38.8240312 25.5736624,38.773603 C25.6051205,38.7231748 25.6207078,38.6679305 25.6207078,38.6084365 C25.6207078,38.5330776 25.5991689,38.4764167 25.5555245,38.4387372 C25.5121634,38.4010577 25.4495308,38.381793 25.3676266,38.381793 C25.2874229,38.381793 25.2111868,38.3987913 25.1389184,38.4325045 C25.0663666,38.4662177 24.9966488,38.5098466 24.9289149,38.5628245 L24.8906552,38.2880193 C24.9547048,38.238441 25.0289571,38.1967953 25.1134119,38.163932 C25.1978667,38.1310687 25.2939412,38.114637 25.4013519,38.114637 C25.5668607,38.114637 25.6958102,38.1559995 25.7884838,38.2387243 C25.8805906,38.3214492 25.9267857,38.4342043 25.9267857,38.5772731 C25.9267857,38.6299677 25.9205508,38.6792626 25.9086477,38.724308 C25.8967447,38.7693534 25.8783234,38.8129823 25.8533837,38.8554779 C25.828444,38.8979736 25.796986,38.9410359 25.759293,38.9840981 C25.7216001,39.027727 25.6776723,39.0744722 25.6277929,39.1243338 L25.2327256,39.5167104 L25.9171499,39.5167104 L25.9556931,39.7722509 L24.8495614,39.7722509"></path>
            <polyline points="26.4714911 39.7722509 26.4714911 38.4421369 26.138773 38.5701904 26.1050478 38.3265487 26.5074836 38.1412676 26.7798363 38.1412676 26.7798363 39.7722509 26.4714911 39.7722509" fill="#66737E" id="Fill-63"></polyline>
        </g>
        <g fill-rule="nonzero" fill="#243746" transform="translate(64.475000, 63.191637)" id="Most-Trusted-Mattres">
            <path id="Path" d="M42.875,16.6 C42.5,12.775 41.95,4.525 41.875,3.425 C41.8,2.35 42.55,1.525 43.375,1.4 L43.375,1.05 L38.4,1.05 C38.4,1.8 38.175,3.675 37.6,5.675 L34.65,15.85 L30.575,1.05 L25.075,1.05 L25.075,1.4 C26.375,1.525 27.55,2.45 27.4,3.975 L26.3,16.125 C26.125,17.95 24.675,18.6 23.925,18.7 L23.925,19.05 L29.225,19.05 L29.225,18.7 C28.475,18.6 26.725,18.225 26.9,16.1 L27.875,4.225 L32.425,20.125 C33.3,19.325 34.325,18.725 35.3,18.225 C35.2,17.875 35.125,16.75 35.475,15.175 C35.8,13.75 37.6,7.575 38.55,4.375 L39.4,16.7 C39.475,17.925 38.75,18.575 38.05,18.7 L38.05,19.05 L44.225,19.05 L44.225,18.7 C43.475,18.575 43,17.925 42.875,16.6 Z"></path>
            <path id="Shape" d="M52.275,19.375 C55.875,19.375 58.8,16.4 58.8,12.8 C58.8,9.2 55.875,6.225 52.275,6.225 C48.675,6.225 45.775,9.2 45.775,12.8 C45.775,16.4 48.675,19.375 52.275,19.375 Z M53.275,18.8 C50.875,18.8 49.175,13.9 49.175,10.775 C49.175,8.475 49.95,6.825 51.25,6.825 C53.625,6.825 55.375,11.625 55.375,14.725 C55.375,17.075 54.575,18.8 53.275,18.8 Z"></path>
            <path id="Path" d="M65.775,19.375 C68.375,19.375 70.45,17.9 70.45,15.7 C70.45,10.35 62.85,10.975 62.6,8.5 C62.475,7.15 63.45,6.675 64.55,6.675 C66.425,6.675 68.5,8.675 69.4,10.825 L69.85,10.825 L68.925,6.225 C67.275,7.25 66.4,6.225 64.65,6.225 C62.5,6.225 60.575,7.475 60.575,9.65 C60.575,14.65 67.875,13.65 67.875,16.675 C67.875,18.125 67,18.925 65.75,18.925 C63.25,18.925 61.45,16.3 60.675,14.3 L60.225,14.3 L61.325,19.375 C63.175,18.575 63.75,19.375 65.775,19.375 Z"></path>
            <path id="Path" d="M79.85,6.075 C78.875,6.375 77.575,6.55 76.575,6.55 L76.575,1.85 L76.175,1.85 C75.525,3.725 73.5,6.05 71.5,6.55 L71.5,7.175 L73.35,7.175 L73.35,15.65 C73.35,18.25 74.65,19.35 76.175,19.35 C78.075,19.35 79.175,18.375 79.425,18.1 L79.425,17.725 C78.975,18.075 76.575,18.875 76.575,15.35 L76.575,7.175 L79.7,7.175 L79.85,6.075 Z"></path>
            <path id="Path" d="M102.425,0.325 C101.9,0.65 100.525,1.05 98.825,1.05 L92.275,1.05 C90.375,1.05 89.3,0.65 88.675,0.325 L87.575,6.325 L88.05,6.325 C88.55,4.35 89.55,1.475 93.325,1.475 L93.775,1.475 L93.775,16.4 C93.775,18.05 92.925,18.6 92.425,18.7 L92.425,19.05 L98.65,19.05 L98.65,18.675 C98.15,18.575 97.325,18.05 97.325,16.4 L97.325,1.475 L97.775,1.475 C101.55,1.475 102.5,4.35 103.05,6.325 L103.525,6.325 L102.425,0.325 Z"></path>
            <path id="Path" d="M112.2,6.225 C110.575,6.225 109.4,7.3 108.625,9.4 L108.6,9.425 L109.05,6.1 L104.45,7.025 L104.45,7.4 C104.95,7.525 105.8,7.95 105.8,9.55 L105.8,16.4 C105.8,17.9 104.95,18.625 104.45,18.725 L104.45,19.05 L110.325,19.05 L110.325,18.7 C109.825,18.6 109.025,18.05 109.025,16.4 L109.025,9.65 C109.4,8.8 109.975,8.05 110.45,8.05 C111.325,8.05 111.025,9.675 112.525,9.675 C113.375,9.675 114.125,9 114.125,8.025 C114.125,6.925 113.275,6.225 112.2,6.225 Z"></path>
            <path id="Path" d="M120.175,19.375 C122.025,19.375 123.725,18.05 124.375,16.05 L124.125,19.05 L128.675,19.05 L128.675,18.7 C128.175,18.6 127.375,18.2 127.375,16.4 L127.375,6.1 L122.8,7 L122.8,7.375 C123.3,7.375 124.125,7.8 124.125,9.45 L124.125,14.8 C124.125,15.95 123.35,17.625 122.025,17.625 C120.525,17.625 119.75,16.3 119.75,14.05 L119.75,6.1 L115.175,7 L115.175,7.375 C115.675,7.375 116.525,7.9 116.525,9.45 L116.525,14.05 C116.525,17.2 117.425,19.375 120.175,19.375 Z"></path>
            <path id="Path" d="M135.65,19.375 C138.25,19.375 140.325,17.9 140.325,15.7 C140.325,10.35 132.725,10.975 132.475,8.5 C132.35,7.15 133.325,6.675 134.425,6.675 C136.3,6.675 138.375,8.675 139.275,10.825 L139.725,10.825 L138.8,6.225 C137.15,7.25 136.275,6.225 134.525,6.225 C132.375,6.225 130.45,7.475 130.45,9.65 C130.45,14.65 137.75,13.65 137.75,16.675 C137.75,18.125 136.875,18.925 135.625,18.925 C133.125,18.925 131.325,16.3 130.55,14.3 L130.1,14.3 L131.2,19.375 C133.05,18.575 133.625,19.375 135.65,19.375 Z"></path>
            <path id="Path" d="M149.725,6.075 C148.75,6.375 147.45,6.55 146.45,6.55 L146.45,1.85 L146.05,1.85 C145.4,3.725 143.375,6.05 141.375,6.55 L141.375,7.175 L143.225,7.175 L143.225,15.65 C143.225,18.25 144.525,19.35 146.05,19.35 C147.95,19.35 149.05,18.375 149.3,18.1 L149.3,17.725 C148.85,18.075 146.45,18.875 146.45,15.35 L146.45,7.175 L149.575,7.175 L149.725,6.075 Z"></path>
            <path id="Shape" d="M158.075,17.1 C155.2,17.1 153.85,14.675 153.475,12.225 L161.725,10.55 C161.2,7.95 159,6.225 156.375,6.225 C153,6.225 150.275,9.125 150.275,12.725 C150.275,16.325 153,19.375 156.375,19.375 C158.975,19.375 160.9,17.75 161.55,15.6 L161.55,14.925 C160.7,16.575 159.1,17.1 158.075,17.1 Z M155.15,6.825 C156.525,6.825 157.75,8.525 157.75,9.85 C157.75,10.425 157.475,10.875 156.75,11.025 L153.4,11.75 C153.375,11.4 153.35,11.05 153.35,10.725 C153.35,9.525 153.675,6.825 155.15,6.825 Z"></path>
            <path id="Shape" d="M174.85,0 L170.275,0.9 L170.275,1.275 C170.775,1.275 171.625,1.85 171.625,3.45 L171.625,7.475 C170.825,6.75 169.75,6.225 168.5,6.225 C165.275,6.225 162.9,9.25 162.9,12.825 C162.9,16.425 165.025,19.375 168.375,19.375 C169.875,19.375 171.05,18.7 172.05,17.175 L171.775,19.05 L176.2,19.05 L176.2,18.675 C175.7,18.575 174.85,18 174.85,16.4 L174.85,0 Z M169.35,18.425 C167.15,18.425 166.175,15.325 166.175,11.75 C166.175,9.275 166.55,6.775 168.625,6.775 C169.95,6.775 171.025,7.825 171.625,9.25 L171.625,16.85 C171,17.85 170.2,18.425 169.35,18.425 Z"></path>
            <path id="Path" d="M18.95,43.6 C18.575,39.775 18.025,31.525 17.95,30.425 C17.875,29.35 18.625,28.525 19.45,28.4 L19.45,28.05 L14.475,28.05 C14.475,28.8 14.25,30.675 13.675,32.675 L10.725,42.85 L6.65,28.05 L1.15,28.05 L1.15,28.4 C2.45,28.525 3.625,29.45 3.475,30.975 L2.375,43.125 C2.2,44.95 0.75,45.6 0,45.7 L0,46.05 L5.3,46.05 L5.3,45.7 C4.55,45.6 2.8,45.225 2.975,43.1 L3.95,31.225 L8.5,47.125 C9.375,46.325 10.4,45.725 11.375,45.225 C11.275,44.875 11.2,43.75 11.55,42.175 C11.875,40.75 13.675,34.575 14.625,31.375 L15.475,43.7 C15.55,44.925 14.825,45.575 14.125,45.7 L14.125,46.05 L20.3,46.05 L20.3,45.7 C19.55,45.575 19.075,44.925 18.95,43.6 Z"></path>
            <path id="Shape" d="M25.4,46.375 C26.7,46.375 28.375,45.75 29.275,44.2 C29.325,45.425 30.2,46.375 31.65,46.375 C32.5,46.375 33.65,45.725 34.1,44.925 L34.1,44.55 C32.825,45.175 32.425,44.425 32.425,42.875 L32.425,38.825 C32.425,35 30.975,33.225 27.125,33.225 C24.675,33.225 22.475,34.925 22.475,36.7 C22.475,37.65 23,38.425 24,38.425 C25.025,38.425 25.725,37.85 25.725,37.05 C25.725,36.15 25.35,35.975 25.35,35.175 C25.35,34.6 25.725,33.725 26.925,33.725 C28.175,33.725 29.25,34.625 29.25,36.9 L29.25,38.7 C27.4,39.225 21.85,39.825 21.85,43.225 C21.85,45.425 23.325,46.375 25.4,46.375 Z M27.05,44.85 C25.925,44.85 25.15,44.075 25.15,42.6 C25.15,40.525 27.5,39.925 29.25,39.15 L29.25,42.625 C29.25,44.1 27.925,44.85 27.05,44.85 Z"></path>
            <path id="Path" d="M43.125,33.075 C42.15,33.375 40.85,33.55 39.85,33.55 L39.85,28.85 L39.45,28.85 C38.8,30.725 36.775,33.05 34.775,33.55 L34.775,34.175 L36.625,34.175 L36.625,42.65 C36.625,45.25 37.925,46.35 39.45,46.35 C41.35,46.35 42.45,45.375 42.7,45.1 L42.7,44.725 C42.25,45.075 39.85,45.875 39.85,42.35 L39.85,34.175 L42.975,34.175 L43.125,33.075 Z"></path>
            <path id="Path" d="M52.15,33.075 C51.175,33.375 49.875,33.55 48.875,33.55 L48.875,28.85 L48.475,28.85 C47.825,30.725 45.8,33.05 43.8,33.55 L43.8,34.175 L45.65,34.175 L45.65,42.65 C45.65,45.25 46.95,46.35 48.475,46.35 C50.375,46.35 51.475,45.375 51.725,45.1 L51.725,44.725 C51.275,45.075 48.875,45.875 48.875,42.35 L48.875,34.175 L52,34.175 L52.15,33.075 Z"></path>
            <path id="Path" d="M61.075,33.225 C59.45,33.225 58.275,34.3 57.5,36.4 L57.475,36.425 L57.925,33.1 L53.325,34.025 L53.325,34.4 C53.825,34.525 54.675,34.95 54.675,36.55 L54.675,43.4 C54.675,44.9 53.825,45.625 53.325,45.725 L53.325,46.05 L59.2,46.05 L59.2,45.7 C58.7,45.6 57.9,45.05 57.9,43.4 L57.9,36.65 C58.275,35.8 58.85,35.05 59.325,35.05 C60.2,35.05 59.9,36.675 61.4,36.675 C62.25,36.675 63,36 63,35.025 C63,33.925 62.15,33.225 61.075,33.225 Z"></path>
            <path id="Shape" d="M71.35,44.1 C68.475,44.1 67.125,41.675 66.75,39.225 L75,37.55 C74.475,34.95 72.275,33.225 69.65,33.225 C66.275,33.225 63.55,36.125 63.55,39.725 C63.55,43.325 66.275,46.375 69.65,46.375 C72.25,46.375 74.175,44.75 74.825,42.6 L74.825,41.925 C73.975,43.575 72.375,44.1 71.35,44.1 Z M68.425,33.825 C69.8,33.825 71.025,35.525 71.025,36.85 C71.025,37.425 70.75,37.875 70.025,38.025 L66.675,38.75 C66.65,38.4 66.625,38.05 66.625,37.725 C66.625,36.525 66.95,33.825 68.425,33.825 Z"></path>
            <path id="Path" d="M81.975,46.375 C84.575,46.375 86.65,44.9 86.65,42.7 C86.65,37.35 79.05,37.975 78.8,35.5 C78.675,34.15 79.65,33.675 80.75,33.675 C82.625,33.675 84.7,35.675 85.6,37.825 L86.05,37.825 L85.125,33.225 C83.475,34.25 82.6,33.225 80.85,33.225 C78.7,33.225 76.775,34.475 76.775,36.65 C76.775,41.65 84.075,40.65 84.075,43.675 C84.075,45.125 83.2,45.925 81.95,45.925 C79.45,45.925 77.65,43.3 76.875,41.3 L76.425,41.3 L77.525,46.375 C79.375,45.575 79.95,46.375 81.975,46.375 Z"></path>
            <path id="Path" d="M93.625,46.375 C96.225,46.375 98.3,44.9 98.3,42.7 C98.3,37.35 90.7,37.975 90.45,35.5 C90.325,34.15 91.3,33.675 92.4,33.675 C94.275,33.675 96.35,35.675 97.25,37.825 L97.7,37.825 L96.775,33.225 C95.125,34.25 94.25,33.225 92.5,33.225 C90.35,33.225 88.425,34.475 88.425,36.65 C88.425,41.65 95.725,40.65 95.725,43.675 C95.725,45.125 94.85,45.925 93.6,45.925 C91.1,45.925 89.3,43.3 88.525,41.3 L88.075,41.3 L89.175,46.375 C91.025,45.575 91.6,46.375 93.625,46.375 Z"></path>
            <path id="Shape" d="M110.025,31.55 C111.075,31.55 111.95,30.675 111.95,29.65 C111.95,28.6 111.075,27.725 110.025,27.725 C109,27.725 108.125,28.6 108.125,29.65 C108.125,30.675 109,31.55 110.025,31.55 Z M113,46.05 L113,45.7 C112.5,45.6 111.725,45.05 111.725,43.4 L111.725,33.1 L107.15,34 L107.15,34.375 C107.65,34.475 108.475,34.925 108.475,36.525 L108.475,43.4 C108.475,45.05 107.65,45.6 107.15,45.7 L107.15,46.05 L113,46.05 Z"></path>
            <path id="Path" d="M126.575,37.9 C126.575,35.075 125.175,33.225 122.425,33.225 C120.725,33.225 119.35,34.35 118.6,36.225 L119.025,33.1 L114.425,34.025 L114.425,34.4 C114.925,34.525 115.775,34.95 115.775,36.55 L115.775,43.4 C115.775,44.9 114.925,45.625 114.425,45.725 L114.425,46.05 L120.3,46.05 L120.3,45.7 C119.8,45.6 119,45.05 119,43.4 L119,36.25 C119.575,34.975 120.475,34.2 121.4,34.2 C122.7,34.2 123.35,35.1 123.35,38.25 L123.35,43.4 C123.35,44.875 122.525,45.6 122.025,45.7 L122.025,46.05 L127.925,46.05 L127.925,45.7 C127.425,45.6 126.575,44.875 126.575,43.4 L126.575,37.9 Z"></path>
            <polygon points="131.1 38.775 133.875 38.775 136.325 38.9 136.325 38.15 134.475 38.275 131.875 38.275 129.35 38.15 129.35 38.9" id="Path"></polygon>
            <path id="Shape" d="M141.425,46.375 C142.725,46.375 144.4,45.75 145.3,44.2 C145.35,45.425 146.225,46.375 147.675,46.375 C148.525,46.375 149.675,45.725 150.125,44.925 L150.125,44.55 C148.85,45.175 148.45,44.425 148.45,42.875 L148.45,38.825 C148.45,35 147,33.225 143.15,33.225 C140.7,33.225 138.5,34.925 138.5,36.7 C138.5,37.65 139.025,38.425 140.025,38.425 C141.05,38.425 141.75,37.85 141.75,37.05 C141.75,36.15 141.375,35.975 141.375,35.175 C141.375,34.6 141.75,33.725 142.95,33.725 C144.2,33.725 145.275,34.625 145.275,36.9 L145.275,38.7 C143.425,39.225 137.875,39.825 137.875,43.225 C137.875,45.425 139.35,46.375 141.425,46.375 Z M143.075,44.85 C141.95,44.85 141.175,44.075 141.175,42.6 C141.175,40.525 143.525,39.925 145.275,39.15 L145.275,42.625 C145.275,44.1 143.95,44.85 143.075,44.85 Z"></path>
            <polygon points="153.05 38.775 155.825 38.775 158.275 38.9 158.275 38.15 156.425 38.275 153.825 38.275 151.3 38.15 151.3 38.9" id="Path"></polygon>
            <path id="Shape" d="M167.275,33.225 C166,33.225 164.725,33.8 164.025,35.025 L164.025,27 L159.45,27.9 L159.45,28.275 C159.95,28.275 160.8,28.825 160.8,30.425 L160.8,46.375 L161.15,46.375 C161.35,45.75 161.825,45 162.925,45 C164.15,45 165.125,46.375 167.15,46.375 C170.375,46.375 172.75,43.325 172.75,39.75 C172.75,36.15 170.625,33.225 167.275,33.225 Z M166.85,45.825 C165.1,45.825 164.025,44.325 164.025,41.55 L164.025,35.95 C164.575,34.7 165.475,34.175 166.3,34.175 C168.525,34.175 169.4,37.825 169.4,40.175 C169.4,42.375 169.1,45.825 166.85,45.825 Z"></path>
            <path id="Shape" d="M180.925,46.375 C184.525,46.375 187.45,43.4 187.45,39.8 C187.45,36.2 184.525,33.225 180.925,33.225 C177.325,33.225 174.425,36.2 174.425,39.8 C174.425,43.4 177.325,46.375 180.925,46.375 Z M181.925,45.8 C179.525,45.8 177.825,40.9 177.825,37.775 C177.825,35.475 178.6,33.825 179.9,33.825 C182.275,33.825 184.025,38.625 184.025,41.725 C184.025,44.075 183.225,45.8 181.925,45.8 Z"></path>
            <path id="Path" d="M195.5,38.625 L196.9,36.775 C198,35.325 199.425,34 200.425,33.9 L200.425,33.55 L196.1,33.55 L196.1,33.9 C196.85,34 197.45,35.175 196.475,36.475 L195.2,38.15 L194.15,36.525 C192.975,34.7 193.5,34 194.25,33.9 L194.25,33.55 L187.9,33.55 L187.9,33.9 C188.75,34.175 189.7,35.125 190.8,36.85 L192.925,40.225 L190.825,43 C189.825,44.325 188.5,45.6 187.525,45.7 L187.525,46.05 L192.075,46.05 L192.075,45.7 C191.075,45.6 190.65,44.1 191.775,42.6 L193.225,40.675 L194.9,43.325 C195.85,44.825 195.275,45.6 194.625,45.7 L194.625,46.05 L200.875,46.05 L200.875,45.7 C199.85,45.55 198.9,43.925 197.9,42.35 L195.5,38.625 Z"></path>
            <path id="Shape" d="M76.35,63.575 C78.2,62.925 79.675,61.45 79.675,59.525 C79.675,56.375 76.85,55.05 73.875,55.05 L66.45,55.05 L66.45,55.425 C66.95,55.525 67.8,55.975 67.8,57.825 L67.8,70.4 C67.8,71.9 66.95,72.6 66.45,72.7 L66.45,73.05 L74.575,73.05 C78.45,73.05 80.65,71.15 80.65,68.275 C80.65,65.725 78.675,63.975 76.35,63.575 Z M72.075,55.5 C74.7,55.5 76.15,57.075 76.15,59.525 C76.15,62.7 74.55,63.5 73.3,63.5 C72.625,63.5 71.8,63.425 71.325,63.35 L71.325,55.5 L72.075,55.5 Z M73.85,72.6 C72.875,72.6 71.975,72.525 71.325,72.35 L71.325,63.975 L73.3,63.975 C75.525,63.975 77.1,65.95 77.1,68.275 C77.1,70.625 75.925,72.6 73.85,72.6 Z"></path>
            <path id="Path" d="M90.05,60.225 C88.425,60.225 87.25,61.3 86.475,63.4 L86.45,63.425 L86.9,60.1 L82.3,61.025 L82.3,61.4 C82.8,61.525 83.65,61.95 83.65,63.55 L83.65,70.4 C83.65,71.9 82.8,72.625 82.3,72.725 L82.3,73.05 L88.175,73.05 L88.175,72.7 C87.675,72.6 86.875,72.05 86.875,70.4 L86.875,63.65 C87.25,62.8 87.825,62.05 88.3,62.05 C89.175,62.05 88.875,63.675 90.375,63.675 C91.225,63.675 91.975,63 91.975,62.025 C91.975,60.925 91.125,60.225 90.05,60.225 Z"></path>
            <path id="Shape" d="M96.575,73.375 C97.875,73.375 99.55,72.75 100.45,71.2 C100.5,72.425 101.375,73.375 102.825,73.375 C103.675,73.375 104.825,72.725 105.275,71.925 L105.275,71.55 C104,72.175 103.6,71.425 103.6,69.875 L103.6,65.825 C103.6,62 102.15,60.225 98.3,60.225 C95.85,60.225 93.65,61.925 93.65,63.7 C93.65,64.65 94.175,65.425 95.175,65.425 C96.2,65.425 96.9,64.85 96.9,64.05 C96.9,63.15 96.525,62.975 96.525,62.175 C96.525,61.6 96.9,60.725 98.1,60.725 C99.35,60.725 100.425,61.625 100.425,63.9 L100.425,65.7 C98.575,66.225 93.025,66.825 93.025,70.225 C93.025,72.425 94.5,73.375 96.575,73.375 Z M98.225,71.85 C97.1,71.85 96.325,71.075 96.325,69.6 C96.325,67.525 98.675,66.925 100.425,66.15 L100.425,69.625 C100.425,71.1 99.1,71.85 98.225,71.85 Z"></path>
            <path id="Path" d="M118.6,64.9 C118.6,62.075 117.2,60.225 114.45,60.225 C112.75,60.225 111.375,61.35 110.625,63.225 L111.05,60.1 L106.45,61.025 L106.45,61.4 C106.95,61.525 107.8,61.95 107.8,63.55 L107.8,70.4 C107.8,71.9 106.95,72.625 106.45,72.725 L106.45,73.05 L112.325,73.05 L112.325,72.7 C111.825,72.6 111.025,72.05 111.025,70.4 L111.025,63.25 C111.6,61.975 112.5,61.2 113.425,61.2 C114.725,61.2 115.375,62.1 115.375,65.25 L115.375,70.4 C115.375,71.875 114.55,72.6 114.05,72.7 L114.05,73.05 L119.95,73.05 L119.95,72.7 C119.45,72.6 118.6,71.875 118.6,70.4 L118.6,64.9 Z"></path>
            <path id="Shape" d="M133.2,54 L128.625,54.9 L128.625,55.275 C129.125,55.275 129.975,55.85 129.975,57.45 L129.975,61.475 C129.175,60.75 128.1,60.225 126.85,60.225 C123.625,60.225 121.25,63.25 121.25,66.825 C121.25,70.425 123.375,73.375 126.725,73.375 C128.225,73.375 129.4,72.7 130.4,71.175 L130.125,73.05 L134.55,73.05 L134.55,72.675 C134.05,72.575 133.2,72 133.2,70.4 L133.2,54 Z M127.7,72.425 C125.5,72.425 124.525,69.325 124.525,65.75 C124.525,63.275 124.9,60.775 126.975,60.775 C128.3,60.775 129.375,61.825 129.975,63.25 L129.975,70.85 C129.35,71.85 128.55,72.425 127.7,72.425 Z"></path>
        </g>
    </g>
</svg>