<svg xmlns:xlink="http://www.w3.org/1999/xlink" xmlns="http://www.w3.org/2000/svg" version="1.1" viewBox="0 0 330 176" height="176px" width="330px">
    <title>endy-product-innovator-300x176</title>
    <g fill-rule="evenodd" fill="none" stroke-width="1" stroke="none" id="endy-product-innovator-300x176">
        <g transform="translate(0.000000, 0.866000)" id="Group-78"></g>
        <g fill="#FDC01A" transform="translate(23.000000, 31.866200)" id="laurel-left">
            <path id="Fill-1" d="M36.8215529,107.6199 C33.3775529,111.6819 31.8705529,122.3709 43.3625529,131.8009 C43.6285529,131.0589 43.8385529,130.2959 43.9885529,129.5189 C45.7745529,121.0319 42.6055529,113.8099 36.8215529,107.6199"></path>
            <path id="Fill-3" d="M29.1736529,116.2557 C31.9316529,110.9747 32.5286529,101.3367 25.6736529,92.0707 C20.5206529,96.1607 19.7696529,107.0657 29.1736529,116.2557"></path>
            <path id="Fill-5" d="M21.6003529,21.7547 C27.2193529,20.3047 33.6833529,12.9097 34.8083529,0.4397 C30.0083529,1.3167 20.6473529,8.5877 21.6003529,21.7547"></path>
            <path id="Fill-7" d="M16.9646529,94.3714 C21.9126529,89.8344 24.8066529,81.8364 22.2456529,71.5654 C16.3126529,73.2774 11.4316529,82.3434 16.9646529,94.3714"></path>
            <path id="Fill-9" d="M22.6770529,53.1653 C17.7060529,53.2983 10.5530529,59.2773 12.0600529,71.9693 C16.2810529,70.2093 22.4050529,64.5233 22.6770529,53.1653"></path>
            <path id="Fill-11" d="M26.3225529,36.3836 C21.1725529,35.7436 14.1135529,41.1236 13.4805529,52.5446 C19.1405529,51.4626 24.7895529,46.2766 26.3225529,36.3836"></path>
            <path id="Fill-13" d="M30.6926529,21.6746 C27.3446529,20.8476 20.1006529,23.0616 17.6036529,34.3376 C22.1506529,34.2976 28.1686529,30.8356 30.6926529,21.6746"></path>
            <path id="Fill-15" d="M17.6907529,123.7044 C23.3327529,132.5824 32.0607529,137.5364 40.6517529,133.9174 C41.3687529,133.6164 42.0537529,133.2374 42.6967529,132.7884 C36.0547529,126.8784 25.3857529,119.9514 17.6907529,123.7044"></path>
            <path id="Fill-17" d="M27.4553529,117.74 C22.8943529,110.359 14.9793529,100 6.57335289,100.617 C9.72835289,114.828 20.2973529,120.326 27.4553529,117.74"></path>
            <path id="Fill-19" d="M0.0574528887,72.9895 C-0.781547111,86.4475 7.72045289,95.4745 15.6234529,94.8045 C13.0754529,86.7125 8.04145289,74.6625 0.0574528887,72.9895"></path>
            <path id="Fill-22" d="M8.35375289,71.4012 C8.94175289,71.7402 9.56475289,72.0082 10.2107529,72.1992 C10.1967529,64.2172 8.97075289,52.6802 2.15675289,49.2692 C-0.625247111,58.3142 1.29775289,67.5662 8.35375289,71.4012"></path>
            <path id="Fill-24" d="M11.8479529,51.7185 C13.0679529,44.0875 12.9499529,33.2835 6.85795289,29.3845 C2.40095289,40.1595 6.08595289,49.0535 11.8479529,51.7185"></path>
            <path id="Fill-26" d="M15.8327529,33.4715 C18.4577529,27.0575 20.1977529,17.9305 15.4827529,13.4975 C9.19875289,22.9825 12.5057529,30.8055 15.8327529,33.4715"></path>
        </g>
        <g fill="#FDC01A" transform="translate(262.000000, 32.000000)" id="laurel-right">
            <path id="Fill-28" d="M0.4977,129.3855 C0.6477,130.1625 0.8567,130.9255 1.1237,131.6665 C12.6157,122.2375 11.1077,111.5475 7.6647,107.4865 C1.8807,113.6765 -1.2883,120.8985 0.4977,129.3855"></path>
            <path id="Fill-30" d="M18.8121,91.9373 C11.9571,101.2023 12.5541,110.8413 15.3121,116.1223 C24.7161,106.9323 23.9641,96.0263 18.8121,91.9373"></path>
            <path id="Fill-32" d="M9.6774,0.3055 C10.8024,12.7765 17.2674,20.1705 22.8854,21.6205 C23.8384,8.4535 14.4774,1.1825 9.6774,0.3055"></path>
            <path id="Fill-34" d="M22.2408,71.4314 C19.6778,81.7024 22.5728,89.7004 27.5208,94.2374 C33.0538,82.2094 28.1738,73.1434 22.2408,71.4314"></path>
            <path id="Fill-36" d="M32.4254,71.8357 C33.9324,59.1437 26.7794,53.1647 21.8094,53.0317 C22.0804,64.3897 28.2044,70.0757 32.4254,71.8357"></path>
            <path id="Fill-38" d="M31.0055,52.4104 C30.3725,40.9904 23.3135,35.6104 18.1625,36.2494 C19.6955,46.1424 25.3455,51.3284 31.0055,52.4104"></path>
            <path id="Fill-40" d="M26.8815,34.2034 C24.3855,22.9284 17.1415,20.7144 13.7935,21.5404 C16.3175,30.7024 22.3355,34.1634 26.8815,34.2034"></path>
            <path id="Fill-42" d="M1.7887,132.6551 C2.4327,133.1041 3.1177,133.4821 3.8347,133.7831 C12.4257,137.4031 21.1527,132.4491 26.7947,123.5711 C19.0997,119.8171 8.4317,126.7451 1.7887,132.6551"></path>
            <path id="Fill-44" d="M37.9127,100.4832 C29.5067,99.8662 21.5907,110.2252 17.0297,117.6062 C24.1877,120.1922 34.7577,114.6942 37.9127,100.4832"></path>
            <path id="Fill-46" d="M28.8619,94.6712 C36.7649,95.3412 45.2669,86.3142 44.4279,72.8562 C36.4439,74.5292 31.4109,86.5782 28.8619,94.6712"></path>
            <path id="Fill-48" d="M42.3287,49.135 C35.5147,52.547 34.2897,64.084 34.2747,72.066 C34.9207,71.874 35.5437,71.606 36.1317,71.267 C43.1877,67.432 45.1107,58.18 42.3287,49.135"></path>
            <path id="Fill-50" d="M37.6276,29.2503 C31.5366,33.1493 31.4176,43.9543 32.6376,51.5843 C38.3996,48.9193 42.0846,40.0263 37.6276,29.2503"></path>
            <path id="Fill-52" d="M29.0035,13.364 C24.2875,17.797 26.0265,26.924 28.6525,33.338 C31.9795,30.672 35.2865,22.849 29.0035,13.364"></path>
        </g>
        <g opacity="0.699999988" fill-rule="nonzero" fill="#243746" transform="translate(130.240000, 158.720000)" id="WINNER">
            <polygon points="6.74 -2.84217094e-14 4.58 8.26 2.58 -2.84217094e-14 0 -2.84217094e-14 3.2 12.28 5.54 12.28 7.7 4.18 9.86 12.28 12.2 12.28 15.4 -2.84217094e-14 12.88 -2.84217094e-14 10.86 8.26 8.74 -2.84217094e-14" id="Path"></polygon>
            <polygon points="19.68 -2.84217094e-14 17.12 -2.84217094e-14 17.12 12.28 19.68 12.28" id="Path"></polygon>
            <polygon points="32.6 -2.84217094e-14 30.14 -2.84217094e-14 30.14 7.76 24.72 -2.84217094e-14 22.32 -2.84217094e-14 22.32 12.28 24.78 12.28 24.78 4.1 30.58 12.28 32.6 12.28" id="Path"></polygon>
            <polygon points="45.54 -2.84217094e-14 43.08 -2.84217094e-14 43.08 7.76 37.66 -2.84217094e-14 35.26 -2.84217094e-14 35.26 12.28 37.72 12.28 37.72 4.1 43.52 12.28 45.54 12.28" id="Path"></polygon>
            <polygon points="48.2 -2.84217094e-14 48.2 12.28 56.54 12.28 56.54 10.02 50.72 10.02 50.72 7.1 56 7.1 56 4.92 50.72 4.92 50.72 2.24 56.54 2.24 56.54 -2.84217094e-14" id="Path"></polygon>
            <path id="Shape" d="M62.7,7.7 L65.74,12.28 L68.62,12.28 L65.38,7.52 C67.1,7.1 68.18,5.86 68.18,3.9 C68.18,1.38 66.46,-2.84217094e-14 63.88,-2.84217094e-14 L58.82,-2.84217094e-14 L58.82,12.28 L61.36,12.28 L61.36,7.7 L62.7,7.7 Z M61.36,2.18 L63.72,2.18 C65,2.18 65.66,2.86 65.66,3.9 C65.66,4.92 65,5.6 63.72,5.6 L61.36,5.6 L61.36,2.18 Z"></path>
        </g>
        <g transform="translate(122.000000, 7.632401)" opacity="0.699999988" id="2019_PRODUCT_INNOVATOR_AWARD_2">
            <path fill="#243746" id="Fill-33" d="M7.8689097,37.1588246 C7.61190079,37.1588246 7.36651943,37.1588246 7.10770625,37.1588246 C7.10770625,37.0487638 7.10770625,36.9449178 7.10770625,36.8410718 C7.1073053,36.5179061 7.10951053,36.1947405 7.10590198,35.8713744 C7.10309533,35.6193773 6.985617,35.4776415 6.75687506,35.4367446 C6.55459582,35.4010601 6.34690376,35.5227484 6.26370665,35.7250276 C6.22942543,35.8078238 6.21719645,35.8936271 6.2175974,35.9830389 C6.21900073,36.3272544 6.21819883,36.67147 6.21819883,37.015485 C6.21819883,37.0607923 6.21819883,37.1060997 6.21819883,37.1582232 C5.956579,37.1582232 5.70758909,37.1582232 5.45118161,37.1582232 C5.45118161,36.3701561 5.45118161,35.5875018 5.45118161,34.8008381 C5.70778957,34.8008381 5.95697995,34.8008381 6.21418933,34.8008381 C6.21418933,34.9125026 6.21418933,35.0163486 6.21418933,35.1602897 C6.34850756,34.9802632 6.48884003,34.8609805 6.67387843,34.8078547 C7.28171852,34.6324391 7.8512679,34.9219249 7.86670447,35.6093536 C7.87833202,36.1209657 7.8689097,36.6329788 7.8689097,37.1588246"></path>
            <path fill="#243746" id="Fill-34" d="M9.1709946,35.1201947 C9.43722535,34.8004371 9.77161759,34.7258604 10.1481096,34.7719697 C10.5175849,34.817277 10.8120827,35.1430488 10.8249131,35.5620415 C10.8411515,36.0898921 10.8289226,36.618745 10.8289226,37.1562184 C10.5827393,37.1562184 10.0743348,37.1562184 10.0743348,37.1562184 C10.0743348,37.1562184 10.0755376,36.2897656 10.0725305,35.9078608 C10.0705258,35.6568662 9.96527641,35.4998943 9.77703042,35.4513793 C9.45907712,35.3695855 9.17981549,35.5933156 9.1750041,35.9419416 C9.16959127,36.2985865 9.17360077,36.655432 9.17360077,37.0120769 C9.1734003,37.0577852 9.17360077,37.1034935 9.17360077,37.1572208 C8.91859661,37.1572208 8.66980718,37.1572208 8.41640683,37.1572208 C8.41640683,36.3699556 8.41640683,35.5875018 8.41640683,34.7984324 C8.66780243,34.7984324 8.91318379,34.7984324 9.1709946,34.7984324 C9.1709946,34.9074907 9.1709946,35.0137425 9.1709946,35.1201947"></path>
            <path fill="#243746" id="Fill-35" d="M23.9367777,36.8589141 C24.0177696,36.6975317 24.0959548,36.5413617 24.1779491,36.3779746 C24.382634,36.4986605 24.5849133,36.6065161 24.815259,36.6478139 C24.9112865,36.6652552 25.0075145,36.6708685 25.1031411,36.65884 C25.1789206,36.6492172 25.2538982,36.6243583 25.2709386,36.5329418 C25.287979,36.4407233 25.2264332,36.3960174 25.1570688,36.358729 C25.0456047,36.298787 24.9209093,36.2757324 24.8026291,36.235036 C24.6993845,36.1995519 24.5941351,36.1698816 24.4938976,36.1277819 C24.1927842,36.0016831 24.0574636,35.7988024 24.0602703,35.4894696 C24.0628765,35.1949718 24.2192469,34.9652275 24.5059261,34.8513577 C24.8563564,34.7122281 25.2123999,34.7368865 25.5666392,34.837124 C25.7151911,34.8792238 25.8601345,34.9331515 25.9982618,35.0303819 C25.9134609,35.1917642 25.8306647,35.3497385 25.7430571,35.5163332 C25.5630306,35.4411551 25.3924264,35.3507409 25.2033785,35.3116483 C25.1167734,35.2940065 25.0297672,35.2753623 24.9415582,35.2885936 C24.8623706,35.3008226 24.7815792,35.3206696 24.7669445,35.4205062 C24.7533122,35.5151304 24.8182661,35.5614401 24.8900362,35.5879028 C25.0309701,35.6402267 25.175713,35.682527 25.3190526,35.7288367 C25.4668026,35.7763492 25.6147532,35.8266685 25.7410524,35.9188869 C26.1622503,36.2258141 26.0736404,36.8743506 25.5736558,37.0840474 C25.123389,37.2732958 24.6719194,37.2209718 24.230674,37.0359334 C24.1272289,36.9922299 24.0291967,36.9362974 23.9367777,36.8589141"></path>
            <path fill="#243746" id="Fill-36" d="M16.1032184,35.3042307 C15.9207862,35.4142915 15.7457716,35.5197413 15.5653441,35.6283987 C15.4879608,35.5652491 15.4254126,35.4866629 15.3327931,35.4421575 C15.0390973,35.3008226 14.7167336,35.4305299 14.6219089,35.7372566 C14.5695849,35.9058561 14.5695849,36.0770617 14.6279232,36.2442578 C14.7824894,36.6883099 15.2852806,36.6420001 15.4949774,36.4056402 C15.5168292,36.3805808 15.5356738,36.3527148 15.566146,36.3132212 C15.7475758,36.4200744 15.9288052,36.526727 16.1086313,36.6325778 C15.9538646,37.015886 15.3608596,37.2680835 14.8366176,37.1826811 C14.2239661,37.0828446 13.8637126,36.6921189 13.8129924,36.0720498 C13.7662818,35.4992928 14.0906502,34.9916902 14.609279,34.8264989 C15.1838402,34.6432647 15.8273649,34.8435392 16.1032184,35.3042307"></path>
            <path fill="#243746" id="Fill-37" d="M2.33920872,35.3008226 C2.16098648,35.4088786 1.98296471,35.5169346 1.80053249,35.6275968 C1.7492109,35.5814876 1.70310166,35.5327722 1.64997579,35.4940805 C1.3264092,35.2581215 0.925459266,35.4082772 0.838453131,35.8004062 C0.805374761,35.9495596 0.810787585,36.1011187 0.861908702,36.2472649 C0.991215054,36.6165398 1.47275592,36.7017417 1.73036625,36.4016307 C1.75181707,36.3763708 1.77066172,36.3487053 1.79772584,36.3132212 C1.88914242,36.3663471 1.97875473,36.4180696 2.06796609,36.470594 C2.15797935,36.5231185 2.24779214,36.5766453 2.3362016,36.6291697 C2.21150617,36.9806024 1.71573158,37.235807 1.12753803,37.1878935 C0.542552082,37.1401804 0.126566528,36.7520609 0.0561998153,36.1556479 C-0.0125630978,35.5696596 0.238431559,35.0506299 0.787933439,34.8485511 C1.38294314,34.6298329 2.03729342,34.8200837 2.33920872,35.3008226"></path>
            <path fill="#243746" id="Fill-38" d="M16.5935802,35.3988549 C16.4722928,35.3988549 16.3726568,35.3988549 16.2716174,35.3988549 C16.2716174,35.2318592 16.2716174,35.0744864 16.2716174,34.9044836 C16.3776687,34.9044836 16.4765028,34.9044836 16.5883678,34.9044836 C16.5883678,34.6807536 16.5883678,34.4684506 16.5883678,34.249131 C16.8467801,34.249131 17.0927629,34.249131 17.3527789,34.249131 C17.3527789,34.460632 17.3527789,34.6725341 17.3527789,34.8944599 C17.5618743,34.8944599 17.7571369,34.8944599 17.9608195,34.8944599 C17.9608195,35.0660664 17.9608195,35.2268474 17.9608195,35.3988549 C17.7629507,35.3988549 17.5672871,35.3988549 17.3609984,35.3988549 C17.3609984,35.7440728 17.3549841,36.0782645 17.363805,36.4120554 C17.3672131,36.5353475 17.4654458,36.6003013 17.5961555,36.5822586 C17.6857678,36.5698292 17.7725735,36.5383546 17.8690019,36.5132952 C17.9183188,36.6865056 17.9672347,36.8581122 18.0199596,37.0431505 C17.6581023,37.2111486 17.2974478,37.2815153 16.9313805,37.0908636 C16.6878034,36.9643639 16.5967878,36.7370253 16.5943821,36.4721978 C16.5917759,36.1867215 16.5935802,35.9010447 16.5935802,35.6155683 C16.5935802,35.5488102 16.5935802,35.482052 16.5935802,35.3988549"></path>
            <path fill="#243746" id="Fill-39" d="M20.1870939,35.2440882 C20.5796239,35.2116113 20.967142,35.5919123 20.9436865,36.0331577 C20.9226366,36.4258881 20.5862396,36.763488 20.1804783,36.761095 C19.7516623,36.7586766 19.4228834,36.4166663 19.42569,35.9760223 C19.4284967,35.5604377 19.7598818,35.2416825 20.1870939,35.2440882"></path>
            <path fill="#243746" id="Fill-40" d="M18.7859744,33.712453 C19.0223344,33.7138628 19.181712,33.8788537 19.1789053,34.1198246 C19.1760987,34.3603946 19.0149168,34.5205741 18.7767526,34.5193779 C18.5427983,34.5181684 18.3741988,34.3501703 18.372595,34.1164165 C18.3705903,33.8784527 18.5415954,33.7112566 18.7859744,33.712453"></path>
            <path fill="#243746" id="Fill-41" d="M3.37225622,36.4292962 C3.57874543,36.6584391 3.93478897,36.6528258 4.13686774,36.4168668 C4.34155268,36.1783015 4.31809711,35.7134001 4.09095897,35.5043047 C3.94641652,35.3707884 3.71827601,35.3322972 3.54045472,35.4170981 C3.30108761,35.5313688 3.23432944,35.7444737 3.22350379,35.9269059 C3.22390474,36.1696811 3.27482539,36.3208392 3.37225622,36.4292962 Z M5.04201221,35.9752204 C5.04241316,36.6628495 4.58372644,37.1477985 3.89309018,37.1882944 C3.55067894,37.2083419 3.2227019,37.1612303 2.93461937,36.9587506 C2.5851915,36.7133692 2.45027185,36.3649437 2.45568468,35.9481563 C2.46290178,35.3802107 2.77704605,34.9620199 3.32875315,34.821086 C3.76839475,34.70882 4.19741118,34.7400941 4.57951646,35.0085301 C4.9107011,35.2410811 5.04602171,35.5776785 5.04201221,35.9752204 L5.04201221,35.9752204 Z"></path>
            <path fill="#243746" id="Fill-42" d="M12.3451147,35.3024264 C12.1233894,35.3308939 11.9219121,35.5712633 11.9545895,35.7697336 C12.254901,35.7697336 12.555413,35.7697336 12.8639439,35.7697336 C12.8424931,35.441556 12.639412,35.2643362 12.3451147,35.3024264 Z M13.6016918,36.1871224 C13.0471781,36.1871224 12.503089,36.1871224 11.9579976,36.1871224 C11.9966892,36.5664211 12.5425826,36.8290433 13.0553975,36.3898026 C13.1806944,36.5225171 13.3061917,36.655432 13.4391066,36.7961654 C13.3404729,36.9208608 13.1853053,37.0184921 13.0132978,37.0846489 C12.6436219,37.2267856 12.2665285,37.235807 11.8934446,37.1016892 C11.4014791,36.9248703 11.1170051,36.4349095 11.1703314,35.8757848 C11.2352853,35.1931676 11.6935711,34.7743754 12.3799974,34.7671583 C12.8384836,34.7623469 13.2254003,34.8966651 13.4545432,35.3256815 C13.5948757,35.5881032 13.6231426,35.8747824 13.6016918,36.1871224 L13.6016918,36.1871224 Z"></path>
            <path fill="#243746" id="Fill-43" d="M19.1532446,35.1799362 L19.1532446,34.7924181 C19.1532446,34.7924181 18.689145,34.7922176 18.4670187,34.7926186 C18.4469712,34.7926186 18.4267233,34.7950243 18.4010625,34.7968286 C18.4010625,35.593917 18.4010625,36.3759699 18.4010625,37.1580227 C18.6550643,37.1580227 19.1530441,37.1580227 19.1530441,37.1580227 L19.1530441,36.7975687 C18.9804351,36.5690273 18.8795962,36.2787395 18.8818014,35.9575786 C18.8834052,35.6600738 18.9838432,35.3918383 19.1532446,35.1799362"></path>
            <path fill="#243746" id="Fill-44" d="M21.2203419,35.209807 C21.3969604,35.4449641 21.5038135,35.7412661 21.4869736,36.0558113 C21.4727399,36.3200373 21.3753091,36.5694282 21.2203419,36.7751155 C21.2203419,36.9024171 21.2203419,37.0297187 21.2203419,37.1572208 C21.4733413,37.1572208 21.7223312,37.1572208 21.9771349,37.1572208 C21.9771349,37.1034935 21.9771349,37.0577852 21.9771349,37.0120769 C21.9773354,36.655432 21.9733259,36.2985865 21.9785382,35.9419416 C21.9835501,35.5933156 22.2628117,35.3695855 22.5805646,35.4513793 C22.769011,35.4998943 22.8744609,35.6568662 22.8762651,35.9078608 C22.8792723,36.2897656 22.8780694,37.1562184 22.8780694,37.1562184 C22.8780694,37.1562184 23.3864739,37.1562184 23.6326572,37.1562184 C23.6326572,36.618745 23.6448862,36.0898921 23.6286477,35.5620415 C23.6158173,35.1430488 23.3213196,34.817277 22.9518442,34.7719697 C22.5753522,34.7258604 22.24096,34.8004371 21.9747292,35.1201947 C21.9747292,35.0137425 21.9747292,34.9074907 21.9747292,34.7984324 C21.7169184,34.7984324 21.4717375,34.7984324 21.2203419,34.7984324 L21.2203419,35.209807"></path>
            <polyline points="21.9426532 37.9873876 21.9426532 38.84522 22.5440781 38.84522 22.5440781 38.6483536 22.189037 38.6483536 22.189037 38.4901788 22.4911527 38.4901788 22.4911527 38.3213789 22.189037 38.3213789 22.189037 38.1668127 22.5685361 38.1668127 22.4456449 37.9873876 21.9426532 37.9873876" fill="#243746" id="Fill-45"></polyline>
            <polyline points="22.6495279 37.9873876 22.9253815 38.4005665 22.6248695 38.84522 22.9253815 38.84522 23.1048066 38.5709703 23.2525566 38.84522 23.5795313 38.84522 23.278017 38.4005665 23.5548729 37.9873876 23.2543609 37.9873876 23.1048066 38.2159291 22.9502404 37.9873876 22.6495279 37.9873876" fill="#243746" id="Fill-46"></polyline>
            <path fill="#243746" id="Fill-47" d="M23.9437943,38.664993 C23.8764347,38.6597807 23.8321298,38.6279051 23.8347359,38.5575384 C23.8373421,38.4811575 23.8930742,38.453091 24.0999643,38.4705323 C24.1101885,38.4713342 24.1206132,38.4723366 24.1316394,38.4735394 C24.1272289,38.6086596 24.0640793,38.6746158 23.9437943,38.664993 Z M24.3862426,38.2229457 C24.3828345,38.1176964 24.3168782,38.0413154 24.2206503,38.0052299 C24.0155644,37.928448 23.8223065,37.9717506 23.6292491,38.0717876 C23.6581175,38.1345363 23.6817735,38.1864593 23.7086372,38.2447975 C23.9939131,38.1429562 24.1258256,38.1583928 24.1368517,38.3073457 C24.034409,38.3293979 23.894678,38.3041381 23.7912329,38.3312022 C23.6458885,38.369092 23.5737175,38.4532915 23.5803332,38.5958292 C23.5865479,38.733355 23.6753583,38.8257739 23.8170941,38.8430148 C23.9205392,38.8554442 24.0404233,38.8139459 24.126427,38.7556077 L24.126427,38.8418119 L24.3878464,38.8418119 C24.3878464,38.8418119 24.3924573,38.4230197 24.3862426,38.2229457 L24.3862426,38.2229457 Z"></path>
            <path fill="#243746" id="Fill-48" d="M25.3334868,38.1688175 C25.2693348,38.2079101 25.2049823,38.2470027 25.1390261,38.2868972 C25.1205824,38.2702578 25.103943,38.252616 25.0846974,38.2387832 C24.9680209,38.1533809 24.8230775,38.2077096 24.791603,38.3492449 C24.7795745,38.4031727 24.7815792,38.4579024 24.8002234,38.5106273 C24.8467336,38.6441436 25.0207458,38.6748163 25.1137662,38.5663593 C25.1215847,38.557338 25.1284009,38.5473142 25.1380237,38.5344838 C25.1711021,38.5535289 25.2033785,38.5723736 25.235655,38.5912182 C25.2681319,38.6104638 25.3004084,38.6295089 25.3324844,38.6485541 C25.287578,38.7754547 25.1083534,38.8676732 24.8962509,38.8502319 C24.6849503,38.832991 24.5345941,38.6930595 24.5093342,38.4775489 C24.4844753,38.2660478 24.57509,38.0786037 24.7733597,38.0056309 C24.9884694,37.9266437 25.2246289,37.9954066 25.3334868,38.1688175"></path>
            <path fill="#243746" id="Fill-49" d="M25.4934658,38.2093134 C25.4491608,38.2093134 25.4128749,38.2093134 25.375787,38.2093134 C25.375787,38.1481686 25.375787,38.0906322 25.375787,38.0286855 C25.4144787,38.0286855 25.4507646,38.0286855 25.4914611,38.0286855 C25.4914611,37.9468917 25.4914611,37.8693079 25.4914611,37.7893184 C25.5858848,37.7893184 25.6756976,37.7893184 25.7707227,37.7893184 C25.7707227,37.8667017 25.7707227,37.9436841 25.7707227,38.0250769 C25.8471036,38.0250769 25.9184727,38.0250769 25.9926485,38.0250769 C25.9926485,38.0876251 25.9926485,38.1463643 25.9926485,38.2093134 C25.9204775,38.2093134 25.8489079,38.2093134 25.7735293,38.2093134 C25.7735293,38.3352117 25.7715246,38.457301 25.7747322,38.5791897 C25.775935,38.6242966 25.8118201,38.6479526 25.8595331,38.641337 C25.8922105,38.636726 25.9238856,38.625299 25.9591692,38.6160771 C25.9772119,38.6794272 25.9950542,38.7421759 26.0145002,38.8097359 C25.8821868,38.8708808 25.7504747,38.8965416 25.6167579,38.8271773 C25.5279475,38.7808675 25.4946687,38.6978709 25.4936663,38.601242 C25.4926639,38.4967945 25.4934658,38.3925475 25.4934658,38.2883006 C25.4934658,38.2638426 25.4934658,38.2395851 25.4934658,38.2093134"></path>
            <path fill="#243746" id="Fill-50" d="M20.8925654,39.045695 L20.9605264,38.9284171 C21.0074375,38.9661064 21.0872265,38.9661064 21.1247154,38.9332285 C21.1622042,38.9003506 21.1762374,38.7926956 21.1762374,38.7926956 L20.8807373,38.164407 L21.0332988,38.164407 L21.2464037,38.6190843 L21.4246259,38.1668127 L21.5653593,38.1668127 C21.5653593,38.1668127 21.3029376,38.8534395 21.2652483,38.9472618 C21.2277595,39.0410841 21.199693,39.0529121 21.1597985,39.0715562 C21.1201044,39.0902004 21.0332988,39.097217 20.9769653,39.0807781 C20.9206318,39.0645396 20.8925654,39.045695 20.8925654,39.045695"></path>
            <path fill="#243746" id="Fill-51" d="M20.5238919,38.7189208 C20.4084183,38.7189208 20.3147965,38.6250985 20.3147965,38.5096249 C20.3147965,38.3939509 20.4084183,38.3003291 20.5238919,38.3003291 C20.6393655,38.3003291 20.7331878,38.3939509 20.7331878,38.5096249 C20.7331878,38.6250985 20.6393655,38.7189208 20.5238919,38.7189208 Z M20.5521589,38.1668127 C20.4615442,38.1668127 20.3795499,38.2018958 20.3184051,38.2594322 L20.3184051,37.895971 L20.1670465,37.895971 L20.1670465,38.8418119 L20.3184051,38.8418119 L20.3184051,38.7598177 C20.3795499,38.8171535 20.4615442,38.8524371 20.5521589,38.8524371 C20.7414072,38.8524371 20.8949711,38.6988733 20.8949711,38.5096249 C20.8949711,38.3201761 20.7414072,38.1668127 20.5521589,38.1668127 L20.5521589,38.1668127 Z"></path>
            <polygon points="0.126566528 31.2632568 2.89131678 31.2632568 2.89131678 20.719276 0.126566528 20.719276" fill="#243746" id="Fill-52"></polygon>
            <polyline points="14.1217239 31.2632568 11.8894351 31.2632568 7.47597876 25.0982507 7.47597876 31.2632568 4.81447312 31.2632568 4.81447312 20.719276 7.389975 20.719276 11.4600178 26.5236277 11.4600178 20.719276 14.1217239 20.719276 14.1217239 31.2632568" fill="#243746" id="Fill-53"></polyline>
            <polyline points="25.3523314 31.2632568 23.1198422 31.2632568 18.7065863 25.0982507 18.7065863 31.2632568 16.0448802 31.2632568 16.0448802 20.719276 18.6205826 20.719276 22.6906253 26.5236277 22.6906253 20.719276 25.3523314 20.719276 25.3523314 31.2632568" fill="#243746" id="Fill-54"></polyline>
            <polyline points="41.3011173 31.2632568 37.3686004 20.719276 40.3221981 20.719276 42.7092535 27.5368282 45.0961084 20.719276 47.9296216 20.719276 43.9971046 31.2632568 41.3011173 31.2632568" fill="#243746" id="Fill-55"></polyline>
            <path fill="#243746" id="Fill-56" d="M50.6677087,26.9530451 L52.831435,26.9530451 L51.7498725,23.9822065 L50.6677087,26.9530451 Z M53.1920894,20.719276 L57.2104096,31.2632568 L54.4113782,31.2632568 L53.6559885,29.2198155 L49.8265157,29.2198155 L49.0879659,31.2632568 L46.3574969,31.2632568 L50.3758171,20.719276 L53.1920894,20.719276 L53.1920894,20.719276 Z"></path>
            <polyline points="55.9989394 20.719276 65.2719089 20.719276 65.2719089 23.089291 62.0093793 23.089291 62.0093793 31.2632568 59.2446291 31.2632568 59.2446291 23.089291 55.9989394 23.089291 55.9989394 20.719276" fill="#243746" id="Fill-57"></polyline>
            <path fill="#243746" id="Fill-58" d="M70.2843845,22.9690061 C68.8590075,22.9690061 67.9318108,24.171054 67.9318108,25.9913666 C67.9318108,27.8116793 68.8590075,29.0135268 70.2843845,29.0135268 C71.7097615,29.0135268 72.6712394,27.8116793 72.6712394,25.9913666 C72.6712394,24.171054 71.7097615,22.9690061 70.2843845,22.9690061 Z M70.2843845,31.4350639 C67.2447831,31.4350639 65.1500202,29.1338117 65.1500202,25.9913666 C65.1500202,22.8316807 67.2447831,20.5476694 70.2843845,20.5476694 C73.3410263,20.5476694 75.4532305,22.8316807 75.4532305,25.9913666 C75.4532305,29.1338117 73.3410263,31.4350639 70.2843845,31.4350639 L70.2843845,31.4350639 Z"></path>
            <path fill="#243746" id="Fill-59" d="M79.677639,25.5793906 L81.3947071,25.5793906 C82.3736263,25.5793906 82.8200841,25.0812103 82.8200841,24.3085798 C82.8200841,23.5357488 82.3736263,23.037769 81.3947071,23.037769 L79.677639,23.037769 L79.677639,25.5793906 Z M79.677639,27.7771976 L79.677639,31.2632568 L76.94717,31.2632568 L76.94717,20.719276 L81.6867991,20.719276 C83.9533691,20.719276 85.5160714,22.0073277 85.5160714,24.3085798 C85.5160714,25.9055634 84.7091597,27.0045671 83.421108,27.4853061 L85.8939667,31.2632568 L82.8373249,31.2632568 L80.6391169,27.7771976 L79.677639,27.7771976 L79.677639,27.7771976 Z"></path>
            <path fill="#FFFFFE" id="Fill-60" d="M30.7747783,40.7254747 C30.3303253,40.7254747 29.9371939,40.4422036 29.79626,40.0206047 C29.616434,39.4803247 29.9091274,38.8949378 30.4484051,38.7151118 L32.91545,37.8929639 C33.0206993,37.8578808 33.1305596,37.8400385 33.2414223,37.8400385 C33.6866772,37.8400385 34.0800091,38.1237106 34.2203415,38.5461114 C34.3073477,38.8065283 34.2875006,39.0861909 34.1642085,39.3327751 C34.0411169,39.5793593 33.8292149,39.7631949 33.5677955,39.850201 L31.1007506,40.6721484 C30.9955012,40.707432 30.885641,40.7254747 30.7747783,40.7254747"></path>
            <path fill="#243746" id="Fill-61" d="M33.2412218,37.2384132 C33.0656057,37.2384132 32.8915935,37.2666801 32.7243973,37.3226126 L30.2583548,38.1443595 C29.4043314,38.4292345 28.9410338,39.3558297 29.2253073,40.2100536 C29.4490374,40.8786376 30.0715121,41.3268996 30.7747783,41.3268996 C30.9521986,41.3268996 31.1276142,41.2982317 31.2958127,41.2410963 L33.7580463,40.4205523 C34.1714256,40.2830265 34.5068203,39.9923378 34.7020829,39.602013 C34.8973455,39.2116882 34.9286196,38.7686386 34.7904923,38.3546578 C34.569168,37.687878 33.9462923,37.2384132 33.2412218,37.2384132 Z M33.2412218,38.441263 C33.4216493,38.441263 33.5896473,38.5553332 33.6495893,38.7357607 C33.7247674,38.9608941 33.6028786,39.2044711 33.3777453,39.2792483 L30.9107003,40.1015966 C30.8655935,40.1168327 30.8196847,40.1240498 30.7747783,40.1240498 C30.5945513,40.1240498 30.4267538,40.0099796 30.3668117,39.829953 C30.2916336,39.6042182 30.4133219,39.3608416 30.6386558,39.2856635 L33.1055002,38.4633152 C33.1504066,38.4484801 33.1963154,38.441263 33.2412218,38.441263 L33.2412218,38.441263 Z"></path>
            <path fill="#FFFFFE" id="Fill-62" d="M30.1428812,38.7084961 C29.6980273,38.7084961 29.3046954,38.424824 29.1643629,38.0026237 C29.0773568,37.7414049 29.0972038,37.4617423 29.2200949,37.215559 C29.3431866,36.9685739 29.5554896,36.7845378 29.8171094,36.6977322 L33.627938,35.4281242 C33.7331874,35.3930411 33.8430476,35.3749984 33.9543113,35.3749984 C34.3997666,35.3749984 34.792898,35.6588709 34.9328296,36.0810712 C35.0196352,36.3414882 34.9997882,36.6213512 34.876897,36.8675345 C34.7536049,37.1145196 34.5417029,37.2983552 34.2802835,37.3853613 L30.4688535,38.6551697 C30.3656089,38.6902529 30.2549467,38.7084961 30.1428812,38.7084961"></path>
            <path fill="#243746" id="Fill-63" d="M33.9541108,34.7737739 C33.7782942,34.7737739 33.6040815,34.8018404 33.4368854,34.8579734 L29.6266582,36.1271804 C29.2132788,36.2645058 28.8772828,36.5557959 28.6820201,36.9465216 C28.4873589,37.3364454 28.4558844,37.7790941 28.5936107,38.1928745 C28.8165388,38.861258 29.4392141,39.309921 30.1428812,39.309921 C30.3197001,39.309921 30.4947148,39.2810526 30.6627128,39.2245186 L34.4705343,37.9559131 C34.8845151,37.8179863 35.2199097,37.5270971 35.4149719,37.1363714 C35.609633,36.7464476 35.6409071,36.3039993 35.5033813,35.890219 C35.2818565,35.2228379 34.6591812,34.7737739 33.9541108,34.7737739 Z M33.9541108,35.9766237 C34.1343378,35.9766237 34.3021353,36.090293 34.3620773,36.2703196 C34.4372554,36.4960544 34.3153667,36.7396314 34.0904338,36.8148096 L30.2788032,38.084618 C30.2338968,38.0998541 30.1877876,38.1070712 30.1428812,38.1070712 C29.9626542,38.1070712 29.7948567,37.9926 29.7347142,37.8127739 C29.6595361,37.5870391 29.7814248,37.3432616 30.0069592,37.2682839 L33.8179883,35.998676 C33.8632956,35.9836404 33.9092044,35.9766237 33.9541108,35.9766237 L33.9541108,35.9766237 Z"></path>
            <path fill="#FFFFFE" id="Fill-64" d="M30.1430817,36.6726728 C29.6980273,36.6726728 29.3046954,36.3888003 29.1645634,35.9666 C29.0773568,35.7057821 29.0972038,35.4261195 29.2204959,35.1795353 C29.2515695,35.117388 29.2884569,35.0592503 29.3301557,35.005523 C29.1932313,34.8303079 29.1114375,34.6099859 29.1114375,34.3710197 C29.1114375,32.7606043 28.4482663,31.7000918 27.6804472,30.4721826 C26.8623089,29.1624797 25.9359141,27.6791654 25.9359141,25.4789526 C25.9359141,22.2799736 28.8494167,19.3662705 32.0485962,19.3662705 C35.2471743,19.3662705 38.1610779,22.2799736 38.1616794,25.4789526 C38.1616794,27.6795663 37.235485,29.1626801 36.4181486,30.4709798 C35.6493271,31.7002922 34.9863564,32.7610053 34.9863564,34.3712202 L34.9863564,34.4183318 L34.9817455,34.4490045 C34.9793398,34.4760686 34.9763326,34.5019299 34.9719222,34.5277912 C34.9689151,34.5512467 34.9633018,34.5835232 34.9552828,34.6162006 C34.9464619,34.6506823 34.9370395,34.6801521 34.9272163,34.70882 C34.9185958,34.7350823 34.905164,34.7701654 34.889527,34.8040457 C34.8780999,34.8293055 34.8630643,34.856971 34.8474272,34.8838347 C34.8273797,34.9181159 34.8103394,34.945581 34.7910938,34.9722442 C34.7770605,34.9924921 34.7576144,35.0165491 34.7375669,35.0398042 L34.7245361,35.0550403 C34.7052905,35.0766916 34.6862454,35.097541 34.665396,35.1175885 C34.6331195,35.1470583 34.613072,35.1632968 34.5924231,35.1795353 C34.5543328,35.2092056 34.5250635,35.230055 34.4939899,35.2491001 C34.469131,35.2635343 34.4170075,35.2918012 34.4170075,35.2918012 C34.4170075,35.2918012 34.3650845,35.3158582 34.3464403,35.3236768 L34.3219823,35.3359057 L30.469054,36.6197474 C30.364807,36.6548305 30.2549467,36.6726728 30.1430817,36.6726728"></path>
            <path fill="#243746" id="Fill-65" d="M32.0483958,18.7648456 C30.3569885,18.7648456 28.6483403,19.5033953 27.3606896,20.7912465 C26.0730389,22.0788972 25.3344892,23.7873449 25.3344892,25.4789526 C25.3344892,27.8519748 26.3095994,29.4130734 27.1700379,30.7901359 C27.9190124,31.9879738 28.5100126,32.9338147 28.5100126,34.3710197 C28.5100126,34.5959526 28.5557209,34.8104609 28.6387175,35.0059239 C28.4833494,35.3717908 28.467111,35.7767502 28.5938112,36.1572517 C28.8161379,36.8250338 29.4390136,37.2740977 30.1430817,37.2740977 C30.3213039,37.2740977 30.4963186,37.2454298 30.6635147,37.1888958 L34.4707348,35.9200898 L34.4811595,35.9164812 L34.4833647,35.9158798 L34.4855699,35.9150779 L34.5501229,35.8936271 L34.5952297,35.8711739 C34.6170815,35.8621525 34.6381314,35.8523293 34.6589808,35.842506 L34.6800306,35.8324822 L34.7024838,35.8208547 C34.7353617,35.8040148 34.7666358,35.7867739 34.7963061,35.7691321 L34.8011175,35.766125 L34.8061294,35.7631179 C34.8696799,35.7246267 34.9181949,35.6879398 34.953679,35.6606752 L34.9558842,35.6588709 L34.9624999,35.6536586 C34.9967811,35.6269954 35.029258,35.5999313 35.0611335,35.5706619 L35.0705559,35.5620415 L35.0797777,35.5534211 C35.1126556,35.521746 35.1441302,35.4884672 35.1740009,35.4545869 L35.1852275,35.4421575 L35.1986594,35.4261195 C35.2291316,35.3902345 35.257599,35.3543494 35.2842622,35.3168606 C35.3201472,35.2669424 35.3492161,35.2172246 35.3632493,35.1931676 C35.3844997,35.1568816 35.40996,35.1123762 35.4366231,35.0542384 C35.4658925,34.9910888 35.4863409,34.9335525 35.4995723,34.8938584 C35.5144074,34.8497539 35.5280397,34.8056495 35.5390659,34.7607431 C35.5545024,34.6981949 35.5631229,34.6456704 35.5687362,34.604974 C35.5739485,34.5696904 35.5781585,34.5352087 35.5809651,34.501128 C35.585576,34.4578254 35.5877813,34.4149237 35.5877813,34.3712202 C35.5877813,32.9332133 36.1789819,31.9877733 36.9271545,30.7911383 C37.7881945,29.4128729 38.7631043,27.8519748 38.7631043,25.4791531 C38.7627033,23.7873449 38.0239531,22.0788972 36.7363023,20.7912465 C35.4484512,19.5033953 33.7400035,18.7648456 32.0483958,18.7648456 Z M32.0483958,19.9676954 C34.9328296,19.9676954 37.559653,22.5945188 37.5602545,25.4791531 C37.5602545,27.5077593 36.7198634,28.8527458 35.9073384,30.1534274 C35.1242832,31.405594 34.3849315,32.5885968 34.3849315,34.3712202 C34.3849315,34.376633 34.3833277,34.3818454 34.3829267,34.3872582 C34.3825258,34.4022938 34.3807215,34.417129 34.3783158,34.4315632 C34.376712,34.4453959 34.3747073,34.4588278 34.3712992,34.4722596 C34.3680916,34.4852905 34.3636811,34.4981209 34.3594712,34.5103498 C34.3546598,34.524784 34.3500488,34.5384163 34.3438341,34.5514472 C34.3384213,34.5630747 34.3316051,34.5745018 34.3251899,34.5855279 C34.3179728,34.5979574 34.3105553,34.6101864 34.3021353,34.6220144 C34.2943168,34.633241 34.2852954,34.6432647 34.2764745,34.6538899 C34.2674531,34.6641141 34.2586323,34.6743384 34.248809,34.6837607 C34.2383843,34.693183 34.2273582,34.7016029 34.2161316,34.7104238 C34.204905,34.7190443 34.1938788,34.7274642 34.1820508,34.7348818 C34.1710247,34.741297 34.1593971,34.7475117 34.1471682,34.7539269 C34.1335359,34.7603421 34.1191017,34.7673587 34.1046675,34.7727716 C34.0996556,34.7741749 34.0954456,34.777182 34.0904338,34.7787858 L30.2790037,36.0491957 C30.2340973,36.0642313 30.1881886,36.0712479 30.1430817,36.0712479 C29.9630552,36.0712479 29.7950571,35.9571777 29.7351151,35.7769507 C29.659937,35.5518173 29.7816253,35.3082402 30.0071597,35.2332626 L31.3032303,34.801239 L30.1430817,34.801239 C29.9053184,34.801239 29.7128624,34.6085826 29.7128624,34.3710197 C29.7128624,32.5885968 28.9731098,31.4053936 28.1904555,30.1530265 C27.3775295,28.8523449 26.537339,27.5073583 26.537339,25.4789526 C26.537339,22.5945188 29.1641624,19.9676954 32.0483958,19.9676954 L32.0483958,19.9676954 Z"></path>
            <path fill="#243746" id="Fill-66" d="M34.3273952,27.0382469 C33.3368484,28.5239669 33.3254213,30.5333275 33.3254213,30.5531745 C33.3254213,30.6832827 33.2201719,30.7885321 33.0902642,30.7885321 C32.9599554,30.7885321 32.8549065,30.6832827 32.8549065,30.5531745 C32.8549065,30.4719821 32.8653312,28.6801369 33.7141422,27.1428949 L33.0900637,27.1428949 C33.0531763,27.1428949 33.0178927,27.1346754 32.9868191,27.1190383 L32.779528,27.5340215 C32.7308125,27.6316528 32.6199499,27.6817716 32.5151015,27.6577146 C32.4088497,27.6324547 32.3340726,27.5378305 32.3340726,27.4285717 L32.3340726,27.3832643 L32.2584935,27.5340215 C32.2095776,27.6316528 32.1011207,27.6821725 31.994067,27.6577146 C31.8880158,27.6324547 31.8130381,27.5378305 31.8130381,27.4285717 L31.8130381,27.3832643 L31.7376596,27.5340215 C31.6887437,27.6316528 31.5800862,27.6821725 31.4730326,27.6577146 C31.3671818,27.6324547 31.2922042,27.5378305 31.2922042,27.4285717 L31.2922042,27.3836653 L31.2172265,27.5340215 C31.1687116,27.6308509 31.0598537,27.6821725 30.9528001,27.6573136 C30.8465483,27.6326552 30.7717712,27.5374296 30.7717712,27.4287722 L30.7717712,27.1430953 L30.3830502,27.1430953 C31.2314603,28.6803374 31.2420854,30.4723831 31.2420854,30.553375 C31.2420854,30.6834832 31.1366356,30.7887326 31.0069283,30.7887326 L31.0067278,30.7887326 C30.8770205,30.7887326 30.7717712,30.6834832 30.7715707,30.5537759 C30.7715707,30.5337284 30.7577379,28.5209598 29.7693963,27.0384474 C29.7212824,26.9662764 29.7168719,26.873657 29.7577688,26.797276 C29.7986657,26.7206946 29.8782543,26.6727811 29.9650599,26.6727811 L31.0065274,26.6727811 C31.0434148,26.6727811 31.0784979,26.681602 31.109371,26.6968381 L31.3166621,26.2822558 C31.3653775,26.1846245 31.4742355,26.1333029 31.5808881,26.1583623 C31.6873403,26.1834217 31.7621175,26.2782463 31.7621175,26.3873047 L31.7621175,26.432612 L31.8374961,26.2820553 C31.886412,26.184424 31.9952699,26.1335034 32.1019226,26.1583623 C32.2079738,26.1834217 32.2829515,26.2782463 32.2829515,26.3873047 L32.2829515,26.432612 L32.3583301,26.2820553 C32.406845,26.184424 32.5169058,26.1331025 32.6227565,26.1583623 C32.7290083,26.1834217 32.8039859,26.2782463 32.8039859,26.3873047 L32.8039859,26.432612 L32.8793645,26.2820553 C32.9280799,26.184424 33.0379402,26.1331025 33.1435905,26.1583623 C33.2498422,26.1834217 33.3248199,26.2782463 33.3248199,26.3873047 L33.3248199,26.6727811 L34.1315311,26.6727811 C34.2183368,26.6727811 34.2979253,26.7206946 34.3388222,26.797276 C34.3803206,26.8734565 34.3757096,26.9660759 34.3273952,27.0382469"></path>
            <path fill="#F3B92D" id="Fill-67" d="M32.0489972,21.351975 C32.0489972,21.351975 35.1736,21.351975 35.694033,24.4765782 C35.6868159,24.4775802 35.1736,22.3936429 32.0489972,21.351975"></path>
            <path fill="#243746" id="Fill-68" d="M1.93785784,1.28984378 C1.62732212,1.28984378 1.46393502,1.51878619 1.44769655,1.78842502 L0.0912829343,1.78842502 C0.189315192,0.857018327 0.867522001,0.11345668 1.93785784,0.11345668 C3.0408711,0.11345668 3.73551686,0.742547122 3.73551686,1.67395381 C3.73551686,2.3194832 3.27783251,2.77696707 2.77123227,3.26732884 L1.94607731,4.0844648 L3.75175533,4.0844648 L3.75175533,5.211936 L0.11574088,5.211936 L0.11574088,4.3703421 L1.83982558,2.65447687 C2.18303872,2.30324473 2.41178066,2.04984437 2.41178066,1.7557476 C2.41178066,1.48610877 2.23195462,1.28984378 1.93785784,1.28984378"></path>
            <path fill="#243746" id="Fill-69" d="M5.45138209,2.70359323 C5.45138209,3.47963183 5.6803245,4.14160016 6.26049905,4.14160016 C6.84047312,4.14160016 7.06941553,3.47963183 7.06941553,2.70359323 C7.06941553,1.92735417 6.84047312,1.26538583 6.26049905,1.26538583 C5.6803245,1.26538583 5.45138209,1.92735417 5.45138209,2.70359323 Z M4.18498173,2.70359323 C4.18498173,1.17557305 5.02657563,0.11345668 6.26049905,0.11345668 C7.49422198,0.11345668 8.34383489,1.17557305 8.34383489,2.70359323 C8.34383489,4.23141295 7.49422198,5.29352931 6.26049905,5.29352931 C5.02657563,5.29352931 4.18498173,4.23141295 4.18498173,2.70359323 L4.18498173,2.70359323 Z"></path>
            <polyline points="11.0977595 5.211936 9.82334013 5.211936 9.82334013 1.61681845 8.65497203 2.18075452 8.65497203 0.938611638 10.2154692 0.195250466 11.0977595 0.195250466 11.0977595 5.211936" fill="#243746" id="Fill-70"></polyline>
            <path fill="#243746" id="Fill-71" d="M13.6145222,1.16735357 C13.2223932,1.16735357 12.9280959,1.44521188 12.9280959,1.84556038 C12.9280959,2.25412836 13.2223932,2.53198666 13.6145222,2.53198666 C14.0148707,2.53198666 14.292729,2.25412836 14.292729,1.84556038 C14.292729,1.44521188 14.0148707,1.16735357 13.6145222,1.16735357 Z M13.0345481,3.84730291 C13.107922,4.06802585 13.2795285,4.22319347 13.5654058,4.22319347 C14.0475481,4.22319347 14.3334254,3.69213529 14.3416449,3.1690961 L14.3416449,3.12839969 C14.1946968,3.34090315 13.8514836,3.50429025 13.4184577,3.50429025 C12.3970377,3.50429025 11.7597278,2.77696707 11.7597278,1.8782378 C11.7597278,0.8732568 12.4706121,0.11345668 13.6227417,0.11345668 C14.2682711,0.11345668 14.8235867,0.415772928 15.1587809,0.946831112 C15.4528776,1.38807651 15.5753678,1.92735417 15.5753678,2.58912203 C15.5753678,4.15783863 14.8400257,5.29352931 13.5736253,5.29352931 C12.5768638,5.29352931 11.9640118,4.72999419 11.8006247,3.84730291 L13.0345481,3.84730291 L13.0345481,3.84730291 Z"></path>
            <path fill="#243746" id="Fill-72" d="M62.1054069,36.7987716 L63.1350463,36.7987716 L62.6202266,35.3854231 L62.1054069,36.7987716 Z M63.3064524,33.8327444 L65.2183821,38.8498309 L63.8868274,38.8498309 L63.5271753,37.8775274 L61.7050583,37.8775274 L61.3538262,38.8498309 L60.0547484,38.8498309 L61.9666782,33.8327444 L63.3064524,33.8327444 L63.3064524,33.8327444 Z"></path>
            <polyline points="68.7649847 33.8327444 69.5330043 36.7823326 70.2276501 33.8327444 71.5511858 33.8327444 70.2276501 38.8498309 69.0264041 38.8498309 68.250165 35.9084622 67.465907 38.8498309 66.2648614 38.8498309 64.9493447 33.8327444 66.2893194 33.8327444 66.9919841 36.7823326 67.7682232 33.8327444 68.7649847 33.8327444" fill="#243746" id="Fill-73"></polyline>
            <path fill="#243746" id="Fill-74" d="M73.3330073,36.7987716 L74.3626467,36.7987716 L73.847827,35.3854231 L73.3330073,36.7987716 Z M74.5340528,33.8327444 L76.4459826,38.8498309 L75.1144278,38.8498309 L74.7547758,37.8775274 L72.9326588,37.8775274 L72.5814267,38.8498309 L71.2821484,38.8498309 L73.1942786,33.8327444 L74.5340528,33.8327444 L74.5340528,33.8327444 Z"></path>
            <path fill="#243746" id="Fill-75" d="M78.1786877,36.1454237 L78.9956232,36.1454237 C79.4613265,36.1454237 79.67383,35.9084622 79.67383,35.5407912 C79.67383,35.1731201 79.4613265,34.9357577 78.9956232,34.9357577 L78.1786877,34.9357577 L78.1786877,36.1454237 Z M78.1786877,37.1911011 L78.1786877,38.8498309 L76.8794094,38.8498309 L76.8794094,33.8327444 L79.1343518,33.8327444 C80.2129072,33.8327444 80.9564688,34.4455964 80.9564688,35.5407912 C80.9564688,36.3003908 80.5725593,36.82343 79.9599078,37.0521719 L81.1362949,38.8498309 L79.6820495,38.8498309 L78.6361716,37.1911011 L78.1786877,37.1911011 L78.1786877,37.1911011 Z"></path>
            <path fill="#243746" id="Fill-76" d="M83.4000582,37.7139398 C84.2334326,37.7139398 84.6991359,37.1828816 84.6991359,36.3414882 C84.6991359,35.4914743 84.2334326,34.9604161 83.4000582,34.9604161 L82.8607805,34.9604161 L82.8607805,37.7139398 L83.4000582,37.7139398 Z M81.5699222,33.8327444 L83.465413,33.8327444 C85.0423491,33.8327444 85.9984142,34.8132675 85.9984142,36.3414882 C85.9984142,37.8693079 85.0423491,38.8498309 83.465413,38.8498309 L81.5699222,38.8498309 L81.5699222,33.8327444 L81.5699222,33.8327444 Z"></path>
            <path fill="#243746" id="Fill-77" d="M4.44018636,10.0163186 L2.84480659,10.0163186 L2.84480659,12.6579772 L4.44018636,12.6579772 C5.43514361,12.6579772 5.88140089,12.1261171 5.88140089,11.3372481 C5.88140089,10.5307373 5.43514361,10.0163186 4.44018636,10.0163186 Z M2.84480659,14.9568236 L2.84480659,18.2333864 L0.11734468,18.2333864 L0.11734468,7.70023127 L4.73207791,7.70023127 C7.01348302,7.70023127 8.5575412,8.9868796 8.5575412,11.3372481 C8.5575412,13.6701753 7.01348302,14.9568236 4.73207791,14.9568236 L2.84480659,14.9568236 L2.84480659,14.9568236 Z"></path>
            <path fill="#243746" id="Fill-78" d="M12.4692087,12.5551335 L14.1848735,12.5551335 C15.1625899,12.5551335 15.6084462,12.0575546 15.6084462,11.285726 C15.6084462,10.5136969 15.1625899,10.0163186 14.1848735,10.0163186 L12.4692087,10.0163186 L12.4692087,12.5551335 Z M12.4692087,14.7509358 L12.4692087,18.2333864 L9.74174682,18.2333864 L9.74174682,7.70023127 L14.4763641,7.70023127 C16.7409293,7.70023127 18.3020278,8.9868796 18.3020278,11.285726 C18.3020278,12.8811058 17.4957175,13.9789067 16.2090692,14.4594452 L18.6793217,18.2333864 L15.6256871,18.2333864 L13.4298848,14.7509358 L12.4692087,14.7509358 L12.4692087,14.7509358 Z"></path>
            <path fill="#243746" id="Fill-79" d="M24.306654,9.94755564 C22.8828808,9.94755564 21.9562855,11.1484007 21.9562855,12.9667086 C21.9562855,14.785217 22.8828808,15.9860621 24.306654,15.9860621 C25.7306277,15.9860621 26.6911033,14.785217 26.6911033,12.9667086 C26.6911033,11.1484007 25.7306277,9.94755564 24.306654,9.94755564 Z M24.306654,18.4047925 C21.2702602,18.4047925 19.1773015,16.1063471 19.1773015,12.9667086 C19.1773015,9.81023029 21.2702602,7.52882518 24.306654,7.52882518 C27.3602887,7.52882518 29.4702877,9.81023029 29.4702877,12.9667086 C29.4702877,16.1063471 27.3602887,18.4047925 24.306654,18.4047925 L24.306654,18.4047925 Z"></path>
            <path fill="#243746" id="Fill-80" d="M34.4627158,15.8487367 C36.2124613,15.8487367 37.1903781,14.7338954 37.1903781,12.9667086 C37.1903781,11.1826819 36.2124613,10.0678406 34.4627158,10.0678406 L33.3306336,10.0678406 L33.3306336,15.8487367 L34.4627158,15.8487367 Z M30.6200116,7.70023127 L34.6000411,7.70023127 C37.9106847,7.70023127 39.9180405,9.75890869 39.9180405,12.9667086 C39.9180405,16.174709 37.9106847,18.2333864 34.6000411,18.2333864 L30.6200116,18.2333864 L30.6200116,7.70023127 L30.6200116,7.70023127 Z"></path>
            <path fill="#243746" id="Fill-81" d="M40.9478804,13.9273847 L40.9478804,7.70023127 L43.6925832,7.70023127 L43.6925832,13.6872156 C43.6925832,15.1799522 44.3960498,15.9517809 45.5453728,15.9517809 C46.6776554,15.9517809 47.3811221,15.1799522 47.3811221,13.6872156 L47.3811221,7.70023127 L50.1258248,7.70023127 L50.1258248,13.9446255 C50.1258248,16.8266536 48.3245573,18.4047925 45.5453728,18.4047925 C42.7663888,18.4047925 40.9478804,16.8266536 40.9478804,13.9273847"></path>
            <path fill="#243746" id="Fill-82" d="M56.2334951,7.52882518 C58.8583138,7.52882518 60.4021715,9.08992373 60.7796659,11.234204 L58.0347627,11.234204 C57.7603125,10.4621749 57.1941712,9.94755564 56.2334951,9.94755564 C54.7754407,9.94755564 53.9518895,11.234204 53.9518895,12.9667086 C53.9518895,14.6823734 54.7754407,15.9860621 56.2334951,15.9860621 C57.1941712,15.9860621 57.7603125,15.4714428 58.0347627,14.6823734 L60.7796659,14.6823734 C60.4021715,16.843694 58.8583138,18.4047925 56.2334951,18.4047925 C53.2829046,18.4047925 51.1729056,16.1576686 51.1729056,12.9667086 C51.1729056,9.77594907 53.2829046,7.52882518 56.2334951,7.52882518"></path>
            <polyline points="61.2948866 7.70023127 70.5586343 7.70023127 70.5586343 10.0678406 67.2991118 10.0678406 67.2991118 18.2333864 64.5373687 18.2333864 64.5373687 10.0678406 61.2948866 10.0678406 61.2948866 7.70023127" fill="#243746" id="Fill-83"></polyline>
        </g>
        <g fill-rule="nonzero" fill="#243746" transform="translate(68.787500, 63.191637)" id="Product-Innovator-Aw">
            <path id="Shape" d="M58.15,1.05 L51.25,1.05 L51.25,1.425 C51.75,1.525 52.575,1.975 52.575,3.825 L52.575,16.4 C52.575,17.9 51.75,18.6 51.25,18.7 L51.25,19.05 L57.4,19.05 L57.4,18.7 C56.9,18.6 56.125,18.025 56.125,16.4 L56.125,11.275 L58.65,11.275 C62.125,11.275 65.2,9.3 65.2,6.175 C65.2,2.975 62.625,1.05 58.15,1.05 Z M58.075,10.825 C56.925,10.825 56.375,10.65 56.125,10.575 L56.125,1.5 L57.35,1.5 C59.7,1.5 61.675,3.525 61.675,6.175 C61.675,8.9 60.3,10.825 58.075,10.825 Z"></path>
            <path id="Path" d="M74.125,6.225 C72.5,6.225 71.325,7.3 70.55,9.4 L70.525,9.425 L70.975,6.1 L66.375,7.025 L66.375,7.4 C66.875,7.525 67.725,7.95 67.725,9.55 L67.725,16.4 C67.725,17.9 66.875,18.625 66.375,18.725 L66.375,19.05 L72.25,19.05 L72.25,18.7 C71.75,18.6 70.95,18.05 70.95,16.4 L70.95,9.65 C71.325,8.8 71.9,8.05 72.375,8.05 C73.25,8.05 72.95,9.675 74.45,9.675 C75.3,9.675 76.05,9 76.05,8.025 C76.05,6.925 75.2,6.225 74.125,6.225 Z"></path>
            <path id="Shape" d="M83.1,19.375 C86.7,19.375 89.625,16.4 89.625,12.8 C89.625,9.2 86.7,6.225 83.1,6.225 C79.5,6.225 76.6,9.2 76.6,12.8 C76.6,16.4 79.5,19.375 83.1,19.375 Z M84.1,18.8 C81.7,18.8 80,13.9 80,10.775 C80,8.475 80.775,6.825 82.075,6.825 C84.45,6.825 86.2,11.625 86.2,14.725 C86.2,17.075 85.4,18.8 84.1,18.8 Z"></path>
            <path id="Shape" d="M103.25,-7.10542736e-15 L98.675,0.9 L98.675,1.275 C99.175,1.275 100.025,1.85 100.025,3.45 L100.025,7.475 C99.225,6.75 98.15,6.225 96.9,6.225 C93.675,6.225 91.3,9.25 91.3,12.825 C91.3,16.425 93.425,19.375 96.775,19.375 C98.275,19.375 99.45,18.7 100.45,17.175 L100.175,19.05 L104.6,19.05 L104.6,18.675 C104.1,18.575 103.25,18 103.25,16.4 L103.25,-7.10542736e-15 Z M97.75,18.425 C95.55,18.425 94.575,15.325 94.575,11.75 C94.575,9.275 94.95,6.775 97.025,6.775 C98.35,6.775 99.425,7.825 100.025,9.25 L100.025,16.85 C99.4,17.85 98.6,18.425 97.75,18.425 Z"></path>
            <path id="Path" d="M111.15,19.375 C113,19.375 114.7,18.05 115.35,16.05 L115.1,19.05 L119.65,19.05 L119.65,18.7 C119.15,18.6 118.35,18.2 118.35,16.4 L118.35,6.1 L113.775,7 L113.775,7.375 C114.275,7.375 115.1,7.8 115.1,9.45 L115.1,14.8 C115.1,15.95 114.325,17.625 113,17.625 C111.5,17.625 110.725,16.3 110.725,14.05 L110.725,6.1 L106.15,7 L106.15,7.375 C106.65,7.375 107.5,7.9 107.5,9.45 L107.5,14.05 C107.5,17.2 108.4,19.375 111.15,19.375 Z"></path>
            <path id="Path" d="M127.175,19.375 C129.25,19.375 131.45,18.3 132.35,15.625 L132.35,14.925 C131.475,16.575 129.875,17.1 128.8,17.1 C125.95,17.1 123.95,14.65 123.95,10.875 C123.95,8.4 125.025,6.725 127.175,6.725 C128.675,6.725 129.575,7.75 129.575,8.5 C129.575,9.3 129,9.525 129,10.375 C129,11.35 129.825,11.95 130.6,11.95 C131.4,11.95 132.275,11.125 132.275,9.9 C132.275,8 130.075,6.225 127.6,6.225 C123.8,6.225 121.075,9.3 121.075,12.775 C121.075,16.375 123.8,19.375 127.175,19.375 Z"></path>
            <path id="Path" d="M141.625,6.075 C140.65,6.375 139.35,6.55 138.35,6.55 L138.35,1.85 L137.95,1.85 C137.3,3.725 135.275,6.05 133.275,6.55 L133.275,7.175 L135.125,7.175 L135.125,15.65 C135.125,18.25 136.425,19.35 137.95,19.35 C139.85,19.35 140.95,18.375 141.2,18.1 L141.2,17.725 C140.75,18.075 138.35,18.875 138.35,15.35 L138.35,7.175 L141.475,7.175 L141.625,6.075 Z"></path>
            <path id="Path" d="M6.2,46.05 L6.2,45.675 C5.7,45.575 4.85,45.275 4.85,43.425 L4.85,30.65 C4.85,28.8 5.7,28.525 6.2,28.425 L6.2,28.05 L0,28.05 L0,28.425 C0.5,28.525 1.35,28.8 1.35,30.65 L1.35,43.4 C1.35,45.275 0.5,45.575 0,45.675 L0,46.05 L6.2,46.05 Z"></path>
            <path id="Path" d="M20.525,37.9 C20.525,35.075 19.125,33.225 16.375,33.225 C14.675,33.225 13.3,34.35 12.55,36.225 L12.975,33.1 L8.375,34.025 L8.375,34.4 C8.875,34.525 9.725,34.95 9.725,36.55 L9.725,43.4 C9.725,44.9 8.875,45.625 8.375,45.725 L8.375,46.05 L14.25,46.05 L14.25,45.7 C13.75,45.6 12.95,45.05 12.95,43.4 L12.95,36.25 C13.525,34.975 14.425,34.2 15.35,34.2 C16.65,34.2 17.3,35.1 17.3,38.25 L17.3,43.4 C17.3,44.875 16.475,45.6 15.975,45.7 L15.975,46.05 L21.875,46.05 L21.875,45.7 C21.375,45.6 20.525,44.875 20.525,43.4 L20.525,37.9 Z"></path>
            <path id="Path" d="M35.45,37.9 C35.45,35.075 34.05,33.225 31.3,33.225 C29.6,33.225 28.225,34.35 27.475,36.225 L27.9,33.1 L23.3,34.025 L23.3,34.4 C23.8,34.525 24.65,34.95 24.65,36.55 L24.65,43.4 C24.65,44.9 23.8,45.625 23.3,45.725 L23.3,46.05 L29.175,46.05 L29.175,45.7 C28.675,45.6 27.875,45.05 27.875,43.4 L27.875,36.25 C28.45,34.975 29.35,34.2 30.275,34.2 C31.575,34.2 32.225,35.1 32.225,38.25 L32.225,43.4 C32.225,44.875 31.4,45.6 30.9,45.7 L30.9,46.05 L36.8,46.05 L36.8,45.7 C36.3,45.6 35.45,44.875 35.45,43.4 L35.45,37.9 Z"></path>
            <path id="Shape" d="M44.6,46.375 C48.2,46.375 51.125,43.4 51.125,39.8 C51.125,36.2 48.2,33.225 44.6,33.225 C41,33.225 38.1,36.2 38.1,39.8 C38.1,43.4 41,46.375 44.6,46.375 Z M45.6,45.8 C43.2,45.8 41.5,40.9 41.5,37.775 C41.5,35.475 42.275,33.825 43.575,33.825 C45.95,33.825 47.7,38.625 47.7,41.725 C47.7,44.075 46.9,45.8 45.6,45.8 Z"></path>
            <path id="Path" d="M60.75,33.875 C61.6,34.05 62.375,34.725 61.9,36.525 C61.65,37.5 61.15,38.75 60.8,39.65 C60.05,41.55 59.625,42.6 59.325,43.55 C59,42.3 57.6,38.7 57.075,37.15 C56.275,34.775 56.775,34.075 57.625,33.9 L57.625,33.55 L51.425,33.55 L51.425,33.9 C52.2,34.15 52.925,34.825 53.675,36.875 C54.45,38.95 56,42.7 57.15,46.5 C57.775,46.05 58.8,45.625 59.675,45.475 C59.45,44.025 60.1,42.7 61.25,39.8 C61.6,38.9 62.125,37.6 62.575,36.65 C63.375,34.925 64.2,34.1 65.2,33.9 L65.2,33.55 L60.75,33.55 L60.75,33.875 Z"></path>
            <path id="Shape" d="M69,46.375 C70.3,46.375 71.975,45.75 72.875,44.2 C72.925,45.425 73.8,46.375 75.25,46.375 C76.1,46.375 77.25,45.725 77.7,44.925 L77.7,44.55 C76.425,45.175 76.025,44.425 76.025,42.875 L76.025,38.825 C76.025,35 74.575,33.225 70.725,33.225 C68.275,33.225 66.075,34.925 66.075,36.7 C66.075,37.65 66.6,38.425 67.6,38.425 C68.625,38.425 69.325,37.85 69.325,37.05 C69.325,36.15 68.95,35.975 68.95,35.175 C68.95,34.6 69.325,33.725 70.525,33.725 C71.775,33.725 72.85,34.625 72.85,36.9 L72.85,38.7 C71,39.225 65.45,39.825 65.45,43.225 C65.45,45.425 66.925,46.375 69,46.375 Z M70.65,44.85 C69.525,44.85 68.75,44.075 68.75,42.6 C68.75,40.525 71.1,39.925 72.85,39.15 L72.85,42.625 C72.85,44.1 71.525,44.85 70.65,44.85 Z"></path>
            <path id="Path" d="M86.725,33.075 C85.75,33.375 84.45,33.55 83.45,33.55 L83.45,28.85 L83.05,28.85 C82.4,30.725 80.375,33.05 78.375,33.55 L78.375,34.175 L80.225,34.175 L80.225,42.65 C80.225,45.25 81.525,46.35 83.05,46.35 C84.95,46.35 86.05,45.375 86.3,45.1 L86.3,44.725 C85.85,45.075 83.45,45.875 83.45,42.35 L83.45,34.175 L86.575,34.175 L86.725,33.075 Z"></path>
            <path id="Shape" d="M93.775,46.375 C97.375,46.375 100.3,43.4 100.3,39.8 C100.3,36.2 97.375,33.225 93.775,33.225 C90.175,33.225 87.275,36.2 87.275,39.8 C87.275,43.4 90.175,46.375 93.775,46.375 Z M94.775,45.8 C92.375,45.8 90.675,40.9 90.675,37.775 C90.675,35.475 91.45,33.825 92.75,33.825 C95.125,33.825 96.875,38.625 96.875,41.725 C96.875,44.075 96.075,45.8 94.775,45.8 Z"></path>
            <path id="Path" d="M109.6,33.225 C107.975,33.225 106.8,34.3 106.025,36.4 L106,36.425 L106.45,33.1 L101.85,34.025 L101.85,34.4 C102.35,34.525 103.2,34.95 103.2,36.55 L103.2,43.4 C103.2,44.9 102.35,45.625 101.85,45.725 L101.85,46.05 L107.725,46.05 L107.725,45.7 C107.225,45.6 106.425,45.05 106.425,43.4 L106.425,36.65 C106.8,35.8 107.375,35.05 107.85,35.05 C108.725,35.05 108.425,36.675 109.925,36.675 C110.775,36.675 111.525,36 111.525,35.025 C111.525,33.925 110.675,33.225 109.6,33.225 Z"></path>
            <path id="Shape" d="M128.3,27.2 C127.3,27.825 126.2,28.425 125.175,28.65 C125.25,29.125 125.275,29.525 125.275,29.875 C125.275,30.975 124.875,32.175 123.3,37.3 C122.9,38.625 122.35,40.2 121.475,42.925 C120.75,45.175 119.575,45.625 118.625,45.675 L118.625,46.05 L124.125,46.05 L124.125,45.675 C123.375,45.6 122.25,45.325 122.25,43.575 C122.25,42.85 122.625,41.45 123.1,39.85 L128.725,39.85 L129.2,41.325 C129.55,42.4 129.8,43.4 129.8,44 C129.8,45.225 129.175,45.425 128.525,45.675 L128.525,46.05 L135.625,46.05 L135.625,45.675 C133.9,45.175 133.375,43.225 132.6,40.75 L128.3,27.2 Z M123.25,39.35 C123.425,38.7 123.65,38.025 123.85,37.375 C124.675,34.625 125.55,31.9 125.725,30.55 L128.575,39.35 L123.25,39.35 Z"></path>
            <path id="Path" d="M151.1,33.875 C151.95,34.05 152.725,34.725 152.25,36.525 C152,37.5 151.5,38.75 151.15,39.65 C150.4,41.55 149.975,42.6 149.675,43.55 C149.35,42.3 147.95,38.7 147.425,37.15 C146.625,34.775 147.125,34.075 147.975,33.9 L147.975,33.55 L141.775,33.55 L141.775,33.9 C142.55,34.15 143.275,34.825 144.025,36.875 C144.175,37.25 144.325,37.675 144.5,38.125 L143.925,39.65 C143.175,41.55 142.75,42.6 142.45,43.55 C142.15,42.325 140.725,38.675 140.2,37.15 C139.4,34.775 140.125,34 140.75,33.9 L140.75,33.55 L134.55,33.55 L134.55,33.9 C135.125,34.05 136.025,34.725 136.775,36.775 C137.55,38.85 139.125,42.7 140.275,46.5 C140.975,45.975 141.925,45.575 142.8,45.475 C142.575,44.025 143.225,42.7 144.375,39.8 L144.775,38.825 C145.575,40.925 146.65,43.7 147.5,46.5 C148.125,46.05 149.15,45.625 150.025,45.475 C149.8,44.025 150.45,42.7 151.6,39.8 C151.95,38.9 152.475,37.6 152.925,36.65 C153.725,34.925 154.55,34.1 155.55,33.9 L155.55,33.55 L151.1,33.55 L151.1,33.875 Z"></path>
            <path id="Shape" d="M159.35,46.375 C160.65,46.375 162.325,45.75 163.225,44.2 C163.275,45.425 164.15,46.375 165.6,46.375 C166.45,46.375 167.6,45.725 168.05,44.925 L168.05,44.55 C166.775,45.175 166.375,44.425 166.375,42.875 L166.375,38.825 C166.375,35 164.925,33.225 161.075,33.225 C158.625,33.225 156.425,34.925 156.425,36.7 C156.425,37.65 156.95,38.425 157.95,38.425 C158.975,38.425 159.675,37.85 159.675,37.05 C159.675,36.15 159.3,35.975 159.3,35.175 C159.3,34.6 159.675,33.725 160.875,33.725 C162.125,33.725 163.2,34.625 163.2,36.9 L163.2,38.7 C161.35,39.225 155.8,39.825 155.8,43.225 C155.8,45.425 157.275,46.375 159.35,46.375 Z M161,44.85 C159.875,44.85 159.1,44.075 159.1,42.6 C159.1,40.525 161.45,39.925 163.2,39.15 L163.2,42.625 C163.2,44.1 161.875,44.85 161,44.85 Z"></path>
            <path id="Path" d="M176.975,33.225 C175.35,33.225 174.175,34.3 173.4,36.4 L173.375,36.425 L173.825,33.1 L169.225,34.025 L169.225,34.4 C169.725,34.525 170.575,34.95 170.575,36.55 L170.575,43.4 C170.575,44.9 169.725,45.625 169.225,45.725 L169.225,46.05 L175.1,46.05 L175.1,45.7 C174.6,45.6 173.8,45.05 173.8,43.4 L173.8,36.65 C174.175,35.8 174.75,35.05 175.225,35.05 C176.1,35.05 175.8,36.675 177.3,36.675 C178.15,36.675 178.9,36 178.9,35.025 C178.9,33.925 178.05,33.225 176.975,33.225 Z"></path>
            <path id="Shape" d="M191.4,27 L186.825,27.9 L186.825,28.275 C187.325,28.275 188.175,28.85 188.175,30.45 L188.175,34.475 C187.375,33.75 186.3,33.225 185.05,33.225 C181.825,33.225 179.45,36.25 179.45,39.825 C179.45,43.425 181.575,46.375 184.925,46.375 C186.425,46.375 187.6,45.7 188.6,44.175 L188.325,46.05 L192.75,46.05 L192.75,45.675 C192.25,45.575 191.4,45 191.4,43.4 L191.4,27 Z M185.9,45.425 C183.7,45.425 182.725,42.325 182.725,38.75 C182.725,36.275 183.1,33.775 185.175,33.775 C186.5,33.775 187.575,34.825 188.175,36.25 L188.175,43.85 C187.55,44.85 186.75,45.425 185.9,45.425 Z"></path>
            <path id="Path" d="M83.2125,68.025 C82.7625,68.925 81.6125,70.075 78.7875,70.075 L73.9125,70.075 L78.2625,66.45 C80.9875,64.175 82.9375,62.5 82.9375,59.525 C82.9375,56.125 79.7125,54.725 77.1625,54.725 C73.2375,54.725 71.6625,58.125 71.6625,59.95 C71.6625,61.125 72.5125,62.15 73.6375,62.15 C74.5625,62.15 75.3125,61.25 75.3125,60.425 C75.3125,59.325 74.0375,58.525 74.0375,57.425 C74.0375,56.35 75.1375,55.225 76.8875,55.225 C78.7375,55.225 79.6875,56.875 79.6875,58.975 C79.6875,61.2 78.2125,63.125 76.6625,65.2 L70.7875,73.05 L78.7625,73.05 C81.0375,73.05 81.6125,73.2 82.2125,73.4 L83.6875,68.025 L83.2125,68.025 Z"></path>
            <path id="Shape" d="M92.0625,73.375 C96.3625,73.375 99.1125,69.1 99.1125,64.05 C99.1125,59 96.3625,54.725 92.0625,54.725 C87.7625,54.725 85.0125,59 85.0125,64.05 C85.0125,69.1 87.7625,73.375 92.0625,73.375 Z M92.0625,72.75 C90.1375,72.75 88.8875,68.75 88.8875,64.05 C88.8875,59.35 90.1375,55.35 92.0625,55.35 C93.9875,55.35 95.2375,59.35 95.2375,64.05 C95.2375,68.75 93.9875,72.75 92.0625,72.75 Z"></path>
            <path id="Path" d="M100.6625,58.375 C101.6375,57.875 102.6375,58.3 102.6375,59.925 L102.6375,70.65 C102.6375,72.275 101.7875,72.575 101.1875,72.675 L101.1875,73.05 L107.2125,73.05 L107.2125,72.675 C106.7125,72.575 105.8625,72.275 105.8625,70.675 L105.8625,54.2 L100.6625,57.925 L100.6625,58.375 Z"></path>
            <path id="Shape" d="M114.7125,54.725 C110.8125,54.725 108.7625,57.4 108.7625,60.975 C108.7625,63.925 110.8375,66.875 113.6875,66.875 C115.2375,66.875 116.5625,66.375 117.5125,64.825 C117.0625,68.375 113.9625,72.35 110.1875,73.05 L110.2625,73.375 C116.5375,72.875 120.8375,68.225 120.8375,62.5 C120.8375,58.625 118.9625,54.725 114.7125,54.725 Z M115.0625,66.05 C113.2875,66.05 112.2875,63.1 112.2875,60.275 C112.2875,58.525 112.6125,55.25 114.3375,55.25 C116.2125,55.25 117.2875,57.8 117.2875,61.025 C117.2875,63.7 116.7125,66.05 115.0625,66.05 Z"></path>
        </g>
    </g>
</svg>