<svg xmlns:xlink="http://www.w3.org/1999/xlink" xmlns="http://www.w3.org/2000/svg" version="1.1" viewBox="0 0 193 106" height="106px" width="193px">
    <title>endy-award-laurel-rating-193x103</title>
    <g fill-rule="evenodd" fill="none" stroke-width="1" stroke="none" id="endy-award-laurel-rating-193x103">
        <path opacity="0.7" fill-rule="nonzero" fill="#243746" id="BASEDON30,000+CUSTOMERREVIEWS*" d="M7.56554242,101.973727 C8.92863383,101.973727 9.75926765,101.324129 9.75926765,100.120775 C9.75926765,99.4072819 9.31200328,98.8002802 8.69435249,98.5979464 C9.17356431,98.4275599 9.55693377,97.9164007 9.55693377,97.2135567 C9.55693377,96.04215 8.71565079,95.4351483 7.35255939,95.4351483 L4.85000876,95.4351483 L4.85000876,101.973727 L7.56554242,101.973727 Z M7.26736617,98.1187345 L6.15985441,98.1187345 L6.15985441,96.5852567 L7.26736617,96.5852567 C7.91696442,96.5852567 8.25773727,96.819538 8.25773727,97.3413465 C8.25773727,97.8631549 7.91696442,98.1187345 7.26736617,98.1187345 Z M7.44840175,100.823619 L6.15985441,100.823619 L6.15985441,99.1836497 L7.44840175,99.1836497 C8.08735085,99.1836497 8.4281237,99.4924751 8.4281237,100.003634 C8.4281237,100.504144 8.08735085,100.823619 7.44840175,100.823619 Z M11.5237811,101.973727 L12.0988352,100.397653 L14.5481401,100.397653 L15.1338435,101.973727 L16.5182332,101.973727 L14.0156825,95.4351483 L12.6632403,95.4351483 L10.1606897,101.973727 L11.5237811,101.973727 Z M14.1221741,99.2475446 L12.5248013,99.2475446 L13.3234877,97.0751177 L14.1221741,99.2475446 Z M19.5606448,102.080219 C20.9450345,102.080219 21.9886513,101.31348 21.9886513,100.046231 C21.9886513,99.0558599 21.3390531,98.4488582 20.2741379,98.2039278 L19.081433,97.9270498 C18.591572,97.8099091 18.3466415,97.586277 18.3466415,97.2135567 C18.3466415,96.744994 18.7619584,96.4468177 19.3796092,96.4468177 C20.0611549,96.4468177 20.4338752,96.7875906 20.5829633,97.2242058 L21.9354056,97.2242058 C21.7224226,96.116694 20.8598413,95.3286568 19.36896,95.3286568 C17.9952195,95.3286568 17.0154975,96.1592906 17.0154975,97.3413465 C17.0154975,98.4169108 17.7396398,98.9174209 18.6767652,99.1304039 L19.8481719,99.3966327 C20.4125769,99.5244226 20.6468582,99.7374056 20.6468582,100.131424 C20.6468582,100.653233 20.210243,100.951409 19.5499956,100.951409 C18.9110465,100.951409 18.4318347,100.68518 18.2507991,100.110126 L16.8451111,100.110126 C17.0687433,101.356077 18.101711,102.080219 19.5606448,102.080219 Z M27.4271221,101.973727 L27.4271221,100.770373 L24.3282189,100.770373 L24.3282189,99.2155972 L27.139595,99.2155972 L27.139595,98.0548396 L24.3282189,98.0548396 L24.3282189,96.6278533 L27.4271221,96.6278533 L27.4271221,95.4351483 L22.9864258,95.4351483 L22.9864258,101.973727 L27.4271221,101.973727 Z M30.842254,101.973727 C32.8229962,101.973727 34.0689469,100.695829 34.0689469,98.7044379 C34.0689469,96.7130465 32.8229962,95.4351483 30.842254,95.4351483 L28.5313881,95.4351483 L28.5313881,101.973727 L30.842254,101.973727 Z M30.7890082,100.770373 L29.8838303,100.770373 L29.8838303,96.6278533 L30.7890082,96.6278533 C32.0349589,96.6278533 32.7165047,97.4265397 32.7165047,98.7044379 C32.7165047,99.9716869 32.0349589,100.770373 30.7890082,100.770373 Z M40.143121,102.080219 C41.9641259,102.080219 43.2420241,100.653233 43.2420241,98.7044379 C43.2420241,96.744994 41.9641259,95.3286568 40.143121,95.3286568 C38.322116,95.3286568 37.054867,96.744994 37.054867,98.7044379 C37.054867,100.653233 38.322116,102.080219 40.143121,102.080219 Z M40.143121,100.866216 C39.1101533,100.866216 38.4392567,99.9823361 38.4392567,98.7044379 C38.4392567,97.4265397 39.1101533,96.5426601 40.143121,96.5426601 C41.1867378,96.5426601 41.8682835,97.4265397 41.8682835,98.7044379 C41.8682835,99.9823361 41.1867378,100.866216 40.143121,100.866216 Z M45.5496442,101.973727 L45.5496442,97.6182244 L48.6378982,101.973727 L49.7134625,101.973727 L49.7134625,95.4351483 L48.4036169,95.4351483 L48.4036169,99.5670192 L45.5176968,95.4351483 L44.2397986,95.4351483 L44.2397986,101.973727 L45.5496442,101.973727 Z M55.2232315,102.080219 C56.6182704,102.080219 57.4595534,101.217638 57.4595534,100.078178 C57.4595534,99.4818259 57.1613771,98.9174209 56.5543755,98.6511921 C57.0229381,98.4275599 57.3530619,97.8631549 57.3530619,97.234855 C57.3530619,96.116694 56.5543755,95.3286568 55.2232315,95.3286568 C53.9133859,95.3286568 53.0614537,96.2231856 52.9336639,97.3839431 L54.2541587,97.3839431 C54.2967553,96.883433 54.6162299,96.4894143 55.2125824,96.4894143 C55.74504,96.4894143 56.0645145,96.8408363 56.0645145,97.2987499 C56.0645145,97.8418566 55.6385484,98.1187345 55.0847926,98.1187345 L54.7120722,98.1187345 L54.7120722,99.1730005 L55.1273892,99.1730005 C55.7343908,99.1730005 56.1603569,99.5031242 56.1603569,100.05688 C56.1603569,100.578689 55.7663383,100.919461 55.2125824,100.919461 C54.5629841,100.919461 54.2115621,100.525443 54.1476672,99.9503886 L52.8058741,99.9503886 C52.8804182,101.217638 53.8175435,102.080219 55.2232315,102.080219 Z M60.714948,102.080219 C62.2484258,102.080219 63.2920427,100.695829 63.2920427,98.7044379 C63.2920427,96.7130465 62.2484258,95.3286568 60.714948,95.3286568 C59.1814702,95.3286568 58.1378533,96.7130465 58.1378533,98.7044379 C58.1378533,100.695829 59.1814702,102.080219 60.714948,102.080219 Z M60.714948,100.866216 C59.8310684,100.866216 59.4689973,99.9184412 59.4689973,98.7044379 C59.4689973,97.4904346 59.8310684,96.5426601 60.714948,96.5426601 C61.5881784,96.5426601 61.9608987,97.4904346 61.9608987,98.7044379 C61.9608987,99.9184412 61.5881784,100.866216 60.714948,100.866216 Z M64.3963087,103.134485 L65.0033103,102.229307 C65.1949951,101.94178 65.3440832,101.590358 65.3440832,101.270883 C65.3440832,100.68518 64.9713629,100.365706 64.5134494,100.365706 C64.0448867,100.365706 63.6828155,100.706478 63.6828155,101.175041 C63.6828155,101.611656 63.9703426,101.877885 64.3217646,101.94178 L63.5443766,103.134485 L64.3963087,103.134485 Z M68.3119507,102.080219 C69.8454286,102.080219 70.8890454,100.695829 70.8890454,98.7044379 C70.8890454,96.7130465 69.8454286,95.3286568 68.3119507,95.3286568 C66.7784729,95.3286568 65.734856,96.7130465 65.734856,98.7044379 C65.734856,100.695829 66.7784729,102.080219 68.3119507,102.080219 Z M68.3119507,100.866216 C67.4280712,100.866216 67.066,99.9184412 67.066,98.7044379 C67.066,97.4904346 67.4280712,96.5426601 68.3119507,96.5426601 C69.1851812,96.5426601 69.5579015,97.4904346 69.5579015,98.7044379 C69.5579015,99.9184412 69.1851812,100.866216 68.3119507,100.866216 Z M74.1976858,102.080219 C75.7311637,102.080219 76.7747805,100.695829 76.7747805,98.7044379 C76.7747805,96.7130465 75.7311637,95.3286568 74.1976858,95.3286568 C72.664208,95.3286568 71.6205911,96.7130465 71.6205911,98.7044379 C71.6205911,100.695829 72.664208,102.080219 74.1976858,102.080219 Z M74.1976858,100.866216 C73.3138062,100.866216 72.9517351,99.9184412 72.9517351,98.7044379 C72.9517351,97.4904346 73.3138062,96.5426601 74.1976858,96.5426601 C75.0709163,96.5426601 75.4436366,97.4904346 75.4436366,98.7044379 C75.4436366,99.9184412 75.0709163,100.866216 74.1976858,100.866216 Z M80.0834209,102.080219 C81.6168987,102.080219 82.6605156,100.695829 82.6605156,98.7044379 C82.6605156,96.7130465 81.6168987,95.3286568 80.0834209,95.3286568 C78.5499431,95.3286568 77.5063262,96.7130465 77.5063262,98.7044379 C77.5063262,100.695829 78.5499431,102.080219 80.0834209,102.080219 Z M80.0834209,100.866216 C79.1995413,100.866216 78.8374702,99.9184412 78.8374702,98.7044379 C78.8374702,97.4904346 79.1995413,96.5426601 80.0834209,96.5426601 C80.9566513,96.5426601 81.3293716,97.4904346 81.3293716,98.7044379 C81.3293716,99.9184412 80.9566513,100.866216 80.0834209,100.866216 Z M86.5442102,101.079199 L86.5442102,99.3007904 L88.3332677,99.3007904 L88.3332677,98.2784718 L86.5442102,98.2784718 L86.5442102,96.4894143 L85.5325408,96.4894143 L85.5325408,98.2784718 L83.7328342,98.2784718 L83.7328342,99.3007904 L85.5325408,99.3007904 L85.5325408,101.079199 L86.5442102,101.079199 Z M94.7269163,102.080219 C96.2710432,102.080219 97.2188177,101.175041 97.4637482,99.8545463 L96.111306,99.8545463 C95.8876738,100.461548 95.483006,100.866216 94.7269163,100.866216 C93.6832994,100.866216 93.0656486,99.9397395 93.0656486,98.7044379 C93.0656486,97.4584871 93.6832994,96.5426601 94.7269163,96.5426601 C95.483006,96.5426601 95.8876738,96.9473279 96.111306,97.5436804 L97.4637482,97.5436804 C97.2188177,96.2338347 96.2710432,95.3286568 94.7269163,95.3286568 C92.9804554,95.3286568 91.6812589,96.7023974 91.6812589,98.7044379 C91.6812589,100.706478 92.9804554,102.080219 94.7269163,102.080219 Z M101.049267,102.080219 C102.689236,102.080219 103.7648,101.143094 103.7648,99.343387 L103.7648,95.4351483 L102.401709,95.4351483 L102.401709,99.204948 C102.401709,100.323109 101.911848,100.855567 101.049267,100.855567 C100.186685,100.855567 99.6968243,100.323109 99.6968243,99.204948 L99.6968243,95.4351483 L98.3337329,95.4351483 L98.3337329,99.343387 C98.3337329,101.143094 99.4199464,102.080219 101.049267,102.080219 Z M107.243827,102.080219 C108.628217,102.080219 109.671834,101.31348 109.671834,100.046231 C109.671834,99.0558599 109.022235,98.4488582 107.95732,98.2039278 L106.764615,97.9270498 C106.274754,97.8099091 106.029824,97.586277 106.029824,97.2135567 C106.029824,96.744994 106.445141,96.4468177 107.062791,96.4468177 C107.744337,96.4468177 108.117057,96.7875906 108.266146,97.2242058 L109.618588,97.2242058 C109.405605,96.116694 108.543024,95.3286568 107.052142,95.3286568 C105.678402,95.3286568 104.69868,96.1592906 104.69868,97.3413465 C104.69868,98.4169108 105.422822,98.9174209 106.359947,99.1304039 L107.531354,99.3966327 C108.095759,99.5244226 108.330041,99.7374056 108.330041,100.131424 C108.330041,100.653233 107.893425,100.951409 107.233178,100.951409 C106.594229,100.951409 106.115017,100.68518 105.933981,100.110126 L104.528293,100.110126 C104.751926,101.356077 105.784893,102.080219 107.243827,102.080219 Z M113.683318,101.973727 L113.683318,96.6278533 L115.79185,96.6278533 L115.79185,95.4351483 L110.211695,95.4351483 L110.211695,96.6278533 L112.309577,96.6278533 L112.309577,101.973727 L113.683318,101.973727 Z M119.175034,102.080219 C120.996039,102.080219 122.273938,100.653233 122.273938,98.7044379 C122.273938,96.744994 120.996039,95.3286568 119.175034,95.3286568 C117.35403,95.3286568 116.086781,96.744994 116.086781,98.7044379 C116.086781,100.653233 117.35403,102.080219 119.175034,102.080219 Z M119.175034,100.866216 C118.142067,100.866216 117.47117,99.9823361 117.47117,98.7044379 C117.47117,97.4265397 118.142067,96.5426601 119.175034,96.5426601 C120.218651,96.5426601 120.900197,97.4265397 120.900197,98.7044379 C120.900197,99.9823361 120.218651,100.866216 119.175034,100.866216 Z M124.54961,101.973727 L124.54961,97.7034176 L126.168281,101.973727 L127.094758,101.973727 L128.681481,97.7034176 L128.681481,101.973727 L129.970028,101.973727 L129.970028,95.4351483 L128.372656,95.4351483 L126.636844,100.046231 L124.890383,95.4351483 L123.271712,95.4351483 L123.271712,101.973727 L124.54961,101.973727 Z M135.717325,101.973727 L135.717325,100.770373 L132.618421,100.770373 L132.618421,99.2155972 L135.429797,99.2155972 L135.429797,98.0548396 L132.618421,98.0548396 L132.618421,96.6278533 L135.717325,96.6278533 L135.717325,95.4351483 L131.276628,95.4351483 L131.276628,101.973727 L135.717325,101.973727 Z M138.174033,101.973727 L138.174033,99.5350717 L138.887526,99.5350717 L140.506197,101.973727 L142.039675,101.973727 L140.314512,99.4392293 C141.230339,99.2155972 141.805394,98.5553498 141.805394,97.5117329 C141.805394,96.1699398 140.889567,95.4351483 139.515826,95.4351483 L136.821591,95.4351483 L136.821591,101.973727 L138.174033,101.973727 Z M139.430633,98.4169108 L138.174033,98.4169108 L138.174033,96.5959059 L139.430633,96.5959059 C140.112178,96.5959059 140.4636,96.957977 140.4636,97.5117329 C140.4636,98.0548396 140.112178,98.4169108 139.430633,98.4169108 Z M146.527125,101.973727 L146.527125,99.5350717 L147.240619,99.5350717 L148.85929,101.973727 L150.392767,101.973727 L148.667605,99.4392293 C149.583432,99.2155972 150.158486,98.5553498 150.158486,97.5117329 C150.158486,96.1699398 149.242659,95.4351483 147.868918,95.4351483 L145.174683,95.4351483 L145.174683,101.973727 L146.527125,101.973727 Z M147.783725,98.4169108 L146.527125,98.4169108 L146.527125,96.5959059 L147.783725,96.5959059 C148.465271,96.5959059 148.816693,96.957977 148.816693,97.5117329 C148.816693,98.0548396 148.465271,98.4169108 147.783725,98.4169108 Z M155.660852,101.973727 L155.660852,100.770373 L152.561949,100.770373 L152.561949,99.2155972 L155.373325,99.2155972 L155.373325,98.0548396 L152.561949,98.0548396 L152.561949,96.6278533 L155.660852,96.6278533 L155.660852,95.4351483 L151.220155,95.4351483 L151.220155,101.973727 L155.660852,101.973727 Z M160.066355,101.973727 L162.526309,95.4351483 L161.120621,95.4351483 L159.427406,100.163372 L157.73419,95.4351483 L156.296555,95.4351483 L158.74586,101.973727 L160.066355,101.973727 Z M164.716788,101.973727 L164.716788,95.4351483 L163.353697,95.4351483 L163.353697,101.973727 L164.716788,101.973727 Z M170.453435,101.973727 L170.453435,100.770373 L167.354532,100.770373 L167.354532,99.2155972 L170.165908,99.2155972 L170.165908,98.0548396 L167.354532,98.0548396 L167.354532,96.6278533 L170.453435,96.6278533 L170.453435,95.4351483 L166.012739,95.4351483 L166.012739,101.973727 L170.453435,101.973727 Z M174.007006,101.973727 L175.157114,97.660821 L176.307223,101.973727 L177.553174,101.973727 L179.257038,95.4351483 L177.915245,95.4351483 L176.83968,99.8332479 L175.71087,95.4351483 L174.645955,95.4351483 L173.495847,99.8332479 L172.430932,95.4351483 L171.057191,95.4351483 L172.761055,101.973727 L174.007006,101.973727 Z M182.299449,102.080219 C183.683839,102.080219 184.727456,101.31348 184.727456,100.046231 C184.727456,99.0558599 184.077858,98.4488582 183.012943,98.2039278 L181.820238,97.9270498 C181.330377,97.8099091 181.085446,97.586277 181.085446,97.2135567 C181.085446,96.744994 181.500763,96.4468177 182.118414,96.4468177 C182.799959,96.4468177 183.17268,96.7875906 183.321768,97.2242058 L184.67421,97.2242058 C184.461227,96.116694 183.598646,95.3286568 182.107765,95.3286568 C180.734024,95.3286568 179.754302,96.1592906 179.754302,97.3413465 C179.754302,98.4169108 180.478444,98.9174209 181.41557,99.1304039 L182.586976,99.3966327 C183.151381,99.5244226 183.385663,99.7374056 183.385663,100.131424 C183.385663,100.653233 182.949048,100.951409 182.2888,100.951409 C181.649851,100.951409 181.170639,100.68518 180.989604,100.110126 L179.583916,100.110126 C179.807548,101.356077 180.840516,102.080219 182.299449,102.080219 Z M187.226761,98.2465244 L187.226761,97.234855 L188.099991,97.7460142 L188.440764,97.1496617 L187.556885,96.6491516 L188.440764,96.1486415 L188.099991,95.552289 L187.226761,96.0634483 L187.226761,95.0517789 L186.545215,95.0517789 L186.545215,96.0634483 L185.671985,95.552289 L185.331212,96.1486415 L186.204442,96.6491516 L185.331212,97.1496617 L185.671985,97.7460142 L186.545215,97.234855 L186.545215,98.2465244 L187.226761,98.2465244 Z"></path>
        <g fill-rule="nonzero" transform="translate(56.292580, 3.384615)" id="FIVE-STARS">
            <polygon points="6.80234612 19.1680802 2.9634017 21.1863328 3.69657484 16.9116053 0.590803564 13.8842265 4.88287391 13.2605522 6.80234612 9.3712767 8.72181833 13.2605522 13.0138887 13.8842265 9.9081174 16.9116053 10.6412905 21.1863328" fill="#FDC01A" stroke-width="0.768376747" stroke="#FDC01A" id="Star"></polygon>
            <polygon points="23.3224486 14.1309439 19.4835042 16.1491964 20.2166773 11.874469 17.110906 8.84709021 21.4029764 8.22341588 23.3224486 4.33414038 25.2419208 8.22341588 29.5339911 8.84709021 26.4282199 11.874469 27.161393 16.1491964" fill="#FDC01A" stroke-width="0.768376747" stroke="#FDC01A" id="Star"></polygon>
            <polygon points="40.2267394 9.84084059 36.1619747 11.8590931 36.9382757 7.58436568 33.649812 4.5569869 38.1943571 3.93331257 40.2267394 0.0440370677 42.2591218 3.93331257 46.8036668 4.5569869 43.5152031 7.58436568 44.2915041 11.8590931" fill="#FDC01A" stroke-width="0.768376747" stroke="#FDC01A" id="Star"></polygon>
            <polygon points="57.1310303 14.1309439 53.2920858 16.1491964 54.025259 11.874469 50.9194877 8.84709021 55.2115581 8.22341588 57.1310303 4.33414038 59.0505025 8.22341588 63.3425728 8.84709021 60.2368015 11.874469 60.9699747 16.1491964" fill="#FDC01A" stroke-width="0.768376747" stroke="#FDC01A" id="Star"></polygon>
            <polygon points="73.6511327 19.1680802 69.8121883 21.1863328 70.5453615 16.9116053 67.4395902 13.8842265 71.7316605 13.2605522 73.6511327 9.3712767 75.5706049 13.2605522 79.8626753 13.8842265 76.756904 16.9116053 77.4900772 21.1863328" stroke-width="0.768376747" stroke="#FDC01A" id="Star"></polygon>
            <polygon points="73.6511327 19.1680802 69.8121883 21.1863328 70.5453615 16.9116053 67.4395902 13.8842265 71.7316605 13.2605522 73.6511327 9.3712767 75.9098566 13.4712865 76.2290559 15.0605114 77.429095 21.0352499" fill="#FDC01A" id="Star"></polygon>
        </g>
        <g fill-rule="nonzero" fill="#243746" transform="translate(32.618500, 51.314637)" id="4.9-Star-Rating">
            <path id="Shape" d="M9.538,7.239 L9.253,7.239 C8.949,7.98 8.455,8.246 7.391,8.303 L7.391,0.247 L6.289,0.247 L0,8.493 L0,9.519 L4.94,9.519 L4.94,11.913 C4.94,13.338 4.104,13.585 3.724,13.661 L3.724,13.927 L8.417,13.927 L8.417,13.642 C8.037,13.566 7.391,13.338 7.391,11.932 L7.391,9.519 L9.006,9.519 L9.538,7.239 Z M4.94,2.584 L4.94,8.322 L0.551,8.341 L4.94,2.584 Z"></path>
            <path id="Path" d="M12.16,14.174 C12.977,14.174 13.642,13.509 13.642,12.673 C13.642,11.856 12.977,11.191 12.16,11.191 C11.324,11.191 10.659,11.856 10.659,12.673 C10.659,13.509 11.324,14.174 12.16,14.174 Z"></path>
            <path id="Shape" d="M19.494,2.84217094e-14 C16.53,2.84217094e-14 14.972,2.033 14.972,4.75 C14.972,6.992 16.549,9.234 18.715,9.234 C19.893,9.234 20.9,8.854 21.622,7.676 C21.28,10.374 18.924,13.395 16.055,13.927 L16.112,14.174 C20.881,13.794 24.149,10.26 24.149,5.909 C24.149,2.964 22.724,2.84217094e-14 19.494,2.84217094e-14 Z M19.76,8.607 C18.411,8.607 17.651,6.365 17.651,4.218 C17.651,2.888 17.898,0.399 19.209,0.399 C20.634,0.399 21.451,2.337 21.451,4.788 C21.451,6.821 21.014,8.607 19.76,8.607 Z"></path>
            <path id="Path" d="M36.347,14.174 C38.912,14.174 40.888,12.616 40.888,9.994 C40.888,4.921 32.984,6.251 32.984,2.242 C32.984,1.273 33.687,0.38 35.017,0.38 C36.689,0.38 38.76,1.824 39.71,4.788 L40.09,4.788 L39.368,2.84217094e-14 L39.216,2.84217094e-14 C38.475,1.292 37.335,2.84217094e-14 34.998,2.84217094e-14 C32.794,2.84217094e-14 31.046,1.9 31.046,3.99 C31.046,8.512 38.95,7.999 38.95,11.59 C38.95,13.053 37.867,13.794 36.233,13.794 C33.763,13.794 32.11,11.02 31.16,8.075 L30.78,8.075 L31.673,14.174 L31.825,14.174 C32.775,12.673 33.896,14.174 36.347,14.174 Z"></path>
            <path id="Path" d="M48.127,4.066 C47.386,4.294 46.398,4.427 45.638,4.427 L45.638,0.855 L45.334,0.855 C44.84,2.28 43.301,4.047 41.781,4.427 L41.781,4.902 L43.187,4.902 L43.187,11.343 C43.187,13.319 44.175,14.155 45.334,14.155 C46.778,14.155 47.614,13.414 47.804,13.205 L47.804,12.92 C47.462,13.186 45.638,13.794 45.638,11.115 L45.638,4.902 L48.013,4.902 L48.127,4.066 Z"></path>
            <path id="Shape" d="M51.623,14.174 C52.611,14.174 53.884,13.699 54.568,12.521 C54.606,13.452 55.271,14.174 56.373,14.174 C57.019,14.174 57.893,13.68 58.235,13.072 L58.235,12.787 C57.266,13.262 56.962,12.692 56.962,11.514 L56.962,8.436 C56.962,5.529 55.86,4.18 52.934,4.18 C51.072,4.18 49.4,5.472 49.4,6.821 C49.4,7.543 49.799,8.132 50.559,8.132 C51.338,8.132 51.87,7.695 51.87,7.087 C51.87,6.403 51.585,6.27 51.585,5.662 C51.585,5.225 51.87,4.56 52.782,4.56 C53.732,4.56 54.549,5.244 54.549,6.973 L54.549,8.341 C53.143,8.74 48.925,9.196 48.925,11.78 C48.925,13.452 50.046,14.174 51.623,14.174 Z M52.877,13.015 C52.022,13.015 51.433,12.426 51.433,11.305 C51.433,9.728 53.219,9.272 54.549,8.683 L54.549,11.324 C54.549,12.445 53.542,13.015 52.877,13.015 Z"></path>
            <path id="Path" d="M65.018,4.18 C63.783,4.18 62.89,4.997 62.301,6.593 L62.282,6.612 L62.624,4.085 L59.128,4.788 L59.128,5.073 C59.508,5.168 60.154,5.491 60.154,6.707 L60.154,11.913 C60.154,13.053 59.508,13.604 59.128,13.68 L59.128,13.927 L63.593,13.927 L63.593,13.661 C63.213,13.585 62.605,13.167 62.605,11.913 L62.605,6.783 C62.89,6.137 63.327,5.567 63.688,5.567 C64.353,5.567 64.125,6.802 65.265,6.802 C65.911,6.802 66.481,6.289 66.481,5.548 C66.481,4.712 65.835,4.18 65.018,4.18 Z"></path>
            <path id="Shape" d="M80.598,7.942 L78.546,7.79 L78.546,7.562 L79.154,7.562 C81.624,7.562 83.638,6.403 83.638,4.085 C83.638,1.539 81.225,0.247 78.28,0.247 L73.017,0.247 L73.017,0.532 C73.397,0.608 74.024,0.95 74.024,2.356 L74.024,11.913 C74.024,13.11 73.397,13.585 73.017,13.661 L73.017,13.927 L77.691,13.927 L77.691,13.661 C77.311,13.585 76.722,13.11 76.722,11.913 L76.722,7.562 L77.501,7.562 L80.693,12.806 C81.13,13.528 81.776,13.927 82.593,13.927 L84.968,13.927 L84.968,13.661 C84.55,13.604 83.961,13.395 83.239,12.217 L80.598,7.942 Z M77.273,0.589 C79.344,0.589 80.94,1.995 80.94,4.085 C80.94,5.966 80.028,7.277 78.584,7.277 C77.9,7.277 77.083,7.163 76.722,7.125 L76.722,0.589 L77.273,0.589 Z"></path>
            <path id="Shape" d="M87.989,14.174 C88.977,14.174 90.25,13.699 90.934,12.521 C90.972,13.452 91.637,14.174 92.739,14.174 C93.385,14.174 94.259,13.68 94.601,13.072 L94.601,12.787 C93.632,13.262 93.328,12.692 93.328,11.514 L93.328,8.436 C93.328,5.529 92.226,4.18 89.3,4.18 C87.438,4.18 85.766,5.472 85.766,6.821 C85.766,7.543 86.165,8.132 86.925,8.132 C87.704,8.132 88.236,7.695 88.236,7.087 C88.236,6.403 87.951,6.27 87.951,5.662 C87.951,5.225 88.236,4.56 89.148,4.56 C90.098,4.56 90.915,5.244 90.915,6.973 L90.915,8.341 C89.509,8.74 85.291,9.196 85.291,11.78 C85.291,13.452 86.412,14.174 87.989,14.174 Z M89.243,13.015 C88.388,13.015 87.799,12.426 87.799,11.305 C87.799,9.728 89.585,9.272 90.915,8.683 L90.915,11.324 C90.915,12.445 89.908,13.015 89.243,13.015 Z"></path>
            <path id="Path" d="M101.46,4.066 C100.719,4.294 99.731,4.427 98.971,4.427 L98.971,0.855 L98.667,0.855 C98.173,2.28 96.634,4.047 95.114,4.427 L95.114,4.902 L96.52,4.902 L96.52,11.343 C96.52,13.319 97.508,14.155 98.667,14.155 C100.111,14.155 100.947,13.414 101.137,13.205 L101.137,12.92 C100.795,13.186 98.971,13.794 98.971,11.115 L98.971,4.902 L101.346,4.902 L101.46,4.066 Z"></path>
            <path id="Shape" d="M104.538,2.907 C105.336,2.907 106.001,2.242 106.001,1.463 C106.001,0.665 105.336,2.84217094e-14 104.538,2.84217094e-14 C103.759,2.84217094e-14 103.094,0.665 103.094,1.463 C103.094,2.242 103.759,2.907 104.538,2.907 Z M106.799,13.927 L106.799,13.661 C106.419,13.585 105.83,13.167 105.83,11.913 L105.83,4.085 L102.353,4.769 L102.353,5.054 C102.733,5.13 103.36,5.472 103.36,6.688 L103.36,11.913 C103.36,13.167 102.733,13.585 102.353,13.661 L102.353,13.927 L106.799,13.927 Z"></path>
            <path id="Path" d="M117.116,7.733 C117.116,5.586 116.052,4.18 113.962,4.18 C112.67,4.18 111.625,5.035 111.055,6.46 L111.378,4.085 L107.882,4.788 L107.882,5.073 C108.262,5.168 108.908,5.491 108.908,6.707 L108.908,11.913 C108.908,13.053 108.262,13.604 107.882,13.68 L107.882,13.927 L112.347,13.927 L112.347,13.661 C111.967,13.585 111.359,13.167 111.359,11.913 L111.359,6.479 C111.796,5.51 112.48,4.921 113.183,4.921 C114.171,4.921 114.665,5.605 114.665,7.999 L114.665,11.913 C114.665,13.034 114.038,13.585 113.658,13.661 L113.658,13.927 L118.142,13.927 L118.142,13.661 C117.762,13.585 117.116,13.034 117.116,11.913 L117.116,7.733 Z"></path>
            <path id="Shape" d="M125.799,12.635 C124.83,12.635 123.12,12.787 122.284,12.787 C121.353,12.787 120.707,12.426 120.707,11.571 C120.707,11.229 120.878,10.925 121.087,10.659 C121.771,11.153 122.645,11.438 123.614,11.438 C125.913,11.438 127.718,9.804 127.718,7.809 C127.718,6.156 126.54,5.51 126.54,4.997 C126.54,4.75 126.692,4.579 126.977,4.579 C127.357,4.579 127.395,5.263 128.003,5.263 C128.649,5.263 129.01,4.826 129.01,4.199 C129.01,3.61 128.497,3.154 127.889,3.154 C126.977,3.154 126.198,3.762 126.198,4.731 C126.198,4.826 126.217,4.921 126.236,4.997 C125.533,4.484 124.621,4.18 123.614,4.18 C121.334,4.18 119.567,5.795 119.567,7.809 C119.567,8.854 120.042,9.785 120.821,10.45 C120.137,10.887 119.396,11.628 119.396,12.692 C119.396,13.547 119.795,14.193 120.422,14.611 C119.7,14.896 119.13,15.466 119.13,16.15 C119.13,17.518 120.555,18.316 123.823,18.316 C127.243,18.316 128.877,17.252 128.877,15.295 C128.877,13.224 127.338,12.635 125.799,12.635 Z M123.101,4.598 C124.393,4.598 125.191,7.657 125.191,9.215 C125.191,9.785 125.058,11.02 124.146,11.02 C122.854,11.02 122.075,8.094 122.075,6.365 C122.075,5.434 122.322,4.598 123.101,4.598 Z M123.823,17.955 C122.094,17.955 120.631,17.347 120.631,16.055 C120.631,15.637 120.764,15.219 121.068,14.915 C121.41,15.029 121.771,15.086 122.151,15.086 C123.158,15.086 124.716,14.915 125.609,14.915 C126.616,14.915 127.338,15.143 127.338,16.093 C127.338,17.252 125.837,17.955 123.823,17.955 Z"></path>
        </g>
    </g>
</svg>